<?xml version="1.0" standalone="no"?><!DOCTYPE svg PUBLIC "-//W3C//DTD SVG 1.1//EN" "http://www.w3.org/Graphics/SVG/1.1/DTD/svg11.dtd"><svg t="1780384638095" class="icon" viewBox="0 0 1024 1024" version="1.1" xmlns="http://www.w3.org/2000/svg" p-id="4735" xmlns:xlink="http://www.w3.org/1999/xlink" width="200" height="200"><path d="M901.41666343 811.6534718c-15.17232733 18.54395645-42.98826159 20.22977061-61.53221806 5.05744245L521.26556399 548.66645813l-64.90384551 76.7045462-199.76898147-167.73851184 203.98351683-240.22852184L660.3452345 385.14248248l-61.53221805 72.49001001L917.43189783 725.67694778c18.54395645 15.17232733 20.22977061 42.98826159 5.05744244 60.68931098l-21.07267685 25.28721304zM748.85047974 361.54108359c-15.17232733 18.54395645-42.98826159 20.22977061-61.53221805 5.05744326L487.54928022 199.70292209c-18.54395645-15.17232733-20.22977061-42.98826159-5.05744245-60.68931098l27.81593427-32.8733767c15.17232733-18.54395645 42.98826159-21.07267767 61.53221805-5.05744244L771.60897073 267.13548965c18.54395645 15.17232733 20.22977061 42.98826159 5.05744245 60.68931015l-27.81593344 33.71628379zM447.93264691 718.09078412L420.11671347 750.96416082c-15.17232733 18.54395645-42.98826159 20.22977061-61.53221805 5.05744246L158.81551394 589.12599932c-18.54395645-15.17232733-20.22977061-42.98826159-5.05744244-60.68931096l27.81593427-32.87337672c15.17232733-18.54395645 42.98826159-21.07267767 61.53221805-5.05744245l199.76898065 167.73851103c17.70104856 14.32942026 20.22977061 41.30244745 5.05744243 59.84640389z m169.42432599 154.25199783v16.8581423c0.84290707 23.6013989-16.85814148 42.98826159-39.6166333 44.67407575H130.15667343c-23.6013989-1.68581414-41.30244745-21.07267767-39.6166333-44.67407575v-16.8581423c-0.84290707-23.6013989 16.85814148-42.98826159 39.6166333-44.67407574h447.58366617c22.75849182 0.84290707 40.45954038 21.07267767 39.6166333 44.67407574z" p-id="4736"></path></svg>