<?xml version="1.0" encoding="UTF-8" standalone="no"?>
<!DOCTYPE svg PUBLIC "-//W3C//DTD SVG 1.1//EN"
 "http://www.w3.org/Graphics/SVG/1.1/DTD/svg11.dtd">
<!-- Generated by graphviz version 2.43.0 (0)
 -->
<!-- Title: anvil&#45;library_deps Pages: 1 -->
<svg width="596pt" height="169pt"
 viewBox="0.00 0.00 596.00 169.00" xmlns="http://www.w3.org/2000/svg" xmlns:xlink="http://www.w3.org/1999/xlink">
<g id="graph0" class="graph" transform="scale(1 1) rotate(0) translate(4 165)">
<title>anvil&#45;library_deps</title>
<polygon fill="white" stroke="transparent" points="-4,4 -4,-165 592,-165 592,4 -4,4"/>
<g id="clust3" class="cluster">
<title>cluster_legend</title>
<path fill="white" stroke="#9e9e9e" d="M90,-82C90,-82 568,-82 568,-82 574,-82 580,-88 580,-94 580,-94 580,-141 580,-141 580,-147 574,-153 568,-153 568,-153 90,-153 90,-153 84,-153 78,-147 78,-141 78,-141 78,-94 78,-94 78,-88 84,-82 90,-82"/>
<text text-anchor="middle" x="329" y="-141" font-family="Helvetica,sans-Serif" font-size="10.00" fill="#616161">legend</text>
</g>
<!-- TempPred -->
<g id="node1" class="node">
<title>TempPred</title>
<path fill="#e3f2fd" stroke="#1976d2" d="M56,-126C56,-126 12,-126 12,-126 6,-126 0,-120 0,-114 0,-114 0,-102 0,-102 0,-96 6,-90 12,-90 12,-90 56,-90 56,-90 62,-90 68,-96 68,-102 68,-102 68,-114 68,-114 68,-120 62,-126 56,-126"/>
<text text-anchor="middle" x="34" y="-111.2" font-family="Helvetica,sans-Serif" font-size="11.00">TempPred</text>
<text text-anchor="middle" x="34" y="-99.2" font-family="Helvetica,sans-Serif" font-size="11.00">&lt;struct&gt;</text>
</g>
<!-- Execution -->
<g id="node3" class="node">
<title>Execution</title>
<path fill="#e3f2fd" stroke="#1976d2" d="M56,-36C56,-36 12,-36 12,-36 6,-36 0,-30 0,-24 0,-24 0,-12 0,-12 0,-6 6,0 12,0 12,0 56,0 56,0 62,0 68,-6 68,-12 68,-12 68,-24 68,-24 68,-30 62,-36 56,-36"/>
<text text-anchor="middle" x="34" y="-21.2" font-family="Helvetica,sans-Serif" font-size="11.00">Execution</text>
<text text-anchor="middle" x="34" y="-9.2" font-family="Helvetica,sans-Serif" font-size="11.00">&lt;struct&gt;</text>
</g>
<!-- TempPred&#45;&gt;Execution -->
<g id="edge1" class="edge">
<title>TempPred&#45;&gt;Execution</title>
<path fill="none" stroke="#90a4ae" stroke-width="0.8" d="M34,-89.61C34,-76.03 34,-57.02 34,-42.14"/>
<polygon fill="#90a4ae" stroke="#90a4ae" stroke-width="0.8" points="36.1,-42.05 34,-36.05 31.9,-42.05 36.1,-42.05"/>
</g>
<!-- ActionPred -->
<g id="node2" class="node">
<title>ActionPred</title>
<path fill="#f3e5f5" stroke="#7b1fa2" d="M148,-36C148,-36 98,-36 98,-36 92,-36 86,-30 86,-24 86,-24 86,-12 86,-12 86,-6 92,0 98,0 98,0 148,0 148,0 154,0 160,-6 160,-12 160,-12 160,-24 160,-24 160,-30 154,-36 148,-36"/>
<text text-anchor="middle" x="123" y="-21.2" font-family="Helvetica,sans-Serif" font-size="11.00">ActionPred</text>
<text text-anchor="middle" x="123" y="-9.2" font-family="Helvetica,sans-Serif" font-size="11.00">&lt;alias&gt;</text>
</g>
<!-- StatePred -->
<g id="node4" class="node">
<title>StatePred</title>
<path fill="#f3e5f5" stroke="#7b1fa2" d="M235.5,-36C235.5,-36 190.5,-36 190.5,-36 184.5,-36 178.5,-30 178.5,-24 178.5,-24 178.5,-12 178.5,-12 178.5,-6 184.5,0 190.5,0 190.5,0 235.5,0 235.5,0 241.5,0 247.5,-6 247.5,-12 247.5,-12 247.5,-24 247.5,-24 247.5,-30 241.5,-36 235.5,-36"/>
<text text-anchor="middle" x="213" y="-21.2" font-family="Helvetica,sans-Serif" font-size="11.00">StatePred</text>
<text text-anchor="middle" x="213" y="-9.2" font-family="Helvetica,sans-Serif" font-size="11.00">&lt;alias&gt;</text>
</g>
<!-- leg_struct -->
<g id="node5" class="node">
<title>leg_struct</title>
<path fill="#e3f2fd" stroke="#1976d2" d="M560,-126C560,-126 530,-126 530,-126 524,-126 518,-120 518,-114 518,-114 518,-102 518,-102 518,-96 524,-90 530,-90 530,-90 560,-90 560,-90 566,-90 572,-96 572,-102 572,-102 572,-114 572,-114 572,-120 566,-126 560,-126"/>
<text text-anchor="middle" x="545" y="-105.8" font-family="Helvetica,sans-Serif" font-size="9.00">struct</text>
</g>
<!-- leg_enum -->
<g id="node6" class="node">
<title>leg_enum</title>
<path fill="#fff3e0" stroke="#f57c00" d="M488,-126C488,-126 458,-126 458,-126 452,-126 446,-120 446,-114 446,-114 446,-102 446,-102 446,-96 452,-90 458,-90 458,-90 488,-90 488,-90 494,-90 500,-96 500,-102 500,-102 500,-114 500,-114 500,-120 494,-126 488,-126"/>
<text text-anchor="middle" x="473" y="-105.8" font-family="Helvetica,sans-Serif" font-size="9.00">enum</text>
</g>
<!-- leg_alias -->
<g id="node7" class="node">
<title>leg_alias</title>
<path fill="#f3e5f5" stroke="#7b1fa2" d="M416,-126C416,-126 386,-126 386,-126 380,-126 374,-120 374,-114 374,-114 374,-102 374,-102 374,-96 380,-90 386,-90 386,-90 416,-90 416,-90 422,-90 428,-96 428,-102 428,-102 428,-114 428,-114 428,-120 422,-126 416,-126"/>
<text text-anchor="middle" x="401" y="-105.8" font-family="Helvetica,sans-Serif" font-size="9.00">alias</text>
</g>
<!-- leg_union -->
<g id="node8" class="node">
<title>leg_union</title>
<path fill="#e0f7fa" stroke="#0097a7" d="M344,-126C344,-126 314,-126 314,-126 308,-126 302,-120 302,-114 302,-114 302,-102 302,-102 302,-96 308,-90 314,-90 314,-90 344,-90 344,-90 350,-90 356,-96 356,-102 356,-102 356,-114 356,-114 356,-120 350,-126 344,-126"/>
<text text-anchor="middle" x="329" y="-105.8" font-family="Helvetica,sans-Serif" font-size="9.00">union</text>
</g>
<!-- leg_container -->
<g id="node9" class="node">
<title>leg_container</title>
<path fill="#e8f5e9" stroke="#388e3c" d="M272,-126C272,-126 242,-126 242,-126 236,-126 230,-120 230,-114 230,-114 230,-102 230,-102 230,-96 236,-90 242,-90 242,-90 272,-90 272,-90 278,-90 284,-96 284,-102 284,-102 284,-114 284,-114 284,-120 278,-126 272,-126"/>
<text text-anchor="middle" x="257" y="-105.8" font-family="Helvetica,sans-Serif" font-size="9.00">container</text>
</g>
<!-- leg_primitive -->
<g id="node10" class="node">
<title>leg_primitive</title>
<path fill="#fafafa" stroke="#616161" d="M200,-126C200,-126 170,-126 170,-126 164,-126 158,-120 158,-114 158,-114 158,-102 158,-102 158,-96 164,-90 170,-90 170,-90 200,-90 200,-90 206,-90 212,-96 212,-102 212,-102 212,-114 212,-114 212,-120 206,-126 200,-126"/>
<text text-anchor="middle" x="185" y="-105.8" font-family="Helvetica,sans-Serif" font-size="9.00">primitive</text>
</g>
<!-- leg_external -->
<g id="node11" class="node">
<title>leg_external</title>
<path fill="#ffebee" stroke="#c62828" d="M128,-126C128,-126 98,-126 98,-126 92,-126 86,-120 86,-114 86,-114 86,-102 86,-102 86,-96 92,-90 98,-90 98,-90 128,-90 128,-90 134,-90 140,-96 140,-102 140,-102 140,-114 140,-114 140,-120 134,-126 128,-126"/>
<text text-anchor="middle" x="113" y="-105.8" font-family="Helvetica,sans-Serif" font-size="9.00">external</text>
</g>
</g>
</svg>
