<?xml version="1.0" encoding="UTF-8" standalone="no"?>
<!DOCTYPE svg PUBLIC "-//W3C//DTD SVG 1.1//EN"
 "http://www.w3.org/Graphics/SVG/1.1/DTD/svg11.dtd">
<!-- Generated by graphviz version 2.43.0 (0)
 -->
<!-- Title: atmosphere_deps Pages: 1 -->
<svg width="1342pt" height="439pt"
 viewBox="0.00 0.00 1342.00 439.00" xmlns="http://www.w3.org/2000/svg" xmlns:xlink="http://www.w3.org/1999/xlink">
<g id="graph0" class="graph" transform="scale(1 1) rotate(0) translate(4 435)">
<title>atmosphere_deps</title>
<polygon fill="white" stroke="transparent" points="-4,4 -4,-435 1338,-435 1338,4 -4,4"/>
<g id="clust6" class="cluster">
<title>cluster_legend</title>
<path fill="white" stroke="#9e9e9e" d="M836,-352C836,-352 1314,-352 1314,-352 1320,-352 1326,-358 1326,-364 1326,-364 1326,-411 1326,-411 1326,-417 1320,-423 1314,-423 1314,-423 836,-423 836,-423 830,-423 824,-417 824,-411 824,-411 824,-364 824,-364 824,-358 830,-352 836,-352"/>
<text text-anchor="middle" x="1075" y="-411" font-family="Helvetica,sans-Serif" font-size="10.00" fill="#616161">legend</text>
</g>
<!-- Kernel -->
<g id="node1" class="node">
<title>Kernel</title>
<path fill="#e3f2fd" stroke="#1976d2" d="M801.5,-396C801.5,-396 760.5,-396 760.5,-396 754.5,-396 748.5,-390 748.5,-384 748.5,-384 748.5,-372 748.5,-372 748.5,-366 754.5,-360 760.5,-360 760.5,-360 801.5,-360 801.5,-360 807.5,-360 813.5,-366 813.5,-372 813.5,-372 813.5,-384 813.5,-384 813.5,-390 807.5,-396 801.5,-396"/>
<text text-anchor="middle" x="781" y="-381.2" font-family="Helvetica,sans-Serif" font-size="11.00">Kernel</text>
<text text-anchor="middle" x="781" y="-369.2" font-family="Helvetica,sans-Serif" font-size="11.00">&lt;struct&gt;</text>
</g>
<!-- PageAllocator -->
<g id="node2" class="node">
<title>PageAllocator</title>
<path fill="#e3f2fd" stroke="#1976d2" stroke-width="3" d="M719,-306C719,-306 653,-306 653,-306 647,-306 641,-300 641,-294 641,-294 641,-282 641,-282 641,-276 647,-270 653,-270 653,-270 719,-270 719,-270 725,-270 731,-276 731,-282 731,-282 731,-294 731,-294 731,-300 725,-306 719,-306"/>
<text text-anchor="middle" x="686" y="-291.2" font-family="Helvetica,sans-Serif" font-size="11.00">PageAllocator</text>
<text text-anchor="middle" x="686" y="-279.2" font-family="Helvetica,sans-Serif" font-size="11.00">&lt;struct&gt;</text>
</g>
<!-- Kernel&#45;&gt;PageAllocator -->
<g id="edge5" class="edge">
<title>Kernel&#45;&gt;PageAllocator</title>
<path fill="none" stroke="#90a4ae" stroke-width="0.8" d="M762.23,-359.61C746.91,-345.42 725.2,-325.31 708.86,-310.18"/>
<polygon fill="#90a4ae" stroke="#90a4ae" stroke-width="0.8" points="710.24,-308.59 704.41,-306.05 707.38,-311.67 710.24,-308.59"/>
</g>
<!-- Ghost -->
<g id="node11" class="node">
<title>Ghost</title>
<path fill="#e8f5e9" stroke="#388e3c" d="M174,-36C174,-36 114,-36 114,-36 108,-36 102,-30 102,-24 102,-24 102,-12 102,-12 102,-6 108,0 114,0 114,0 174,0 174,0 180,0 186,-6 186,-12 186,-12 186,-24 186,-24 186,-30 180,-36 174,-36"/>
<text text-anchor="middle" x="144" y="-21.2" font-family="Helvetica,sans-Serif" font-size="11.00">Ghost</text>
<text text-anchor="middle" x="144" y="-9.2" font-family="Helvetica,sans-Serif" font-size="11.00">&lt;container&gt;</text>
</g>
<!-- Kernel&#45;&gt;Ghost -->
<g id="edge3" class="edge">
<title>Kernel&#45;&gt;Ghost</title>
<path fill="none" stroke="#90a4ae" stroke-width="0.8" d="M748.29,-376.85C652.83,-374.73 370.67,-356.25 202,-216 149.59,-172.42 143.11,-84.06 143.19,-42.11"/>
<polygon fill="#90a4ae" stroke="#90a4ae" stroke-width="0.8" points="145.29,-42.05 143.25,-36.03 141.09,-42.01 145.29,-42.05"/>
</g>
<!-- Map -->
<g id="node13" class="node">
<title>Map</title>
<path fill="#e8f5e9" stroke="#388e3c" d="M1260,-36C1260,-36 1200,-36 1200,-36 1194,-36 1188,-30 1188,-24 1188,-24 1188,-12 1188,-12 1188,-6 1194,0 1200,0 1200,0 1260,0 1260,0 1266,0 1272,-6 1272,-12 1272,-12 1272,-24 1272,-24 1272,-30 1266,-36 1260,-36"/>
<text text-anchor="middle" x="1230" y="-21.2" font-family="Helvetica,sans-Serif" font-size="11.00">Map</text>
<text text-anchor="middle" x="1230" y="-9.2" font-family="Helvetica,sans-Serif" font-size="11.00">&lt;container&gt;</text>
</g>
<!-- Kernel&#45;&gt;Map -->
<g id="edge4" class="edge">
<title>Kernel&#45;&gt;Map</title>
<path fill="none" stroke="#90a4ae" stroke-width="0.8" d="M806.23,-359.98C810.74,-357.18 815.45,-354.41 820,-352 865.72,-327.73 881.9,-331.41 927,-306 1035.87,-244.65 1059.29,-218.78 1143,-126 1168.65,-97.57 1196.2,-62.91 1213.27,-40.9"/>
<polygon fill="#90a4ae" stroke="#90a4ae" stroke-width="0.8" points="1214.95,-42.16 1216.96,-36.12 1211.62,-39.59 1214.95,-42.16"/>
</g>
<!-- PagePtr -->
<g id="node15" class="node">
<title>PagePtr</title>
<path fill="#f3e5f5" stroke="#7b1fa2" d="M878,-36C878,-36 844,-36 844,-36 838,-36 832,-30 832,-24 832,-24 832,-12 832,-12 832,-6 838,0 844,0 844,0 878,0 878,0 884,0 890,-6 890,-12 890,-12 890,-24 890,-24 890,-30 884,-36 878,-36"/>
<text text-anchor="middle" x="861" y="-21.2" font-family="Helvetica,sans-Serif" font-size="11.00">PagePtr</text>
<text text-anchor="middle" x="861" y="-9.2" font-family="Helvetica,sans-Serif" font-size="11.00">&lt;alias&gt;</text>
</g>
<!-- Kernel&#45;&gt;PagePtr -->
<g id="edge6" class="edge">
<title>Kernel&#45;&gt;PagePtr</title>
<path fill="none" stroke="#90a4ae" stroke-width="0.8" d="M776.91,-359.86C766.81,-313.78 744.4,-184.4 786,-90 794.98,-69.63 812.89,-52.32 828.96,-39.89"/>
<polygon fill="#90a4ae" stroke="#90a4ae" stroke-width="0.8" points="830.34,-41.48 833.87,-36.19 827.81,-38.12 830.34,-41.48"/>
</g>
<!-- Set -->
<g id="node21" class="node">
<title>Set</title>
<path fill="#e8f5e9" stroke="#388e3c" d="M980,-36C980,-36 920,-36 920,-36 914,-36 908,-30 908,-24 908,-24 908,-12 908,-12 908,-6 914,0 920,0 920,0 980,0 980,0 986,0 992,-6 992,-12 992,-12 992,-24 992,-24 992,-30 986,-36 980,-36"/>
<text text-anchor="middle" x="950" y="-21.2" font-family="Helvetica,sans-Serif" font-size="11.00">Set</text>
<text text-anchor="middle" x="950" y="-9.2" font-family="Helvetica,sans-Serif" font-size="11.00">&lt;container&gt;</text>
</g>
<!-- Kernel&#45;&gt;Set -->
<g id="edge7" class="edge">
<title>Kernel&#45;&gt;Set</title>
<path fill="none" stroke="#90a4ae" stroke-width="0.8" d="M781.34,-359.94C782.74,-305.09 789.49,-134.32 820,-90 830.62,-74.58 871.2,-53.74 904.23,-38.63"/>
<polygon fill="#90a4ae" stroke="#90a4ae" stroke-width="0.8" points="905.28,-40.46 909.88,-36.06 903.55,-36.63 905.28,-40.46"/>
</g>
<!-- VAddr -->
<g id="node23" class="node">
<title>VAddr</title>
<path fill="#f3e5f5" stroke="#7b1fa2" d="M1158,-36C1158,-36 1124,-36 1124,-36 1118,-36 1112,-30 1112,-24 1112,-24 1112,-12 1112,-12 1112,-6 1118,0 1124,0 1124,0 1158,0 1158,0 1164,0 1170,-6 1170,-12 1170,-12 1170,-24 1170,-24 1170,-30 1164,-36 1158,-36"/>
<text text-anchor="middle" x="1141" y="-21.2" font-family="Helvetica,sans-Serif" font-size="11.00">VAddr</text>
<text text-anchor="middle" x="1141" y="-9.2" font-family="Helvetica,sans-Serif" font-size="11.00">&lt;alias&gt;</text>
</g>
<!-- Kernel&#45;&gt;VAddr -->
<g id="edge8" class="edge">
<title>Kernel&#45;&gt;VAddr</title>
<path fill="none" stroke="#90a4ae" stroke-width="0.8" d="M806.56,-359.89C882.46,-308.85 1102.57,-159.16 1123,-126 1138.72,-100.49 1141.85,-65.38 1141.97,-42.44"/>
<polygon fill="#90a4ae" stroke="#90a4ae" stroke-width="0.8" points="1144.07,-42.3 1141.93,-36.31 1139.87,-42.33 1144.07,-42.3"/>
</g>
<!-- StaticLinkedList -->
<g id="node3" class="node">
<title>StaticLinkedList</title>
<path fill="#e3f2fd" stroke="#1976d2" d="M339.5,-216C339.5,-216 262.5,-216 262.5,-216 256.5,-216 250.5,-210 250.5,-204 250.5,-204 250.5,-192 250.5,-192 250.5,-186 256.5,-180 262.5,-180 262.5,-180 339.5,-180 339.5,-180 345.5,-180 351.5,-186 351.5,-192 351.5,-192 351.5,-204 351.5,-204 351.5,-210 345.5,-216 339.5,-216"/>
<text text-anchor="middle" x="301" y="-201.2" font-family="Helvetica,sans-Serif" font-size="11.00">StaticLinkedList</text>
<text text-anchor="middle" x="301" y="-189.2" font-family="Helvetica,sans-Serif" font-size="11.00">&lt;struct&gt;</text>
</g>
<!-- PageAllocator&#45;&gt;StaticLinkedList -->
<g id="edge31" class="edge">
<title>PageAllocator&#45;&gt;StaticLinkedList</title>
<path fill="none" stroke="#90a4ae" stroke-width="0.8" d="M640.7,-276.65C570.19,-260.53 434.3,-229.47 357.49,-211.91"/>
<polygon fill="#90a4ae" stroke="#90a4ae" stroke-width="0.8" points="357.92,-209.86 351.61,-210.57 356.99,-213.95 357.92,-209.86"/>
</g>
<!-- Array -->
<g id="node4" class="node">
<title>Array</title>
<path fill="#e8f5e9" stroke="#388e3c" d="M88,-126C88,-126 28,-126 28,-126 22,-126 16,-120 16,-114 16,-114 16,-102 16,-102 16,-96 22,-90 28,-90 28,-90 88,-90 88,-90 94,-90 100,-96 100,-102 100,-102 100,-114 100,-114 100,-120 94,-126 88,-126"/>
<text text-anchor="middle" x="58" y="-111.2" font-family="Helvetica,sans-Serif" font-size="11.00">Array</text>
<text text-anchor="middle" x="58" y="-99.2" font-family="Helvetica,sans-Serif" font-size="11.00">&lt;container&gt;</text>
</g>
<!-- PageAllocator&#45;&gt;Array -->
<g id="edge21" class="edge">
<title>PageAllocator&#45;&gt;Array</title>
<path fill="none" stroke="#90a4ae" stroke-width="0.8" d="M640.64,-283.61C534.09,-275.16 270.72,-251.24 190,-216 144.19,-196 101.19,-155.59 77.35,-130.56"/>
<polygon fill="#90a4ae" stroke="#90a4ae" stroke-width="0.8" points="78.77,-129 73.13,-126.07 75.71,-131.88 78.77,-129"/>
</g>
<!-- Page -->
<g id="node6" class="node">
<title>Page</title>
<path fill="#e3f2fd" stroke="#1976d2" d="M645.5,-126C645.5,-126 604.5,-126 604.5,-126 598.5,-126 592.5,-120 592.5,-114 592.5,-114 592.5,-102 592.5,-102 592.5,-96 598.5,-90 604.5,-90 604.5,-90 645.5,-90 645.5,-90 651.5,-90 657.5,-96 657.5,-102 657.5,-102 657.5,-114 657.5,-114 657.5,-120 651.5,-126 645.5,-126"/>
<text text-anchor="middle" x="625" y="-111.2" font-family="Helvetica,sans-Serif" font-size="11.00">Page</text>
<text text-anchor="middle" x="625" y="-99.2" font-family="Helvetica,sans-Serif" font-size="11.00">&lt;struct&gt;</text>
</g>
<!-- PageAllocator&#45;&gt;Page -->
<g id="edge25" class="edge">
<title>PageAllocator&#45;&gt;Page</title>
<path fill="none" stroke="#90a4ae" stroke-width="0.8" d="M680.15,-269.93C669.13,-237.77 645.28,-168.17 632.87,-131.95"/>
<polygon fill="#90a4ae" stroke="#90a4ae" stroke-width="0.8" points="634.76,-131.01 630.83,-126.02 630.79,-132.37 634.76,-131.01"/>
</g>
<!-- PagePerm1g -->
<g id="node7" class="node">
<title>PagePerm1g</title>
<path fill="#f3e5f5" stroke="#7b1fa2" d="M998,-126C998,-126 940,-126 940,-126 934,-126 928,-120 928,-114 928,-114 928,-102 928,-102 928,-96 934,-90 940,-90 940,-90 998,-90 998,-90 1004,-90 1010,-96 1010,-102 1010,-102 1010,-114 1010,-114 1010,-120 1004,-126 998,-126"/>
<text text-anchor="middle" x="969" y="-111.2" font-family="Helvetica,sans-Serif" font-size="11.00">PagePerm1g</text>
<text text-anchor="middle" x="969" y="-99.2" font-family="Helvetica,sans-Serif" font-size="11.00">&lt;alias&gt;</text>
</g>
<!-- PageAllocator&#45;&gt;PagePerm1g -->
<g id="edge26" class="edge">
<title>PageAllocator&#45;&gt;PagePerm1g</title>
<path fill="none" stroke="#90a4ae" stroke-width="0.8" d="M713.14,-269.93C765.54,-236.97 880.44,-164.7 936.69,-129.32"/>
<polygon fill="#90a4ae" stroke="#90a4ae" stroke-width="0.8" points="937.99,-130.99 941.95,-126.02 935.75,-127.43 937.99,-130.99"/>
</g>
<!-- PagePerm2m -->
<g id="node8" class="node">
<title>PagePerm2m</title>
<path fill="#f3e5f5" stroke="#7b1fa2" d="M1102,-126C1102,-126 1040,-126 1040,-126 1034,-126 1028,-120 1028,-114 1028,-114 1028,-102 1028,-102 1028,-96 1034,-90 1040,-90 1040,-90 1102,-90 1102,-90 1108,-90 1114,-96 1114,-102 1114,-102 1114,-114 1114,-114 1114,-120 1108,-126 1102,-126"/>
<text text-anchor="middle" x="1071" y="-111.2" font-family="Helvetica,sans-Serif" font-size="11.00">PagePerm2m</text>
<text text-anchor="middle" x="1071" y="-99.2" font-family="Helvetica,sans-Serif" font-size="11.00">&lt;alias&gt;</text>
</g>
<!-- PageAllocator&#45;&gt;PagePerm2m -->
<g id="edge27" class="edge">
<title>PageAllocator&#45;&gt;PagePerm2m</title>
<path fill="none" stroke="#90a4ae" stroke-width="0.8" d="M723.3,-269.99C754.71,-255.64 800.82,-234.55 841,-216 906.7,-185.67 982.82,-150.19 1028.91,-128.67"/>
<polygon fill="#90a4ae" stroke="#90a4ae" stroke-width="0.8" points="1029.84,-130.56 1034.38,-126.12 1028.06,-126.75 1029.84,-130.56"/>
</g>
<!-- PagePerm4k -->
<g id="node9" class="node">
<title>PagePerm4k</title>
<path fill="#f3e5f5" stroke="#7b1fa2" d="M897.5,-126C897.5,-126 840.5,-126 840.5,-126 834.5,-126 828.5,-120 828.5,-114 828.5,-114 828.5,-102 828.5,-102 828.5,-96 834.5,-90 840.5,-90 840.5,-90 897.5,-90 897.5,-90 903.5,-90 909.5,-96 909.5,-102 909.5,-102 909.5,-114 909.5,-114 909.5,-120 903.5,-126 897.5,-126"/>
<text text-anchor="middle" x="869" y="-111.2" font-family="Helvetica,sans-Serif" font-size="11.00">PagePerm4k</text>
<text text-anchor="middle" x="869" y="-99.2" font-family="Helvetica,sans-Serif" font-size="11.00">&lt;alias&gt;</text>
</g>
<!-- PageAllocator&#45;&gt;PagePerm4k -->
<g id="edge28" class="edge">
<title>PageAllocator&#45;&gt;PagePerm4k</title>
<path fill="none" stroke="#90a4ae" stroke-width="0.8" d="M703.55,-269.93C737.02,-237.37 809.94,-166.44 846.77,-130.62"/>
<polygon fill="#90a4ae" stroke="#90a4ae" stroke-width="0.8" points="848.67,-131.7 851.51,-126.02 845.74,-128.69 848.67,-131.7"/>
</g>
<!-- ContainerPtr -->
<g id="node10" class="node">
<title>ContainerPtr</title>
<path fill="#f3e5f5" stroke="#7b1fa2" d="M562,-36C562,-36 502,-36 502,-36 496,-36 490,-30 490,-24 490,-24 490,-12 490,-12 490,-6 496,0 502,0 502,0 562,0 562,0 568,0 574,-6 574,-12 574,-12 574,-24 574,-24 574,-30 568,-36 562,-36"/>
<text text-anchor="middle" x="532" y="-21.2" font-family="Helvetica,sans-Serif" font-size="11.00">ContainerPtr</text>
<text text-anchor="middle" x="532" y="-9.2" font-family="Helvetica,sans-Serif" font-size="11.00">&lt;alias&gt;</text>
</g>
<!-- PageAllocator&#45;&gt;ContainerPtr -->
<g id="edge22" class="edge">
<title>PageAllocator&#45;&gt;ContainerPtr</title>
<path fill="none" stroke="#90a4ae" stroke-width="0.8" d="M673.83,-269.57C653.76,-240.5 612.97,-179.96 583,-126 567.22,-97.59 551.51,-63.53 541.78,-41.58"/>
<polygon fill="#90a4ae" stroke="#90a4ae" stroke-width="0.8" points="543.66,-40.65 539.32,-36.01 539.82,-42.34 543.66,-40.65"/>
</g>
<!-- PageAllocator&#45;&gt;Ghost -->
<g id="edge23" class="edge">
<title>PageAllocator&#45;&gt;Ghost</title>
<path fill="none" stroke="#90a4ae" stroke-width="0.8" d="M640.85,-284.98C540.74,-279.7 304.03,-262.51 241,-216 182.35,-172.72 157.2,-84.21 148.23,-42.17"/>
<polygon fill="#90a4ae" stroke="#90a4ae" stroke-width="0.8" points="150.24,-41.52 146.97,-36.07 146.13,-42.37 150.24,-41.52"/>
</g>
<!-- PageAllocator&#45;&gt;Map -->
<g id="edge24" class="edge">
<title>PageAllocator&#45;&gt;Map</title>
<path fill="none" stroke="#90a4ae" stroke-width="0.8" d="M731.2,-277.46C814.08,-258.5 993.7,-210.43 1123,-126 1159.35,-102.27 1193.35,-64.59 1212.9,-40.86"/>
<polygon fill="#90a4ae" stroke="#90a4ae" stroke-width="0.8" points="1214.68,-41.99 1216.84,-36.02 1211.42,-39.34 1214.68,-41.99"/>
</g>
<!-- PageAllocator&#45;&gt;PagePtr -->
<g id="edge29" class="edge">
<title>PageAllocator&#45;&gt;PagePtr</title>
<path fill="none" stroke="#90a4ae" stroke-width="0.8" d="M682.98,-269.76C677.53,-232.89 670.02,-145.27 710,-90 711.87,-87.42 782.52,-54.84 826.51,-34.72"/>
<polygon fill="#90a4ae" stroke="#90a4ae" stroke-width="0.8" points="827.41,-36.61 832,-32.21 825.67,-32.79 827.41,-36.61"/>
</g>
<!-- PageAllocator&#45;&gt;Set -->
<g id="edge30" class="edge">
<title>PageAllocator&#45;&gt;Set</title>
<path fill="none" stroke="#90a4ae" stroke-width="0.8" d="M690.4,-269.83C700.82,-232.33 730.4,-142.3 786,-90 803.54,-73.5 860.09,-50.91 901.9,-35.68"/>
<polygon fill="#90a4ae" stroke="#90a4ae" stroke-width="0.8" points="902.77,-37.6 907.7,-33.58 901.34,-33.65 902.77,-37.6"/>
</g>
<!-- Tracked -->
<g id="node22" class="node">
<title>Tracked</title>
<path fill="#e8f5e9" stroke="#388e3c" d="M358,-36C358,-36 298,-36 298,-36 292,-36 286,-30 286,-24 286,-24 286,-12 286,-12 286,-6 292,0 298,0 298,0 358,0 358,0 364,0 370,-6 370,-12 370,-12 370,-24 370,-24 370,-30 364,-36 358,-36"/>
<text text-anchor="middle" x="328" y="-21.2" font-family="Helvetica,sans-Serif" font-size="11.00">Tracked</text>
<text text-anchor="middle" x="328" y="-9.2" font-family="Helvetica,sans-Serif" font-size="11.00">&lt;container&gt;</text>
</g>
<!-- PageAllocator&#45;&gt;Tracked -->
<g id="edge32" class="edge">
<title>PageAllocator&#45;&gt;Tracked</title>
<path fill="none" stroke="#90a4ae" stroke-width="0.8" d="M663.06,-269.83C600.04,-222.65 424.4,-91.17 355.88,-39.87"/>
<polygon fill="#90a4ae" stroke="#90a4ae" stroke-width="0.8" points="356.81,-37.94 350.75,-36.03 354.29,-41.31 356.81,-37.94"/>
</g>
<!-- Node -->
<g id="node5" class="node">
<title>Node</title>
<path fill="#e3f2fd" stroke="#1976d2" d="M382.5,-126C382.5,-126 341.5,-126 341.5,-126 335.5,-126 329.5,-120 329.5,-114 329.5,-114 329.5,-102 329.5,-102 329.5,-96 335.5,-90 341.5,-90 341.5,-90 382.5,-90 382.5,-90 388.5,-90 394.5,-96 394.5,-102 394.5,-102 394.5,-114 394.5,-114 394.5,-120 388.5,-126 382.5,-126"/>
<text text-anchor="middle" x="362" y="-111.2" font-family="Helvetica,sans-Serif" font-size="11.00">Node</text>
<text text-anchor="middle" x="362" y="-99.2" font-family="Helvetica,sans-Serif" font-size="11.00">&lt;struct&gt;</text>
</g>
<!-- StaticLinkedList&#45;&gt;Node -->
<g id="edge37" class="edge">
<title>StaticLinkedList&#45;&gt;Node</title>
<path fill="none" stroke="#90a4ae" stroke-width="0.8" d="M313.05,-179.61C322.64,-165.78 336.12,-146.34 346.51,-131.35"/>
<polygon fill="#90a4ae" stroke="#90a4ae" stroke-width="0.8" points="348.49,-132.18 350.18,-126.05 345.04,-129.79 348.49,-132.18"/>
</g>
<!-- StaticLinkedList&#45;&gt;Ghost -->
<g id="edge36" class="edge">
<title>StaticLinkedList&#45;&gt;Ghost</title>
<path fill="none" stroke="#90a4ae" stroke-width="0.8" d="M293.63,-179.69C283.55,-157.31 263.83,-117.91 239,-90 221.49,-70.31 197.74,-52.57 178.38,-39.74"/>
<polygon fill="#90a4ae" stroke="#90a4ae" stroke-width="0.8" points="179.21,-37.78 173.04,-36.26 176.91,-41.29 179.21,-37.78"/>
</g>
<!-- SLLIndex -->
<g id="node19" class="node">
<title>SLLIndex</title>
<path fill="#f3e5f5" stroke="#7b1fa2" d="M255.5,-36C255.5,-36 216.5,-36 216.5,-36 210.5,-36 204.5,-30 204.5,-24 204.5,-24 204.5,-12 204.5,-12 204.5,-6 210.5,0 216.5,0 216.5,0 255.5,0 255.5,0 261.5,0 267.5,-6 267.5,-12 267.5,-12 267.5,-24 267.5,-24 267.5,-30 261.5,-36 255.5,-36"/>
<text text-anchor="middle" x="236" y="-21.2" font-family="Helvetica,sans-Serif" font-size="11.00">SLLIndex</text>
<text text-anchor="middle" x="236" y="-9.2" font-family="Helvetica,sans-Serif" font-size="11.00">&lt;alias&gt;</text>
</g>
<!-- StaticLinkedList&#45;&gt;SLLIndex -->
<g id="edge38" class="edge">
<title>StaticLinkedList&#45;&gt;SLLIndex</title>
<path fill="none" stroke="#90a4ae" stroke-width="0.8" d="M298.79,-179.85C295.65,-158.32 288.91,-120.5 277,-90 270.28,-72.79 259.84,-54.79 251.17,-41.21"/>
<polygon fill="#90a4ae" stroke="#90a4ae" stroke-width="0.8" points="252.86,-39.95 247.83,-36.05 249.33,-42.23 252.86,-39.95"/>
</g>
<!-- Seq -->
<g id="node20" class="node">
<title>Seq</title>
<path fill="#e8f5e9" stroke="#388e3c" d="M72,-36C72,-36 12,-36 12,-36 6,-36 0,-30 0,-24 0,-24 0,-12 0,-12 0,-6 6,0 12,0 12,0 72,0 72,0 78,0 84,-6 84,-12 84,-12 84,-24 84,-24 84,-30 78,-36 72,-36"/>
<text text-anchor="middle" x="42" y="-21.2" font-family="Helvetica,sans-Serif" font-size="11.00">Seq</text>
<text text-anchor="middle" x="42" y="-9.2" font-family="Helvetica,sans-Serif" font-size="11.00">&lt;container&gt;</text>
</g>
<!-- StaticLinkedList&#45;&gt;Seq -->
<g id="edge39" class="edge">
<title>StaticLinkedList&#45;&gt;Seq</title>
<path fill="none" stroke="#90a4ae" stroke-width="0.8" d="M276.17,-179.93C228.3,-147.04 123.47,-74.99 71.88,-39.54"/>
<polygon fill="#90a4ae" stroke="#90a4ae" stroke-width="0.8" points="72.89,-37.68 66.76,-36.02 70.51,-41.14 72.89,-37.68"/>
</g>
<!-- Array&#45;&gt;Ghost -->
<g id="edge1" class="edge">
<title>Array&#45;&gt;Ghost</title>
<path fill="none" stroke="#90a4ae" stroke-width="0.8" d="M74.99,-89.61C88.74,-75.54 108.18,-55.65 122.92,-40.57"/>
<polygon fill="#90a4ae" stroke="#90a4ae" stroke-width="0.8" points="124.65,-41.81 127.34,-36.05 121.64,-38.87 124.65,-41.81"/>
</g>
<!-- Array&#45;&gt;Seq -->
<g id="edge2" class="edge">
<title>Array&#45;&gt;Seq</title>
<path fill="none" stroke="#90a4ae" stroke-width="0.8" d="M54.84,-89.61C52.37,-76.03 48.91,-57.02 46.21,-42.14"/>
<polygon fill="#90a4ae" stroke="#90a4ae" stroke-width="0.8" points="48.24,-41.58 45.1,-36.05 44.11,-42.33 48.24,-41.58"/>
</g>
<!-- Option -->
<g id="node14" class="node">
<title>Option</title>
<path fill="#e8f5e9" stroke="#388e3c" d="M460,-36C460,-36 400,-36 400,-36 394,-36 388,-30 388,-24 388,-24 388,-12 388,-12 388,-6 394,0 400,0 400,0 460,0 460,0 466,0 472,-6 472,-12 472,-12 472,-24 472,-24 472,-30 466,-36 460,-36"/>
<text text-anchor="middle" x="430" y="-21.2" font-family="Helvetica,sans-Serif" font-size="11.00">Option</text>
<text text-anchor="middle" x="430" y="-9.2" font-family="Helvetica,sans-Serif" font-size="11.00">&lt;container&gt;</text>
</g>
<!-- Node&#45;&gt;Option -->
<g id="edge9" class="edge">
<title>Node&#45;&gt;Option</title>
<path fill="none" stroke="#90a4ae" stroke-width="0.8" d="M375.43,-89.61C386.21,-75.66 401.41,-55.99 413.03,-40.96"/>
<polygon fill="#90a4ae" stroke="#90a4ae" stroke-width="0.8" points="414.82,-42.08 416.82,-36.05 411.49,-39.51 414.82,-42.08"/>
</g>
<!-- Node&#45;&gt;SLLIndex -->
<g id="edge10" class="edge">
<title>Node&#45;&gt;SLLIndex</title>
<path fill="none" stroke="#90a4ae" stroke-width="0.8" d="M337.41,-89.82C316.85,-75.47 287.48,-54.95 265.63,-39.7"/>
<polygon fill="#90a4ae" stroke="#90a4ae" stroke-width="0.8" points="266.65,-37.85 260.53,-36.13 264.25,-41.29 266.65,-37.85"/>
</g>
<!-- Page&#45;&gt;ContainerPtr -->
<g id="edge11" class="edge">
<title>Page&#45;&gt;ContainerPtr</title>
<path fill="none" stroke="#90a4ae" stroke-width="0.8" d="M606.63,-89.61C591.63,-75.42 570.37,-55.31 554.38,-40.18"/>
<polygon fill="#90a4ae" stroke="#90a4ae" stroke-width="0.8" points="555.82,-38.65 550.02,-36.05 552.93,-41.7 555.82,-38.65"/>
</g>
<!-- Page&#45;&gt;Ghost -->
<g id="edge12" class="edge">
<title>Page&#45;&gt;Ghost</title>
<path fill="none" stroke="#90a4ae" stroke-width="0.8" d="M592.28,-103.39C519.92,-95.02 341.16,-72.19 195,-36 194,-35.75 193,-35.5 191.99,-35.23"/>
<polygon fill="#90a4ae" stroke="#90a4ae" stroke-width="0.8" points="192.49,-33.19 186.15,-33.62 191.38,-37.24 192.49,-33.19"/>
</g>
<!-- IOid -->
<g id="node12" class="node">
<title>IOid</title>
<path fill="#f3e5f5" stroke="#7b1fa2" d="M714,-36C714,-36 680,-36 680,-36 674,-36 668,-30 668,-24 668,-24 668,-12 668,-12 668,-6 674,0 680,0 680,0 714,0 714,0 720,0 726,-6 726,-12 726,-12 726,-24 726,-24 726,-30 720,-36 714,-36"/>
<text text-anchor="middle" x="697" y="-21.2" font-family="Helvetica,sans-Serif" font-size="11.00">IOid</text>
<text text-anchor="middle" x="697" y="-9.2" font-family="Helvetica,sans-Serif" font-size="11.00">&lt;alias&gt;</text>
</g>
<!-- Page&#45;&gt;IOid -->
<g id="edge13" class="edge">
<title>Page&#45;&gt;IOid</title>
<path fill="none" stroke="#90a4ae" stroke-width="0.8" d="M639.22,-89.61C650.64,-75.66 666.73,-55.99 679.03,-40.96"/>
<polygon fill="#90a4ae" stroke="#90a4ae" stroke-width="0.8" points="680.88,-42.02 683.05,-36.05 677.62,-39.36 680.88,-42.02"/>
</g>
<!-- Page&#45;&gt;Option -->
<g id="edge14" class="edge">
<title>Page&#45;&gt;Option</title>
<path fill="none" stroke="#90a4ae" stroke-width="0.8" d="M592.36,-92.27C559.74,-77.55 509.38,-54.82 473.4,-38.59"/>
<polygon fill="#90a4ae" stroke="#90a4ae" stroke-width="0.8" points="474.09,-36.59 467.76,-36.04 472.36,-40.42 474.09,-36.59"/>
</g>
<!-- Page&#45;&gt;PagePtr -->
<g id="edge15" class="edge">
<title>Page&#45;&gt;PagePtr</title>
<path fill="none" stroke="#90a4ae" stroke-width="0.8" d="M657.61,-95.19C662.43,-93.45 667.35,-91.67 672,-90 739.07,-65.88 756.87,-62.57 823,-36 823.97,-35.61 824.95,-35.21 825.94,-34.8"/>
<polygon fill="#90a4ae" stroke="#90a4ae" stroke-width="0.8" points="826.92,-36.67 831.64,-32.4 825.29,-32.8 826.92,-36.67"/>
</g>
<!-- PageState -->
<g id="node16" class="node">
<title>PageState</title>
<path fill="#fff3e0" stroke="#f57c00" d="M802,-36C802,-36 756,-36 756,-36 750,-36 744,-30 744,-24 744,-24 744,-12 744,-12 744,-6 750,0 756,0 756,0 802,0 802,0 808,0 814,-6 814,-12 814,-12 814,-24 814,-24 814,-30 808,-36 802,-36"/>
<text text-anchor="middle" x="779" y="-21.2" font-family="Helvetica,sans-Serif" font-size="11.00">PageState</text>
<text text-anchor="middle" x="779" y="-9.2" font-family="Helvetica,sans-Serif" font-size="11.00">&lt;enum&gt;</text>
</g>
<!-- Page&#45;&gt;PageState -->
<g id="edge16" class="edge">
<title>Page&#45;&gt;PageState</title>
<path fill="none" stroke="#90a4ae" stroke-width="0.8" d="M655.06,-89.82C680.5,-75.29 716.99,-54.43 743.79,-39.12"/>
<polygon fill="#90a4ae" stroke="#90a4ae" stroke-width="0.8" points="744.85,-40.93 749.02,-36.13 742.77,-37.29 744.85,-40.93"/>
</g>
<!-- Pcid -->
<g id="node17" class="node">
<title>Pcid</title>
<path fill="#f3e5f5" stroke="#7b1fa2" d="M638,-36C638,-36 604,-36 604,-36 598,-36 592,-30 592,-24 592,-24 592,-12 592,-12 592,-6 598,0 604,0 604,0 638,0 638,0 644,0 650,-6 650,-12 650,-12 650,-24 650,-24 650,-30 644,-36 638,-36"/>
<text text-anchor="middle" x="621" y="-21.2" font-family="Helvetica,sans-Serif" font-size="11.00">Pcid</text>
<text text-anchor="middle" x="621" y="-9.2" font-family="Helvetica,sans-Serif" font-size="11.00">&lt;alias&gt;</text>
</g>
<!-- Page&#45;&gt;Pcid -->
<g id="edge17" class="edge">
<title>Page&#45;&gt;Pcid</title>
<path fill="none" stroke="#90a4ae" stroke-width="0.8" d="M624.21,-89.61C623.59,-76.03 622.73,-57.02 622.05,-42.14"/>
<polygon fill="#90a4ae" stroke="#90a4ae" stroke-width="0.8" points="624.15,-41.95 621.78,-36.05 619.95,-42.14 624.15,-41.95"/>
</g>
<!-- Page&#45;&gt;SLLIndex -->
<g id="edge18" class="edge">
<title>Page&#45;&gt;SLLIndex</title>
<path fill="none" stroke="#90a4ae" stroke-width="0.8" d="M592.34,-102.48C530.08,-93.39 390.5,-70.76 277,-36 275.84,-35.64 274.67,-35.27 273.49,-34.88"/>
<polygon fill="#90a4ae" stroke="#90a4ae" stroke-width="0.8" points="273.92,-32.8 267.56,-32.79 272.53,-36.76 273.92,-32.8"/>
</g>
<!-- Page&#45;&gt;Set -->
<g id="edge19" class="edge">
<title>Page&#45;&gt;Set</title>
<path fill="none" stroke="#90a4ae" stroke-width="0.8" d="M657.68,-99.3C709.24,-86.97 812.53,-61.58 899,-36 899.98,-35.71 900.98,-35.41 901.98,-35.11"/>
<polygon fill="#90a4ae" stroke="#90a4ae" stroke-width="0.8" points="902.65,-37.1 907.77,-33.32 901.42,-33.08 902.65,-37.1"/>
</g>
<!-- Page&#45;&gt;VAddr -->
<g id="edge20" class="edge">
<title>Page&#45;&gt;VAddr</title>
<path fill="none" stroke="#90a4ae" stroke-width="0.8" d="M657.56,-103.34C750.96,-92.65 1018.44,-60.69 1103,-36 1104,-35.71 1105.01,-35.39 1106.02,-35.06"/>
<polygon fill="#90a4ae" stroke="#90a4ae" stroke-width="0.8" points="1106.89,-36.98 1111.84,-32.99 1105.48,-33.03 1106.89,-36.98"/>
</g>
<!-- PointsTo -->
<g id="node18" class="node">
<title>PointsTo</title>
<path fill="#e8f5e9" stroke="#388e3c" d="M1082,-36C1082,-36 1022,-36 1022,-36 1016,-36 1010,-30 1010,-24 1010,-24 1010,-12 1010,-12 1010,-6 1016,0 1022,0 1022,0 1082,0 1082,0 1088,0 1094,-6 1094,-12 1094,-12 1094,-24 1094,-24 1094,-30 1088,-36 1082,-36"/>
<text text-anchor="middle" x="1052" y="-21.2" font-family="Helvetica,sans-Serif" font-size="11.00">PointsTo</text>
<text text-anchor="middle" x="1052" y="-9.2" font-family="Helvetica,sans-Serif" font-size="11.00">&lt;container&gt;</text>
</g>
<!-- PagePerm1g&#45;&gt;PointsTo -->
<g id="edge33" class="edge">
<title>PagePerm1g&#45;&gt;PointsTo</title>
<path fill="none" stroke="#90a4ae" stroke-width="0.8" d="M985.4,-89.61C998.67,-75.54 1017.43,-55.65 1031.66,-40.57"/>
<polygon fill="#90a4ae" stroke="#90a4ae" stroke-width="0.8" points="1033.33,-41.86 1035.92,-36.05 1030.27,-38.97 1033.33,-41.86"/>
</g>
<!-- PagePerm2m&#45;&gt;PointsTo -->
<g id="edge34" class="edge">
<title>PagePerm2m&#45;&gt;PointsTo</title>
<path fill="none" stroke="#90a4ae" stroke-width="0.8" d="M1067.25,-89.61C1064.31,-76.03 1060.21,-57.02 1057,-42.14"/>
<polygon fill="#90a4ae" stroke="#90a4ae" stroke-width="0.8" points="1059,-41.47 1055.68,-36.05 1054.89,-42.36 1059,-41.47"/>
</g>
<!-- PagePerm4k&#45;&gt;PointsTo -->
<g id="edge35" class="edge">
<title>PagePerm4k&#45;&gt;PointsTo</title>
<path fill="none" stroke="#90a4ae" stroke-width="0.8" d="M904.72,-89.82C935.2,-75.17 979.04,-54.09 1010.96,-38.74"/>
<polygon fill="#90a4ae" stroke="#90a4ae" stroke-width="0.8" points="1011.87,-40.63 1016.37,-36.13 1010.05,-36.84 1011.87,-40.63"/>
</g>
<!-- leg_struct -->
<g id="node24" class="node">
<title>leg_struct</title>
<path fill="#e3f2fd" stroke="#1976d2" d="M1306,-396C1306,-396 1276,-396 1276,-396 1270,-396 1264,-390 1264,-384 1264,-384 1264,-372 1264,-372 1264,-366 1270,-360 1276,-360 1276,-360 1306,-360 1306,-360 1312,-360 1318,-366 1318,-372 1318,-372 1318,-384 1318,-384 1318,-390 1312,-396 1306,-396"/>
<text text-anchor="middle" x="1291" y="-375.8" font-family="Helvetica,sans-Serif" font-size="9.00">struct</text>
</g>
<!-- leg_enum -->
<g id="node25" class="node">
<title>leg_enum</title>
<path fill="#fff3e0" stroke="#f57c00" d="M1234,-396C1234,-396 1204,-396 1204,-396 1198,-396 1192,-390 1192,-384 1192,-384 1192,-372 1192,-372 1192,-366 1198,-360 1204,-360 1204,-360 1234,-360 1234,-360 1240,-360 1246,-366 1246,-372 1246,-372 1246,-384 1246,-384 1246,-390 1240,-396 1234,-396"/>
<text text-anchor="middle" x="1219" y="-375.8" font-family="Helvetica,sans-Serif" font-size="9.00">enum</text>
</g>
<!-- leg_alias -->
<g id="node26" class="node">
<title>leg_alias</title>
<path fill="#f3e5f5" stroke="#7b1fa2" d="M1162,-396C1162,-396 1132,-396 1132,-396 1126,-396 1120,-390 1120,-384 1120,-384 1120,-372 1120,-372 1120,-366 1126,-360 1132,-360 1132,-360 1162,-360 1162,-360 1168,-360 1174,-366 1174,-372 1174,-372 1174,-384 1174,-384 1174,-390 1168,-396 1162,-396"/>
<text text-anchor="middle" x="1147" y="-375.8" font-family="Helvetica,sans-Serif" font-size="9.00">alias</text>
</g>
<!-- leg_union -->
<g id="node27" class="node">
<title>leg_union</title>
<path fill="#e0f7fa" stroke="#0097a7" d="M1090,-396C1090,-396 1060,-396 1060,-396 1054,-396 1048,-390 1048,-384 1048,-384 1048,-372 1048,-372 1048,-366 1054,-360 1060,-360 1060,-360 1090,-360 1090,-360 1096,-360 1102,-366 1102,-372 1102,-372 1102,-384 1102,-384 1102,-390 1096,-396 1090,-396"/>
<text text-anchor="middle" x="1075" y="-375.8" font-family="Helvetica,sans-Serif" font-size="9.00">union</text>
</g>
<!-- leg_container -->
<g id="node28" class="node">
<title>leg_container</title>
<path fill="#e8f5e9" stroke="#388e3c" d="M1018,-396C1018,-396 988,-396 988,-396 982,-396 976,-390 976,-384 976,-384 976,-372 976,-372 976,-366 982,-360 988,-360 988,-360 1018,-360 1018,-360 1024,-360 1030,-366 1030,-372 1030,-372 1030,-384 1030,-384 1030,-390 1024,-396 1018,-396"/>
<text text-anchor="middle" x="1003" y="-375.8" font-family="Helvetica,sans-Serif" font-size="9.00">container</text>
</g>
<!-- leg_primitive -->
<g id="node29" class="node">
<title>leg_primitive</title>
<path fill="#fafafa" stroke="#616161" d="M946,-396C946,-396 916,-396 916,-396 910,-396 904,-390 904,-384 904,-384 904,-372 904,-372 904,-366 910,-360 916,-360 916,-360 946,-360 946,-360 952,-360 958,-366 958,-372 958,-372 958,-384 958,-384 958,-390 952,-396 946,-396"/>
<text text-anchor="middle" x="931" y="-375.8" font-family="Helvetica,sans-Serif" font-size="9.00">primitive</text>
</g>
<!-- leg_external -->
<g id="node30" class="node">
<title>leg_external</title>
<path fill="#ffebee" stroke="#c62828" d="M874,-396C874,-396 844,-396 844,-396 838,-396 832,-390 832,-384 832,-384 832,-372 832,-372 832,-366 838,-360 844,-360 844,-360 874,-360 874,-360 880,-360 886,-366 886,-372 886,-372 886,-384 886,-384 886,-390 880,-396 874,-396"/>
<text text-anchor="middle" x="859" y="-375.8" font-family="Helvetica,sans-Serif" font-size="9.00">external</text>
</g>
</g>
</svg>
