<?xml version="1.0" encoding="UTF-8" standalone="no"?>
<!DOCTYPE svg PUBLIC "-//W3C//DTD SVG 1.1//EN"
 "http://www.w3.org/Graphics/SVG/1.1/DTD/svg11.dtd">
<!-- Generated by graphviz version 2.43.0 (0)
 -->
<!-- Title: atmosphere_deps Pages: 1 -->
<svg width="1326pt" height="316pt"
 viewBox="0.00 0.00 1326.00 316.00" xmlns="http://www.w3.org/2000/svg" xmlns:xlink="http://www.w3.org/1999/xlink">
<g id="graph0" class="graph" transform="scale(1 1) rotate(0) translate(4 312)">
<title>atmosphere_deps</title>
<polygon fill="white" stroke="transparent" points="-4,4 -4,-312 1322,-312 1322,4 -4,4"/>
<g id="clust5" class="cluster">
<title>cluster_legend</title>
<path fill="white" stroke="#9e9e9e" d="M642.5,-8C642.5,-8 1120.5,-8 1120.5,-8 1126.5,-8 1132.5,-14 1132.5,-20 1132.5,-20 1132.5,-67 1132.5,-67 1132.5,-73 1126.5,-79 1120.5,-79 1120.5,-79 642.5,-79 642.5,-79 636.5,-79 630.5,-73 630.5,-67 630.5,-67 630.5,-20 630.5,-20 630.5,-14 636.5,-8 642.5,-8"/>
<text text-anchor="middle" x="881.5" y="-15" font-family="Helvetica,sans-Serif" font-size="10.00" fill="#616161">legend</text>
</g>
<!-- ContainerPtr -->
<g id="node1" class="node">
<title>ContainerPtr</title>
<path fill="#f3e5f5" stroke="#7b1fa2" stroke-width="3" d="M970.5,-308C970.5,-308 910.5,-308 910.5,-308 904.5,-308 898.5,-302 898.5,-296 898.5,-296 898.5,-284 898.5,-284 898.5,-278 904.5,-272 910.5,-272 910.5,-272 970.5,-272 970.5,-272 976.5,-272 982.5,-278 982.5,-284 982.5,-284 982.5,-296 982.5,-296 982.5,-302 976.5,-308 970.5,-308"/>
<text text-anchor="middle" x="940.5" y="-293.2" font-family="Helvetica,sans-Serif" font-size="11.00">ContainerPtr</text>
<text text-anchor="middle" x="940.5" y="-281.2" font-family="Helvetica,sans-Serif" font-size="11.00">&lt;alias&gt;</text>
</g>
<!-- Cpu -->
<g id="node2" class="node">
<title>Cpu</title>
<path fill="#e3f2fd" stroke="#1976d2" d="M377,-308C377,-308 336,-308 336,-308 330,-308 324,-302 324,-296 324,-296 324,-284 324,-284 324,-278 330,-272 336,-272 336,-272 377,-272 377,-272 383,-272 389,-278 389,-284 389,-284 389,-296 389,-296 389,-302 383,-308 377,-308"/>
<text text-anchor="middle" x="356.5" y="-293.2" font-family="Helvetica,sans-Serif" font-size="11.00">Cpu</text>
<text text-anchor="middle" x="356.5" y="-281.2" font-family="Helvetica,sans-Serif" font-size="11.00">&lt;struct&gt;</text>
</g>
<!-- Cpu&#45;&gt;ContainerPtr -->
<g id="edge7" class="edge">
<title>Cpu&#45;&gt;ContainerPtr</title>
<path fill="none" stroke="#90a4ae" stroke-width="0.8" d="M373.67,-271.67C382.58,-263.51 394.17,-254.78 406.5,-250.5 456.25,-233.22 830.05,-235.38 880.5,-250.5 892.61,-254.13 904.53,-261.07 914.52,-268.14"/>
<polygon fill="#90a4ae" stroke="#90a4ae" stroke-width="0.8" points="913.47,-269.98 919.56,-271.83 915.96,-266.59 913.47,-269.98"/>
</g>
<!-- Option -->
<g id="node7" class="node">
<title>Option</title>
<path fill="#e8f5e9" stroke="#388e3c" d="M1224.5,-308C1224.5,-308 1164.5,-308 1164.5,-308 1158.5,-308 1152.5,-302 1152.5,-296 1152.5,-296 1152.5,-284 1152.5,-284 1152.5,-278 1158.5,-272 1164.5,-272 1164.5,-272 1224.5,-272 1224.5,-272 1230.5,-272 1236.5,-278 1236.5,-284 1236.5,-284 1236.5,-296 1236.5,-296 1236.5,-302 1230.5,-308 1224.5,-308"/>
<text text-anchor="middle" x="1194.5" y="-293.2" font-family="Helvetica,sans-Serif" font-size="11.00">Option</text>
<text text-anchor="middle" x="1194.5" y="-281.2" font-family="Helvetica,sans-Serif" font-size="11.00">&lt;container&gt;</text>
</g>
<!-- Cpu&#45;&gt;Option -->
<g id="edge8" class="edge">
<title>Cpu&#45;&gt;Option</title>
<path fill="none" stroke="#90a4ae" stroke-width="0.8" d="M373.67,-271.67C382.58,-263.51 394.17,-254.78 406.5,-250.5 482.91,-223.96 1057.01,-227.28 1134.5,-250.5 1146.61,-254.13 1158.53,-261.07 1168.52,-268.14"/>
<polygon fill="#90a4ae" stroke="#90a4ae" stroke-width="0.8" points="1167.47,-269.98 1173.56,-271.83 1169.96,-266.59 1167.47,-269.98"/>
</g>
<!-- Endpoint -->
<g id="node3" class="node">
<title>Endpoint</title>
<path fill="#e3f2fd" stroke="#1976d2" d="M460,-308C460,-308 419,-308 419,-308 413,-308 407,-302 407,-296 407,-296 407,-284 407,-284 407,-278 413,-272 419,-272 419,-272 460,-272 460,-272 466,-272 472,-278 472,-284 472,-284 472,-296 472,-296 472,-302 466,-308 460,-308"/>
<text text-anchor="middle" x="439.5" y="-293.2" font-family="Helvetica,sans-Serif" font-size="11.00">Endpoint</text>
<text text-anchor="middle" x="439.5" y="-281.2" font-family="Helvetica,sans-Serif" font-size="11.00">&lt;struct&gt;</text>
</g>
<!-- Endpoint&#45;&gt;ContainerPtr -->
<g id="edge9" class="edge">
<title>Endpoint&#45;&gt;ContainerPtr</title>
<path fill="none" stroke="#90a4ae" stroke-width="0.8" d="M457.08,-271.67C466.18,-263.5 478,-254.78 490.5,-250.5 572.5,-222.46 797.48,-225.63 880.5,-250.5 892.61,-254.13 904.53,-261.07 914.52,-268.14"/>
<polygon fill="#90a4ae" stroke="#90a4ae" stroke-width="0.8" points="913.47,-269.98 919.56,-271.83 915.96,-266.59 913.47,-269.98"/>
</g>
<!-- Ghost -->
<g id="node4" class="node">
<title>Ghost</title>
<path fill="#e8f5e9" stroke="#388e3c" d="M784.5,-308C784.5,-308 724.5,-308 724.5,-308 718.5,-308 712.5,-302 712.5,-296 712.5,-296 712.5,-284 712.5,-284 712.5,-278 718.5,-272 724.5,-272 724.5,-272 784.5,-272 784.5,-272 790.5,-272 796.5,-278 796.5,-284 796.5,-284 796.5,-296 796.5,-296 796.5,-302 790.5,-308 784.5,-308"/>
<text text-anchor="middle" x="754.5" y="-293.2" font-family="Helvetica,sans-Serif" font-size="11.00">Ghost</text>
<text text-anchor="middle" x="754.5" y="-281.2" font-family="Helvetica,sans-Serif" font-size="11.00">&lt;container&gt;</text>
</g>
<!-- Endpoint&#45;&gt;Ghost -->
<g id="edge10" class="edge">
<title>Endpoint&#45;&gt;Ghost</title>
<path fill="none" stroke="#90a4ae" stroke-width="0.8" d="M457.08,-271.67C466.18,-263.5 478,-254.78 490.5,-250.5 576.29,-221.16 607.65,-224.48 694.5,-250.5 706.61,-254.13 718.53,-261.07 728.52,-268.14"/>
<polygon fill="#90a4ae" stroke="#90a4ae" stroke-width="0.8" points="727.47,-269.98 733.56,-271.83 729.96,-266.59 727.47,-269.98"/>
</g>
<!-- Set -->
<g id="node13" class="node">
<title>Set</title>
<path fill="#e8f5e9" stroke="#388e3c" d="M562.5,-308C562.5,-308 502.5,-308 502.5,-308 496.5,-308 490.5,-302 490.5,-296 490.5,-296 490.5,-284 490.5,-284 490.5,-278 496.5,-272 502.5,-272 502.5,-272 562.5,-272 562.5,-272 568.5,-272 574.5,-278 574.5,-284 574.5,-284 574.5,-296 574.5,-296 574.5,-302 568.5,-308 562.5,-308"/>
<text text-anchor="middle" x="532.5" y="-293.2" font-family="Helvetica,sans-Serif" font-size="11.00">Set</text>
<text text-anchor="middle" x="532.5" y="-281.2" font-family="Helvetica,sans-Serif" font-size="11.00">&lt;container&gt;</text>
</g>
<!-- Endpoint&#45;&gt;Set -->
<g id="edge11" class="edge">
<title>Endpoint&#45;&gt;Set</title>
<path fill="none" stroke="#90a4ae" stroke-width="0.8" d="M472.2,-290C476.11,-290 480.03,-290 483.94,-290"/>
<polygon fill="#90a4ae" stroke="#90a4ae" stroke-width="0.8" points="484.1,-292.1 490.1,-290 484.1,-287.9 484.1,-292.1"/>
</g>
<!-- StaticLinkedList -->
<g id="node14" class="node">
<title>StaticLinkedList</title>
<path fill="#e3f2fd" stroke="#1976d2" d="M682,-308C682,-308 605,-308 605,-308 599,-308 593,-302 593,-296 593,-296 593,-284 593,-284 593,-278 599,-272 605,-272 605,-272 682,-272 682,-272 688,-272 694,-278 694,-284 694,-284 694,-296 694,-296 694,-302 688,-308 682,-308"/>
<text text-anchor="middle" x="643.5" y="-293.2" font-family="Helvetica,sans-Serif" font-size="11.00">StaticLinkedList</text>
<text text-anchor="middle" x="643.5" y="-281.2" font-family="Helvetica,sans-Serif" font-size="11.00">&lt;struct&gt;</text>
</g>
<!-- Endpoint&#45;&gt;StaticLinkedList -->
<g id="edge12" class="edge">
<title>Endpoint&#45;&gt;StaticLinkedList</title>
<path fill="none" stroke="#90a4ae" stroke-width="0.8" d="M457.08,-271.67C466.18,-263.5 478,-254.78 490.5,-250.5 525.82,-238.42 538.42,-240.9 574.5,-250.5 588.27,-254.16 602.15,-261.29 613.81,-268.49"/>
<polygon fill="#90a4ae" stroke="#90a4ae" stroke-width="0.8" points="612.82,-270.35 619.01,-271.8 615.07,-266.81 612.82,-270.35"/>
</g>
<!-- IOid -->
<g id="node5" class="node">
<title>IOid</title>
<path fill="#f3e5f5" stroke="#7b1fa2" d="M1046.5,-308C1046.5,-308 1012.5,-308 1012.5,-308 1006.5,-308 1000.5,-302 1000.5,-296 1000.5,-296 1000.5,-284 1000.5,-284 1000.5,-278 1006.5,-272 1012.5,-272 1012.5,-272 1046.5,-272 1046.5,-272 1052.5,-272 1058.5,-278 1058.5,-284 1058.5,-284 1058.5,-296 1058.5,-296 1058.5,-302 1052.5,-308 1046.5,-308"/>
<text text-anchor="middle" x="1029.5" y="-293.2" font-family="Helvetica,sans-Serif" font-size="11.00">IOid</text>
<text text-anchor="middle" x="1029.5" y="-281.2" font-family="Helvetica,sans-Serif" font-size="11.00">&lt;alias&gt;</text>
</g>
<!-- Node -->
<g id="node6" class="node">
<title>Node</title>
<path fill="#e3f2fd" stroke="#1976d2" d="M868,-308C868,-308 827,-308 827,-308 821,-308 815,-302 815,-296 815,-296 815,-284 815,-284 815,-278 821,-272 827,-272 827,-272 868,-272 868,-272 874,-272 880,-278 880,-284 880,-284 880,-296 880,-296 880,-302 874,-308 868,-308"/>
<text text-anchor="middle" x="847.5" y="-293.2" font-family="Helvetica,sans-Serif" font-size="11.00">Node</text>
<text text-anchor="middle" x="847.5" y="-281.2" font-family="Helvetica,sans-Serif" font-size="11.00">&lt;struct&gt;</text>
</g>
<!-- Node&#45;&gt;Option -->
<g id="edge19" class="edge">
<title>Node&#45;&gt;Option</title>
<path fill="none" stroke="#90a4ae" stroke-width="0.8" d="M865.08,-271.67C874.18,-263.5 886,-254.78 898.5,-250.5 948.12,-233.53 1084.26,-235.45 1134.5,-250.5 1146.61,-254.13 1158.53,-261.07 1168.52,-268.14"/>
<polygon fill="#90a4ae" stroke="#90a4ae" stroke-width="0.8" points="1167.47,-269.98 1173.56,-271.83 1169.96,-266.59 1167.47,-269.98"/>
</g>
<!-- SLLIndex -->
<g id="node12" class="node">
<title>SLLIndex</title>
<path fill="#f3e5f5" stroke="#7b1fa2" stroke-width="3" d="M1306,-308C1306,-308 1267,-308 1267,-308 1261,-308 1255,-302 1255,-296 1255,-296 1255,-284 1255,-284 1255,-278 1261,-272 1267,-272 1267,-272 1306,-272 1306,-272 1312,-272 1318,-278 1318,-284 1318,-284 1318,-296 1318,-296 1318,-302 1312,-308 1306,-308"/>
<text text-anchor="middle" x="1286.5" y="-293.2" font-family="Helvetica,sans-Serif" font-size="11.00">SLLIndex</text>
<text text-anchor="middle" x="1286.5" y="-281.2" font-family="Helvetica,sans-Serif" font-size="11.00">&lt;alias&gt;</text>
</g>
<!-- Node&#45;&gt;SLLIndex -->
<g id="edge20" class="edge">
<title>Node&#45;&gt;SLLIndex</title>
<path fill="none" stroke="#90a4ae" stroke-width="0.8" d="M865.08,-271.67C874.18,-263.5 886,-254.78 898.5,-250.5 969.57,-226.2 1165.55,-225.85 1236.5,-250.5 1246.71,-254.05 1256.41,-260.64 1264.51,-267.44"/>
<polygon fill="#90a4ae" stroke="#90a4ae" stroke-width="0.8" points="1263.43,-269.29 1269.33,-271.67 1266.2,-266.14 1263.43,-269.29"/>
</g>
<!-- Page -->
<g id="node8" class="node">
<title>Page</title>
<path fill="#e3f2fd" stroke="#1976d2" stroke-width="3" d="M53,-308C53,-308 12,-308 12,-308 6,-308 0,-302 0,-296 0,-296 0,-284 0,-284 0,-278 6,-272 12,-272 12,-272 53,-272 53,-272 59,-272 65,-278 65,-284 65,-284 65,-296 65,-296 65,-302 59,-308 53,-308"/>
<text text-anchor="middle" x="32.5" y="-293.2" font-family="Helvetica,sans-Serif" font-size="11.00">Page</text>
<text text-anchor="middle" x="32.5" y="-281.2" font-family="Helvetica,sans-Serif" font-size="11.00">&lt;struct&gt;</text>
</g>
<!-- Page&#45;&gt;ContainerPtr -->
<g id="edge21" class="edge">
<title>Page&#45;&gt;ContainerPtr</title>
<path fill="none" stroke="#90a4ae" stroke-width="0.8" d="M50.08,-271.67C59.18,-263.5 71,-254.78 83.5,-250.5 167.29,-221.85 795.67,-225.08 880.5,-250.5 892.61,-254.13 904.53,-261.07 914.52,-268.14"/>
<polygon fill="#90a4ae" stroke="#90a4ae" stroke-width="0.8" points="913.47,-269.98 919.56,-271.83 915.96,-266.59 913.47,-269.98"/>
</g>
<!-- Page&#45;&gt;Ghost -->
<g id="edge22" class="edge">
<title>Page&#45;&gt;Ghost</title>
<path fill="none" stroke="#90a4ae" stroke-width="0.8" d="M50.08,-271.67C59.18,-263.5 71,-254.78 83.5,-250.5 147.74,-228.53 629.47,-231.02 694.5,-250.5 706.61,-254.13 718.53,-261.07 728.52,-268.14"/>
<polygon fill="#90a4ae" stroke="#90a4ae" stroke-width="0.8" points="727.47,-269.98 733.56,-271.83 729.96,-266.59 727.47,-269.98"/>
</g>
<!-- Page&#45;&gt;IOid -->
<g id="edge23" class="edge">
<title>Page&#45;&gt;IOid</title>
<path fill="none" stroke="#90a4ae" stroke-width="0.8" d="M50.08,-271.67C59.18,-263.5 71,-254.78 83.5,-250.5 130.76,-234.34 935.57,-233.4 982.5,-250.5 992.29,-254.07 1001.45,-260.67 1009.04,-267.46"/>
<polygon fill="#90a4ae" stroke="#90a4ae" stroke-width="0.8" points="1007.74,-269.12 1013.55,-271.69 1010.61,-266.06 1007.74,-269.12"/>
</g>
<!-- Page&#45;&gt;Option -->
<g id="edge24" class="edge">
<title>Page&#45;&gt;Option</title>
<path fill="none" stroke="#90a4ae" stroke-width="0.8" d="M50.08,-271.67C59.18,-263.5 71,-254.78 83.5,-250.5 138.75,-231.61 1078.57,-233.74 1134.5,-250.5 1146.61,-254.13 1158.53,-261.07 1168.52,-268.14"/>
<polygon fill="#90a4ae" stroke="#90a4ae" stroke-width="0.8" points="1167.47,-269.98 1173.56,-271.83 1169.96,-266.59 1167.47,-269.98"/>
</g>
<!-- PagePtr -->
<g id="node9" class="node">
<title>PagePtr</title>
<path fill="#f3e5f5" stroke="#7b1fa2" d="M205.5,-308C205.5,-308 171.5,-308 171.5,-308 165.5,-308 159.5,-302 159.5,-296 159.5,-296 159.5,-284 159.5,-284 159.5,-278 165.5,-272 171.5,-272 171.5,-272 205.5,-272 205.5,-272 211.5,-272 217.5,-278 217.5,-284 217.5,-284 217.5,-296 217.5,-296 217.5,-302 211.5,-308 205.5,-308"/>
<text text-anchor="middle" x="188.5" y="-293.2" font-family="Helvetica,sans-Serif" font-size="11.00">PagePtr</text>
<text text-anchor="middle" x="188.5" y="-281.2" font-family="Helvetica,sans-Serif" font-size="11.00">&lt;alias&gt;</text>
</g>
<!-- Page&#45;&gt;PagePtr -->
<g id="edge25" class="edge">
<title>Page&#45;&gt;PagePtr</title>
<path fill="none" stroke="#90a4ae" stroke-width="0.8" d="M50.08,-271.67C59.18,-263.5 71,-254.78 83.5,-250.5 107.89,-242.16 117.28,-241.67 141.5,-250.5 151.29,-254.07 160.45,-260.67 168.04,-267.46"/>
<polygon fill="#90a4ae" stroke="#90a4ae" stroke-width="0.8" points="166.74,-269.12 172.55,-271.69 169.61,-266.06 166.74,-269.12"/>
</g>
<!-- PageState -->
<g id="node10" class="node">
<title>PageState</title>
<path fill="#fff3e0" stroke="#f57c00" d="M293.5,-308C293.5,-308 247.5,-308 247.5,-308 241.5,-308 235.5,-302 235.5,-296 235.5,-296 235.5,-284 235.5,-284 235.5,-278 241.5,-272 247.5,-272 247.5,-272 293.5,-272 293.5,-272 299.5,-272 305.5,-278 305.5,-284 305.5,-284 305.5,-296 305.5,-296 305.5,-302 299.5,-308 293.5,-308"/>
<text text-anchor="middle" x="270.5" y="-293.2" font-family="Helvetica,sans-Serif" font-size="11.00">PageState</text>
<text text-anchor="middle" x="270.5" y="-281.2" font-family="Helvetica,sans-Serif" font-size="11.00">&lt;enum&gt;</text>
</g>
<!-- Page&#45;&gt;PageState -->
<g id="edge26" class="edge">
<title>Page&#45;&gt;PageState</title>
<path fill="none" stroke="#90a4ae" stroke-width="0.8" d="M50.08,-271.67C59.18,-263.5 71,-254.78 83.5,-250.5 139.85,-231.23 160.97,-231.75 217.5,-250.5 228.34,-254.1 238.77,-260.87 247.46,-267.81"/>
<polygon fill="#90a4ae" stroke="#90a4ae" stroke-width="0.8" points="246.15,-269.44 252.11,-271.66 248.83,-266.21 246.15,-269.44"/>
</g>
<!-- Pcid -->
<g id="node11" class="node">
<title>Pcid</title>
<path fill="#f3e5f5" stroke="#7b1fa2" d="M1122.5,-308C1122.5,-308 1088.5,-308 1088.5,-308 1082.5,-308 1076.5,-302 1076.5,-296 1076.5,-296 1076.5,-284 1076.5,-284 1076.5,-278 1082.5,-272 1088.5,-272 1088.5,-272 1122.5,-272 1122.5,-272 1128.5,-272 1134.5,-278 1134.5,-284 1134.5,-284 1134.5,-296 1134.5,-296 1134.5,-302 1128.5,-308 1122.5,-308"/>
<text text-anchor="middle" x="1105.5" y="-293.2" font-family="Helvetica,sans-Serif" font-size="11.00">Pcid</text>
<text text-anchor="middle" x="1105.5" y="-281.2" font-family="Helvetica,sans-Serif" font-size="11.00">&lt;alias&gt;</text>
</g>
<!-- Page&#45;&gt;Pcid -->
<g id="edge27" class="edge">
<title>Page&#45;&gt;Pcid</title>
<path fill="none" stroke="#90a4ae" stroke-width="0.8" d="M50.08,-271.67C59.18,-263.5 71,-254.78 83.5,-250.5 134.75,-232.97 1007.61,-231.95 1058.5,-250.5 1068.29,-254.07 1077.45,-260.67 1085.04,-267.46"/>
<polygon fill="#90a4ae" stroke="#90a4ae" stroke-width="0.8" points="1083.74,-269.12 1089.55,-271.69 1086.61,-266.06 1083.74,-269.12"/>
</g>
<!-- Page&#45;&gt;SLLIndex -->
<g id="edge28" class="edge">
<title>Page&#45;&gt;SLLIndex</title>
<path fill="none" stroke="#90a4ae" stroke-width="0.8" d="M50.08,-271.67C59.18,-263.5 71,-254.78 83.5,-250.5 144.11,-229.77 1175.99,-229.48 1236.5,-250.5 1246.71,-254.05 1256.41,-260.64 1264.51,-267.44"/>
<polygon fill="#90a4ae" stroke="#90a4ae" stroke-width="0.8" points="1263.43,-269.29 1269.33,-271.67 1266.2,-266.14 1263.43,-269.29"/>
</g>
<!-- Page&#45;&gt;Set -->
<g id="edge29" class="edge">
<title>Page&#45;&gt;Set</title>
<path fill="none" stroke="#90a4ae" stroke-width="0.8" d="M50.08,-271.67C59.18,-263.5 71,-254.78 83.5,-250.5 165.08,-222.6 388.81,-226.07 471.5,-250.5 483.76,-254.12 495.87,-261.07 506.03,-268.14"/>
<polygon fill="#90a4ae" stroke="#90a4ae" stroke-width="0.8" points="505.06,-270.02 511.16,-271.83 507.52,-266.62 505.06,-270.02"/>
</g>
<!-- VAddr -->
<g id="node15" class="node">
<title>VAddr</title>
<path fill="#f3e5f5" stroke="#7b1fa2" d="M129.5,-308C129.5,-308 95.5,-308 95.5,-308 89.5,-308 83.5,-302 83.5,-296 83.5,-296 83.5,-284 83.5,-284 83.5,-278 89.5,-272 95.5,-272 95.5,-272 129.5,-272 129.5,-272 135.5,-272 141.5,-278 141.5,-284 141.5,-284 141.5,-296 141.5,-296 141.5,-302 135.5,-308 129.5,-308"/>
<text text-anchor="middle" x="112.5" y="-293.2" font-family="Helvetica,sans-Serif" font-size="11.00">VAddr</text>
<text text-anchor="middle" x="112.5" y="-281.2" font-family="Helvetica,sans-Serif" font-size="11.00">&lt;alias&gt;</text>
</g>
<!-- Page&#45;&gt;VAddr -->
<g id="edge30" class="edge">
<title>Page&#45;&gt;VAddr</title>
<path fill="none" stroke="#90a4ae" stroke-width="0.8" d="M65,-290C68.98,-290 72.96,-290 76.93,-290"/>
<polygon fill="#90a4ae" stroke="#90a4ae" stroke-width="0.8" points="77.18,-292.1 83.18,-290 77.18,-287.9 77.18,-292.1"/>
</g>
<!-- StaticLinkedList&#45;&gt;Ghost -->
<g id="edge51" class="edge">
<title>StaticLinkedList&#45;&gt;Ghost</title>
<path fill="none" stroke="#90a4ae" stroke-width="0.8" d="M694.23,-290C698.14,-290 702.06,-290 705.97,-290"/>
<polygon fill="#90a4ae" stroke="#90a4ae" stroke-width="0.8" points="706.12,-292.1 712.12,-290 706.12,-287.9 706.12,-292.1"/>
</g>
<!-- StaticLinkedList&#45;&gt;Node -->
<g id="edge52" class="edge">
<title>StaticLinkedList&#45;&gt;Node</title>
<path fill="none" stroke="#90a4ae" stroke-width="0.8" d="M667.99,-271.8C680.6,-263.55 696.63,-254.72 712.5,-250.5 748.58,-240.9 761.18,-238.42 796.5,-250.5 806.86,-254.04 816.74,-260.63 825,-267.43"/>
<polygon fill="#90a4ae" stroke="#90a4ae" stroke-width="0.8" points="824,-269.35 829.92,-271.67 826.74,-266.16 824,-269.35"/>
</g>
<!-- StaticLinkedList&#45;&gt;SLLIndex -->
<g id="edge53" class="edge">
<title>StaticLinkedList&#45;&gt;SLLIndex</title>
<path fill="none" stroke="#90a4ae" stroke-width="0.8" d="M667.99,-271.8C680.6,-263.55 696.63,-254.72 712.5,-250.5 768.77,-235.53 1181.5,-231.4 1236.5,-250.5 1246.71,-254.05 1256.41,-260.64 1264.51,-267.44"/>
<polygon fill="#90a4ae" stroke="#90a4ae" stroke-width="0.8" points="1263.43,-269.29 1269.33,-271.67 1266.2,-266.14 1263.43,-269.29"/>
</g>
<!-- Container -->
<g id="node16" class="node">
<title>Container</title>
<path fill="#e3f2fd" stroke="#1976d2" d="M824.5,-229C824.5,-229 780.5,-229 780.5,-229 774.5,-229 768.5,-223 768.5,-217 768.5,-217 768.5,-205 768.5,-205 768.5,-199 774.5,-193 780.5,-193 780.5,-193 824.5,-193 824.5,-193 830.5,-193 836.5,-199 836.5,-205 836.5,-205 836.5,-217 836.5,-217 836.5,-223 830.5,-229 824.5,-229"/>
<text text-anchor="middle" x="802.5" y="-214.2" font-family="Helvetica,sans-Serif" font-size="11.00">Container</text>
<text text-anchor="middle" x="802.5" y="-202.2" font-family="Helvetica,sans-Serif" font-size="11.00">&lt;struct&gt;</text>
</g>
<!-- Container&#45;&gt;ContainerPtr -->
<g id="edge1" class="edge">
<title>Container&#45;&gt;ContainerPtr</title>
<path fill="none" stroke="#90a4ae" stroke-width="0.8" d="M833.13,-229.09C854.21,-240.85 882.3,-256.53 904.46,-268.89"/>
<polygon fill="#90a4ae" stroke="#90a4ae" stroke-width="0.8" points="903.7,-270.87 909.96,-271.96 905.74,-267.2 903.7,-270.87"/>
</g>
<!-- Container&#45;&gt;Ghost -->
<g id="edge2" class="edge">
<title>Container&#45;&gt;Ghost</title>
<path fill="none" stroke="#90a4ae" stroke-width="0.8" d="M791.85,-229.09C784.95,-240.15 775.89,-254.68 768.43,-266.66"/>
<polygon fill="#90a4ae" stroke="#90a4ae" stroke-width="0.8" points="766.51,-265.76 765.12,-271.96 770.08,-267.98 766.51,-265.76"/>
</g>
<!-- Container&#45;&gt;Option -->
<g id="edge3" class="edge">
<title>Container&#45;&gt;Option</title>
<path fill="none" stroke="#90a4ae" stroke-width="0.8" d="M836.54,-217.97C922.5,-233.06 1141.63,-271.53 1143.5,-272 1144.5,-272.25 1145.5,-272.51 1146.51,-272.78"/>
<polygon fill="#90a4ae" stroke="#90a4ae" stroke-width="0.8" points="1146,-274.82 1152.34,-274.41 1147.13,-270.78 1146,-274.82"/>
</g>
<!-- Container&#45;&gt;SLLIndex -->
<g id="edge4" class="edge">
<title>Container&#45;&gt;SLLIndex</title>
<path fill="none" stroke="#90a4ae" stroke-width="0.8" d="M836.55,-218.4C855.12,-221.78 878.53,-225.86 899.5,-229 1052.75,-251.94 1095.68,-232.41 1245.5,-272 1246.52,-272.27 1247.56,-272.56 1248.59,-272.87"/>
<polygon fill="#90a4ae" stroke="#90a4ae" stroke-width="0.8" points="1248.2,-274.95 1254.55,-274.8 1249.49,-270.95 1248.2,-274.95"/>
</g>
<!-- Container&#45;&gt;Set -->
<g id="edge5" class="edge">
<title>Container&#45;&gt;Set</title>
<path fill="none" stroke="#90a4ae" stroke-width="0.8" d="M768.19,-220.78C724.94,-232 648.38,-252.31 583.5,-272 582.52,-272.3 581.53,-272.6 580.53,-272.91"/>
<polygon fill="#90a4ae" stroke="#90a4ae" stroke-width="0.8" points="579.84,-270.92 574.74,-274.72 581.1,-274.93 579.84,-270.92"/>
</g>
<!-- Container&#45;&gt;StaticLinkedList -->
<g id="edge6" class="edge">
<title>Container&#45;&gt;StaticLinkedList</title>
<path fill="none" stroke="#90a4ae" stroke-width="0.8" d="M768.39,-228.52C743.69,-240.48 710.19,-256.71 684.1,-269.34"/>
<polygon fill="#90a4ae" stroke="#90a4ae" stroke-width="0.8" points="683.14,-267.47 678.65,-271.98 684.97,-271.25 683.14,-267.47"/>
</g>
<!-- PageAllocator -->
<g id="node17" class="node">
<title>PageAllocator</title>
<path fill="#e3f2fd" stroke="#1976d2" d="M676.5,-229C676.5,-229 610.5,-229 610.5,-229 604.5,-229 598.5,-223 598.5,-217 598.5,-217 598.5,-205 598.5,-205 598.5,-199 604.5,-193 610.5,-193 610.5,-193 676.5,-193 676.5,-193 682.5,-193 688.5,-199 688.5,-205 688.5,-205 688.5,-217 688.5,-217 688.5,-223 682.5,-229 676.5,-229"/>
<text text-anchor="middle" x="643.5" y="-214.2" font-family="Helvetica,sans-Serif" font-size="11.00">PageAllocator</text>
<text text-anchor="middle" x="643.5" y="-202.2" font-family="Helvetica,sans-Serif" font-size="11.00">&lt;struct&gt;</text>
</g>
<!-- PageAllocator&#45;&gt;ContainerPtr -->
<g id="edge31" class="edge">
<title>PageAllocator&#45;&gt;ContainerPtr</title>
<path fill="none" stroke="#90a4ae" stroke-width="0.8" d="M688.68,-221.84C738.25,-232.92 820.01,-251.98 889.5,-272 890.49,-272.28 891.48,-272.58 892.49,-272.87"/>
<polygon fill="#90a4ae" stroke="#90a4ae" stroke-width="0.8" points="891.93,-274.9 898.28,-274.63 893.15,-270.88 891.93,-274.9"/>
</g>
<!-- PageAllocator&#45;&gt;Ghost -->
<g id="edge32" class="edge">
<title>PageAllocator&#45;&gt;Ghost</title>
<path fill="none" stroke="#90a4ae" stroke-width="0.8" d="M668.13,-229.09C684.8,-240.65 706.92,-256 724.6,-268.26"/>
<polygon fill="#90a4ae" stroke="#90a4ae" stroke-width="0.8" points="723.81,-270.26 729.93,-271.96 726.2,-266.81 723.81,-270.26"/>
</g>
<!-- PageAllocator&#45;&gt;Page -->
<g id="edge33" class="edge">
<title>PageAllocator&#45;&gt;Page</title>
<path fill="none" stroke="#90a4ae" stroke-width="0.8" d="M598.5,-212.5C501.34,-214.51 265.31,-224.33 74.5,-272 73.36,-272.29 72.2,-272.6 71.04,-272.93"/>
<polygon fill="#90a4ae" stroke="#90a4ae" stroke-width="0.8" points="70.33,-270.95 65.22,-274.74 71.58,-274.96 70.33,-270.95"/>
</g>
<!-- PageAllocator&#45;&gt;PagePtr -->
<g id="edge34" class="edge">
<title>PageAllocator&#45;&gt;PagePtr</title>
<path fill="none" stroke="#90a4ae" stroke-width="0.8" d="M598.2,-214.4C520.69,-219.41 358.23,-233.87 226.5,-272 225.5,-272.29 224.49,-272.6 223.47,-272.93"/>
<polygon fill="#90a4ae" stroke="#90a4ae" stroke-width="0.8" points="222.61,-271.01 217.65,-274.99 224.01,-274.97 222.61,-271.01"/>
</g>
<!-- PageAllocator&#45;&gt;Set -->
<g id="edge35" class="edge">
<title>PageAllocator&#45;&gt;Set</title>
<path fill="none" stroke="#90a4ae" stroke-width="0.8" d="M618.87,-229.09C602.2,-240.65 580.08,-256 562.4,-268.26"/>
<polygon fill="#90a4ae" stroke="#90a4ae" stroke-width="0.8" points="560.8,-266.81 557.07,-271.96 563.19,-270.26 560.8,-266.81"/>
</g>
<!-- PageAllocator&#45;&gt;StaticLinkedList -->
<g id="edge36" class="edge">
<title>PageAllocator&#45;&gt;StaticLinkedList</title>
<path fill="none" stroke="#90a4ae" stroke-width="0.8" d="M643.5,-229.09C643.5,-239.86 643.5,-253.9 643.5,-265.68"/>
<polygon fill="#90a4ae" stroke="#90a4ae" stroke-width="0.8" points="641.4,-265.96 643.5,-271.96 645.6,-265.96 641.4,-265.96"/>
</g>
<!-- Process -->
<g id="node18" class="node">
<title>Process</title>
<path fill="#e3f2fd" stroke="#1976d2" d="M961,-229C961,-229 920,-229 920,-229 914,-229 908,-223 908,-217 908,-217 908,-205 908,-205 908,-199 914,-193 920,-193 920,-193 961,-193 961,-193 967,-193 973,-199 973,-205 973,-205 973,-217 973,-217 973,-223 967,-229 961,-229"/>
<text text-anchor="middle" x="940.5" y="-214.2" font-family="Helvetica,sans-Serif" font-size="11.00">Process</text>
<text text-anchor="middle" x="940.5" y="-202.2" font-family="Helvetica,sans-Serif" font-size="11.00">&lt;struct&gt;</text>
</g>
<!-- Process&#45;&gt;ContainerPtr -->
<g id="edge37" class="edge">
<title>Process&#45;&gt;ContainerPtr</title>
<path fill="none" stroke="#90a4ae" stroke-width="0.8" d="M940.5,-229.09C940.5,-239.86 940.5,-253.9 940.5,-265.68"/>
<polygon fill="#90a4ae" stroke="#90a4ae" stroke-width="0.8" points="938.4,-265.96 940.5,-271.96 942.6,-265.96 938.4,-265.96"/>
</g>
<!-- Process&#45;&gt;Ghost -->
<g id="edge38" class="edge">
<title>Process&#45;&gt;Ghost</title>
<path fill="none" stroke="#90a4ae" stroke-width="0.8" d="M907.68,-225.59C878.2,-237.79 834.58,-255.85 801.43,-269.57"/>
<polygon fill="#90a4ae" stroke="#90a4ae" stroke-width="0.8" points="800.52,-267.67 795.78,-271.91 802.13,-271.56 800.52,-267.67"/>
</g>
<!-- Process&#45;&gt;IOid -->
<g id="edge39" class="edge">
<title>Process&#45;&gt;IOid</title>
<path fill="none" stroke="#90a4ae" stroke-width="0.8" d="M960.25,-229.09C973.5,-240.55 991.05,-255.73 1005.16,-267.94"/>
<polygon fill="#90a4ae" stroke="#90a4ae" stroke-width="0.8" points="1003.89,-269.62 1009.8,-271.96 1006.64,-266.45 1003.89,-269.62"/>
</g>
<!-- Process&#45;&gt;Option -->
<g id="edge40" class="edge">
<title>Process&#45;&gt;Option</title>
<path fill="none" stroke="#90a4ae" stroke-width="0.8" d="M973.3,-221.32C1013.53,-232.83 1083.72,-253.21 1143.5,-272 1144.48,-272.31 1145.47,-272.62 1146.47,-272.94"/>
<polygon fill="#90a4ae" stroke="#90a4ae" stroke-width="0.8" points="1145.88,-274.96 1152.24,-274.79 1147.16,-270.96 1145.88,-274.96"/>
</g>
<!-- Process&#45;&gt;Pcid -->
<g id="edge41" class="edge">
<title>Process&#45;&gt;Pcid</title>
<path fill="none" stroke="#90a4ae" stroke-width="0.8" d="M973.1,-227.21C1001.27,-240.36 1041.89,-259.31 1070.69,-272.76"/>
<polygon fill="#90a4ae" stroke="#90a4ae" stroke-width="0.8" points="1069.96,-274.73 1076.29,-275.37 1071.74,-270.93 1069.96,-274.73"/>
</g>
<!-- Process&#45;&gt;SLLIndex -->
<g id="edge42" class="edge">
<title>Process&#45;&gt;SLLIndex</title>
<path fill="none" stroke="#90a4ae" stroke-width="0.8" d="M973.07,-216.24C1029.42,-224.04 1148.39,-242.63 1245.5,-272 1246.66,-272.35 1247.84,-272.72 1249.02,-273.11"/>
<polygon fill="#90a4ae" stroke="#90a4ae" stroke-width="0.8" points="1248.59,-275.19 1254.94,-275.19 1249.97,-271.22 1248.59,-275.19"/>
</g>
<!-- Process&#45;&gt;Set -->
<g id="edge43" class="edge">
<title>Process&#45;&gt;Set</title>
<path fill="none" stroke="#90a4ae" stroke-width="0.8" d="M907.98,-217.94C889.65,-221.26 866.31,-225.43 845.5,-229 729.2,-248.95 698.06,-243.7 583.5,-272 582.5,-272.25 581.5,-272.5 580.49,-272.77"/>
<polygon fill="#90a4ae" stroke="#90a4ae" stroke-width="0.8" points="579.88,-270.76 574.65,-274.38 580.99,-274.81 579.88,-270.76"/>
</g>
<!-- Process&#45;&gt;StaticLinkedList -->
<g id="edge44" class="edge">
<title>Process&#45;&gt;StaticLinkedList</title>
<path fill="none" stroke="#90a4ae" stroke-width="0.8" d="M907.84,-219.96C862.06,-231.19 776.27,-252.48 703.5,-272 702.36,-272.3 701.21,-272.61 700.06,-272.93"/>
<polygon fill="#90a4ae" stroke="#90a4ae" stroke-width="0.8" points="699.45,-270.92 694.21,-274.52 700.55,-274.97 699.45,-270.92"/>
</g>
<!-- Thread -->
<g id="node19" class="node">
<title>Thread</title>
<path fill="#e3f2fd" stroke="#1976d2" d="M1129,-229C1129,-229 1088,-229 1088,-229 1082,-229 1076,-223 1076,-217 1076,-217 1076,-205 1076,-205 1076,-199 1082,-193 1088,-193 1088,-193 1129,-193 1129,-193 1135,-193 1141,-199 1141,-205 1141,-205 1141,-217 1141,-217 1141,-223 1135,-229 1129,-229"/>
<text text-anchor="middle" x="1108.5" y="-214.2" font-family="Helvetica,sans-Serif" font-size="11.00">Thread</text>
<text text-anchor="middle" x="1108.5" y="-202.2" font-family="Helvetica,sans-Serif" font-size="11.00">&lt;struct&gt;</text>
</g>
<!-- Thread&#45;&gt;ContainerPtr -->
<g id="edge54" class="edge">
<title>Thread&#45;&gt;ContainerPtr</title>
<path fill="none" stroke="#90a4ae" stroke-width="0.8" d="M1075.71,-227.03C1049.3,-239.13 1011.97,-256.24 983.22,-269.42"/>
<polygon fill="#90a4ae" stroke="#90a4ae" stroke-width="0.8" points="982.17,-267.59 977.59,-272 983.92,-271.41 982.17,-267.59"/>
</g>
<!-- Thread&#45;&gt;Option -->
<g id="edge55" class="edge">
<title>Thread&#45;&gt;Option</title>
<path fill="none" stroke="#90a4ae" stroke-width="0.8" d="M1127.59,-229.09C1140.39,-240.55 1157.34,-255.73 1170.98,-267.94"/>
<polygon fill="#90a4ae" stroke="#90a4ae" stroke-width="0.8" points="1169.6,-269.52 1175.47,-271.96 1172.4,-266.39 1169.6,-269.52"/>
</g>
<!-- Thread&#45;&gt;SLLIndex -->
<g id="edge56" class="edge">
<title>Thread&#45;&gt;SLLIndex</title>
<path fill="none" stroke="#90a4ae" stroke-width="0.8" d="M1141.15,-226.12C1171.67,-239.32 1217.2,-259.02 1249.15,-272.84"/>
<polygon fill="#90a4ae" stroke="#90a4ae" stroke-width="0.8" points="1248.62,-274.9 1254.96,-275.35 1250.28,-271.04 1248.62,-274.9"/>
</g>
<!-- ProcessManager -->
<g id="node20" class="node">
<title>ProcessManager</title>
<path fill="#e3f2fd" stroke="#1976d2" d="M843,-150C843,-150 762,-150 762,-150 756,-150 750,-144 750,-138 750,-138 750,-126 750,-126 750,-120 756,-114 762,-114 762,-114 843,-114 843,-114 849,-114 855,-120 855,-126 855,-126 855,-138 855,-138 855,-144 849,-150 843,-150"/>
<text text-anchor="middle" x="802.5" y="-135.2" font-family="Helvetica,sans-Serif" font-size="11.00">ProcessManager</text>
<text text-anchor="middle" x="802.5" y="-123.2" font-family="Helvetica,sans-Serif" font-size="11.00">&lt;struct&gt;</text>
</g>
<!-- ProcessManager&#45;&gt;ContainerPtr -->
<g id="edge46" class="edge">
<title>ProcessManager&#45;&gt;ContainerPtr</title>
<path fill="none" stroke="#90a4ae" stroke-width="0.8" d="M817.8,-150.29C842.98,-178.75 893.12,-235.45 920.88,-266.82"/>
<polygon fill="#90a4ae" stroke="#90a4ae" stroke-width="0.8" points="919.59,-268.53 925.14,-271.63 922.73,-265.75 919.59,-268.53"/>
</g>
<!-- ProcessManager&#45;&gt;Cpu -->
<g id="edge47" class="edge">
<title>ProcessManager&#45;&gt;Cpu</title>
<path fill="none" stroke="#90a4ae" stroke-width="0.8" d="M749.8,-139.18C692.25,-147.09 598.05,-163.43 521.5,-193 470.8,-212.59 417.34,-246.48 385.46,-268.31"/>
<polygon fill="#90a4ae" stroke="#90a4ae" stroke-width="0.8" points="383.9,-266.84 380.15,-271.97 386.28,-270.29 383.9,-266.84"/>
</g>
<!-- ProcessManager&#45;&gt;Endpoint -->
<g id="edge48" class="edge">
<title>ProcessManager&#45;&gt;Endpoint</title>
<path fill="none" stroke="#90a4ae" stroke-width="0.8" d="M749.79,-143.3C705.74,-152.97 641.9,-169.48 589.5,-193 543.64,-213.59 495.52,-246.75 466.52,-268.21"/>
<polygon fill="#90a4ae" stroke="#90a4ae" stroke-width="0.8" points="465.24,-266.54 461.68,-271.81 467.75,-269.91 465.24,-266.54"/>
</g>
<!-- ProcessManager&#45;&gt;Container -->
<g id="edge45" class="edge">
<title>ProcessManager&#45;&gt;Container</title>
<path fill="none" stroke="#90a4ae" stroke-width="0.8" d="M802.5,-150.09C802.5,-160.86 802.5,-174.9 802.5,-186.68"/>
<polygon fill="#90a4ae" stroke="#90a4ae" stroke-width="0.8" points="800.4,-186.96 802.5,-192.96 804.6,-186.96 800.4,-186.96"/>
</g>
<!-- ProcessManager&#45;&gt;Process -->
<g id="edge49" class="edge">
<title>ProcessManager&#45;&gt;Process</title>
<path fill="none" stroke="#90a4ae" stroke-width="0.8" d="M833.13,-150.09C854.21,-161.85 882.3,-177.53 904.46,-189.89"/>
<polygon fill="#90a4ae" stroke="#90a4ae" stroke-width="0.8" points="903.7,-191.87 909.96,-192.96 905.74,-188.2 903.7,-191.87"/>
</g>
<!-- ProcessManager&#45;&gt;Thread -->
<g id="edge50" class="edge">
<title>ProcessManager&#45;&gt;Thread</title>
<path fill="none" stroke="#90a4ae" stroke-width="0.8" d="M855.1,-146.24C916.15,-161.6 1015.36,-186.56 1069.77,-200.25"/>
<polygon fill="#90a4ae" stroke="#90a4ae" stroke-width="0.8" points="1069.52,-202.36 1075.86,-201.79 1070.55,-198.28 1069.52,-202.36"/>
</g>
<!-- Kernel -->
<g id="node21" class="node">
<title>Kernel</title>
<path fill="#e3f2fd" stroke="#1976d2" d="M608,-71C608,-71 567,-71 567,-71 561,-71 555,-65 555,-59 555,-59 555,-47 555,-47 555,-41 561,-35 567,-35 567,-35 608,-35 608,-35 614,-35 620,-41 620,-47 620,-47 620,-59 620,-59 620,-65 614,-71 608,-71"/>
<text text-anchor="middle" x="587.5" y="-56.2" font-family="Helvetica,sans-Serif" font-size="11.00">Kernel</text>
<text text-anchor="middle" x="587.5" y="-44.2" font-family="Helvetica,sans-Serif" font-size="11.00">&lt;struct&gt;</text>
</g>
<!-- Kernel&#45;&gt;Ghost -->
<g id="edge13" class="edge">
<title>Kernel&#45;&gt;Ghost</title>
<path fill="none" stroke="#90a4ae" stroke-width="0.8" d="M602.53,-71.41C624.48,-97.18 666.1,-147.36 697.5,-193 714.27,-217.38 731.31,-246.82 742.33,-266.61"/>
<polygon fill="#90a4ae" stroke="#90a4ae" stroke-width="0.8" points="740.53,-267.7 745.28,-271.93 744.21,-265.66 740.53,-267.7"/>
</g>
<!-- Kernel&#45;&gt;PagePtr -->
<g id="edge15" class="edge">
<title>Kernel&#45;&gt;PagePtr</title>
<path fill="none" stroke="#90a4ae" stroke-width="0.8" d="M558.48,-71.09C486.51,-113.48 300.01,-223.32 222.78,-268.81"/>
<polygon fill="#90a4ae" stroke="#90a4ae" stroke-width="0.8" points="221.51,-267.12 217.41,-271.97 223.64,-270.74 221.51,-267.12"/>
</g>
<!-- Kernel&#45;&gt;Set -->
<g id="edge17" class="edge">
<title>Kernel&#45;&gt;Set</title>
<path fill="none" stroke="#90a4ae" stroke-width="0.8" d="M583.46,-71.28C573.72,-112.87 548.98,-218.59 537.95,-265.71"/>
<polygon fill="#90a4ae" stroke="#90a4ae" stroke-width="0.8" points="535.87,-265.37 536.55,-271.69 539.96,-266.33 535.87,-265.37"/>
</g>
<!-- Kernel&#45;&gt;VAddr -->
<g id="edge18" class="edge">
<title>Kernel&#45;&gt;VAddr</title>
<path fill="none" stroke="#90a4ae" stroke-width="0.8" d="M554.84,-64.54C521.89,-75.56 469.83,-93.99 426.5,-114 320.29,-163.04 201.26,-234.09 145.14,-268.63"/>
<polygon fill="#90a4ae" stroke="#90a4ae" stroke-width="0.8" points="143.91,-266.92 139.9,-271.85 146.11,-270.49 143.91,-266.92"/>
</g>
<!-- Kernel&#45;&gt;PageAllocator -->
<g id="edge14" class="edge">
<title>Kernel&#45;&gt;PageAllocator</title>
<path fill="none" stroke="#90a4ae" stroke-width="0.8" d="M593.71,-71.29C603.8,-99.4 623.77,-155.05 635.12,-186.65"/>
<polygon fill="#90a4ae" stroke="#90a4ae" stroke-width="0.8" points="633.26,-187.69 637.27,-192.63 637.21,-186.28 633.26,-187.69"/>
</g>
<!-- Kernel&#45;&gt;ProcessManager -->
<g id="edge16" class="edge">
<title>Kernel&#45;&gt;ProcessManager</title>
<path fill="none" stroke="#90a4ae" stroke-width="0.8" d="M612.08,-71.23C616.74,-74.06 621.67,-76.79 626.5,-79 647.53,-88.61 701.31,-104.05 743.93,-115.61"/>
<polygon fill="#90a4ae" stroke="#90a4ae" stroke-width="0.8" points="743.52,-117.67 749.86,-117.21 744.62,-113.62 743.52,-117.67"/>
</g>
<!-- leg_struct -->
<g id="node22" class="node">
<title>leg_struct</title>
<path fill="#e3f2fd" stroke="#1976d2" d="M1112.5,-71C1112.5,-71 1082.5,-71 1082.5,-71 1076.5,-71 1070.5,-65 1070.5,-59 1070.5,-59 1070.5,-47 1070.5,-47 1070.5,-41 1076.5,-35 1082.5,-35 1082.5,-35 1112.5,-35 1112.5,-35 1118.5,-35 1124.5,-41 1124.5,-47 1124.5,-47 1124.5,-59 1124.5,-59 1124.5,-65 1118.5,-71 1112.5,-71"/>
<text text-anchor="middle" x="1097.5" y="-50.8" font-family="Helvetica,sans-Serif" font-size="9.00">struct</text>
</g>
<!-- leg_enum -->
<g id="node23" class="node">
<title>leg_enum</title>
<path fill="#fff3e0" stroke="#f57c00" d="M1040.5,-71C1040.5,-71 1010.5,-71 1010.5,-71 1004.5,-71 998.5,-65 998.5,-59 998.5,-59 998.5,-47 998.5,-47 998.5,-41 1004.5,-35 1010.5,-35 1010.5,-35 1040.5,-35 1040.5,-35 1046.5,-35 1052.5,-41 1052.5,-47 1052.5,-47 1052.5,-59 1052.5,-59 1052.5,-65 1046.5,-71 1040.5,-71"/>
<text text-anchor="middle" x="1025.5" y="-50.8" font-family="Helvetica,sans-Serif" font-size="9.00">enum</text>
</g>
<!-- leg_alias -->
<g id="node24" class="node">
<title>leg_alias</title>
<path fill="#f3e5f5" stroke="#7b1fa2" d="M968.5,-71C968.5,-71 938.5,-71 938.5,-71 932.5,-71 926.5,-65 926.5,-59 926.5,-59 926.5,-47 926.5,-47 926.5,-41 932.5,-35 938.5,-35 938.5,-35 968.5,-35 968.5,-35 974.5,-35 980.5,-41 980.5,-47 980.5,-47 980.5,-59 980.5,-59 980.5,-65 974.5,-71 968.5,-71"/>
<text text-anchor="middle" x="953.5" y="-50.8" font-family="Helvetica,sans-Serif" font-size="9.00">alias</text>
</g>
<!-- leg_union -->
<g id="node25" class="node">
<title>leg_union</title>
<path fill="#e0f7fa" stroke="#0097a7" d="M896.5,-71C896.5,-71 866.5,-71 866.5,-71 860.5,-71 854.5,-65 854.5,-59 854.5,-59 854.5,-47 854.5,-47 854.5,-41 860.5,-35 866.5,-35 866.5,-35 896.5,-35 896.5,-35 902.5,-35 908.5,-41 908.5,-47 908.5,-47 908.5,-59 908.5,-59 908.5,-65 902.5,-71 896.5,-71"/>
<text text-anchor="middle" x="881.5" y="-50.8" font-family="Helvetica,sans-Serif" font-size="9.00">union</text>
</g>
<!-- leg_container -->
<g id="node26" class="node">
<title>leg_container</title>
<path fill="#e8f5e9" stroke="#388e3c" d="M824.5,-71C824.5,-71 794.5,-71 794.5,-71 788.5,-71 782.5,-65 782.5,-59 782.5,-59 782.5,-47 782.5,-47 782.5,-41 788.5,-35 794.5,-35 794.5,-35 824.5,-35 824.5,-35 830.5,-35 836.5,-41 836.5,-47 836.5,-47 836.5,-59 836.5,-59 836.5,-65 830.5,-71 824.5,-71"/>
<text text-anchor="middle" x="809.5" y="-50.8" font-family="Helvetica,sans-Serif" font-size="9.00">container</text>
</g>
<!-- leg_primitive -->
<g id="node27" class="node">
<title>leg_primitive</title>
<path fill="#fafafa" stroke="#616161" d="M752.5,-71C752.5,-71 722.5,-71 722.5,-71 716.5,-71 710.5,-65 710.5,-59 710.5,-59 710.5,-47 710.5,-47 710.5,-41 716.5,-35 722.5,-35 722.5,-35 752.5,-35 752.5,-35 758.5,-35 764.5,-41 764.5,-47 764.5,-47 764.5,-59 764.5,-59 764.5,-65 758.5,-71 752.5,-71"/>
<text text-anchor="middle" x="737.5" y="-50.8" font-family="Helvetica,sans-Serif" font-size="9.00">primitive</text>
</g>
<!-- leg_external -->
<g id="node28" class="node">
<title>leg_external</title>
<path fill="#ffebee" stroke="#c62828" d="M680.5,-71C680.5,-71 650.5,-71 650.5,-71 644.5,-71 638.5,-65 638.5,-59 638.5,-59 638.5,-47 638.5,-47 638.5,-41 644.5,-35 650.5,-35 650.5,-35 680.5,-35 680.5,-35 686.5,-35 692.5,-41 692.5,-47 692.5,-47 692.5,-59 692.5,-59 692.5,-65 686.5,-71 680.5,-71"/>
<text text-anchor="middle" x="665.5" y="-50.8" font-family="Helvetica,sans-Serif" font-size="9.00">external</text>
</g>
</g>
</svg>
