<?xml version="1.0" encoding="UTF-8" standalone="no"?>
<!DOCTYPE svg PUBLIC "-//W3C//DTD SVG 1.1//EN"
 "http://www.w3.org/Graphics/SVG/1.1/DTD/svg11.dtd">
<!-- Generated by graphviz version 2.43.0 (0)
 -->
<!-- Title: atmosphere_deps Pages: 1 -->
<svg width="3376pt" height="529pt"
 viewBox="0.00 0.00 3375.50 529.00" xmlns="http://www.w3.org/2000/svg" xmlns:xlink="http://www.w3.org/1999/xlink">
<g id="graph0" class="graph" transform="scale(1 1) rotate(0) translate(4 525)">
<title>atmosphere_deps</title>
<polygon fill="white" stroke="transparent" points="-4,4 -4,-525 3371.5,-525 3371.5,4 -4,4"/>
<g id="clust7" class="cluster">
<title>cluster_legend</title>
<path fill="white" stroke="#9e9e9e" d="M1315.5,-442C1315.5,-442 1793.5,-442 1793.5,-442 1799.5,-442 1805.5,-448 1805.5,-454 1805.5,-454 1805.5,-501 1805.5,-501 1805.5,-507 1799.5,-513 1793.5,-513 1793.5,-513 1315.5,-513 1315.5,-513 1309.5,-513 1303.5,-507 1303.5,-501 1303.5,-501 1303.5,-454 1303.5,-454 1303.5,-448 1309.5,-442 1315.5,-442"/>
<text text-anchor="middle" x="1554.5" y="-501" font-family="Helvetica,sans-Serif" font-size="10.00" fill="#616161">legend</text>
</g>
<!-- Kernel -->
<g id="node1" class="node">
<title>Kernel</title>
<path fill="#e3f2fd" stroke="#1976d2" d="M1281,-486C1281,-486 1240,-486 1240,-486 1234,-486 1228,-480 1228,-474 1228,-474 1228,-462 1228,-462 1228,-456 1234,-450 1240,-450 1240,-450 1281,-450 1281,-450 1287,-450 1293,-456 1293,-462 1293,-462 1293,-474 1293,-474 1293,-480 1287,-486 1281,-486"/>
<text text-anchor="middle" x="1260.5" y="-471.2" font-family="Helvetica,sans-Serif" font-size="11.00">Kernel</text>
<text text-anchor="middle" x="1260.5" y="-459.2" font-family="Helvetica,sans-Serif" font-size="11.00">&lt;struct&gt;</text>
</g>
<!-- MemoryManager -->
<g id="node2" class="node">
<title>MemoryManager</title>
<path fill="#e3f2fd" stroke="#1976d2" d="M1078.5,-396C1078.5,-396 994.5,-396 994.5,-396 988.5,-396 982.5,-390 982.5,-384 982.5,-384 982.5,-372 982.5,-372 982.5,-366 988.5,-360 994.5,-360 994.5,-360 1078.5,-360 1078.5,-360 1084.5,-360 1090.5,-366 1090.5,-372 1090.5,-372 1090.5,-384 1090.5,-384 1090.5,-390 1084.5,-396 1078.5,-396"/>
<text text-anchor="middle" x="1036.5" y="-381.2" font-family="Helvetica,sans-Serif" font-size="11.00">MemoryManager</text>
<text text-anchor="middle" x="1036.5" y="-369.2" font-family="Helvetica,sans-Serif" font-size="11.00">&lt;struct&gt;</text>
</g>
<!-- Kernel&#45;&gt;MemoryManager -->
<g id="edge19" class="edge">
<title>Kernel&#45;&gt;MemoryManager</title>
<path fill="none" stroke="#90a4ae" stroke-width="0.8" d="M1227.93,-454.2C1190.54,-439.51 1128.81,-415.26 1085.58,-398.28"/>
<polygon fill="#90a4ae" stroke="#90a4ae" stroke-width="0.8" points="1086.23,-396.28 1079.88,-396.04 1084.69,-400.19 1086.23,-396.28"/>
</g>
<!-- ProcessManager -->
<g id="node3" class="node">
<title>ProcessManager</title>
<path fill="#e3f2fd" stroke="#1976d2" d="M2574,-396C2574,-396 2493,-396 2493,-396 2487,-396 2481,-390 2481,-384 2481,-384 2481,-372 2481,-372 2481,-366 2487,-360 2493,-360 2493,-360 2574,-360 2574,-360 2580,-360 2586,-366 2586,-372 2586,-372 2586,-384 2586,-384 2586,-390 2580,-396 2574,-396"/>
<text text-anchor="middle" x="2533.5" y="-381.2" font-family="Helvetica,sans-Serif" font-size="11.00">ProcessManager</text>
<text text-anchor="middle" x="2533.5" y="-369.2" font-family="Helvetica,sans-Serif" font-size="11.00">&lt;struct&gt;</text>
</g>
<!-- Kernel&#45;&gt;ProcessManager -->
<g id="edge23" class="edge">
<title>Kernel&#45;&gt;ProcessManager</title>
<path fill="none" stroke="#90a4ae" stroke-width="0.8" d="M1283.02,-449.82C1288.18,-446.67 1293.83,-443.82 1299.5,-442 1411.94,-405.92 2243.86,-385.3 2474.41,-380.24"/>
<polygon fill="#90a4ae" stroke="#90a4ae" stroke-width="0.8" points="2474.78,-382.33 2480.73,-380.1 2474.68,-378.13 2474.78,-382.33"/>
</g>
<!-- PageAllocator -->
<g id="node6" class="node">
<title>PageAllocator</title>
<path fill="#e3f2fd" stroke="#1976d2" d="M368.5,-306C368.5,-306 302.5,-306 302.5,-306 296.5,-306 290.5,-300 290.5,-294 290.5,-294 290.5,-282 290.5,-282 290.5,-276 296.5,-270 302.5,-270 302.5,-270 368.5,-270 368.5,-270 374.5,-270 380.5,-276 380.5,-282 380.5,-282 380.5,-294 380.5,-294 380.5,-300 374.5,-306 368.5,-306"/>
<text text-anchor="middle" x="335.5" y="-291.2" font-family="Helvetica,sans-Serif" font-size="11.00">PageAllocator</text>
<text text-anchor="middle" x="335.5" y="-279.2" font-family="Helvetica,sans-Serif" font-size="11.00">&lt;struct&gt;</text>
</g>
<!-- Kernel&#45;&gt;PageAllocator -->
<g id="edge20" class="edge">
<title>Kernel&#45;&gt;PageAllocator</title>
<path fill="none" stroke="#90a4ae" stroke-width="0.8" d="M1227.72,-461.96C1112.83,-444.05 717.92,-380.58 396.5,-306 393.29,-305.25 389.99,-304.45 386.67,-303.61"/>
<polygon fill="#90a4ae" stroke="#90a4ae" stroke-width="0.8" points="387.02,-301.53 380.69,-302.07 385.98,-305.6 387.02,-301.53"/>
</g>
<!-- PagePtr -->
<g id="node43" class="node">
<title>PagePtr</title>
<path fill="#f3e5f5" stroke="#7b1fa2" d="M349.5,-36C349.5,-36 315.5,-36 315.5,-36 309.5,-36 303.5,-30 303.5,-24 303.5,-24 303.5,-12 303.5,-12 303.5,-6 309.5,0 315.5,0 315.5,0 349.5,0 349.5,0 355.5,0 361.5,-6 361.5,-12 361.5,-12 361.5,-24 361.5,-24 361.5,-30 355.5,-36 349.5,-36"/>
<text text-anchor="middle" x="332.5" y="-21.2" font-family="Helvetica,sans-Serif" font-size="11.00">PagePtr</text>
<text text-anchor="middle" x="332.5" y="-9.2" font-family="Helvetica,sans-Serif" font-size="11.00">&lt;alias&gt;</text>
</g>
<!-- Kernel&#45;&gt;PagePtr -->
<g id="edge21" class="edge">
<title>Kernel&#45;&gt;PagePtr</title>
<path fill="none" stroke="#90a4ae" stroke-width="0.8" d="M1227.72,-465.08C1048.43,-454.15 194.5,-396.48 194.5,-289 194.5,-289 194.5,-289 194.5,-197 194.5,-127.96 260.15,-69.48 300.89,-39.83"/>
<polygon fill="#90a4ae" stroke="#90a4ae" stroke-width="0.8" points="302.56,-41.22 306.22,-36.02 300.12,-37.8 302.56,-41.22"/>
</g>
<!-- ProcPtr -->
<g id="node46" class="node">
<title>ProcPtr</title>
<path fill="#f3e5f5" stroke="#7b1fa2" d="M3147.5,-36C3147.5,-36 3113.5,-36 3113.5,-36 3107.5,-36 3101.5,-30 3101.5,-24 3101.5,-24 3101.5,-12 3101.5,-12 3101.5,-6 3107.5,0 3113.5,0 3113.5,0 3147.5,0 3147.5,0 3153.5,0 3159.5,-6 3159.5,-12 3159.5,-12 3159.5,-24 3159.5,-24 3159.5,-30 3153.5,-36 3147.5,-36"/>
<text text-anchor="middle" x="3130.5" y="-21.2" font-family="Helvetica,sans-Serif" font-size="11.00">ProcPtr</text>
<text text-anchor="middle" x="3130.5" y="-9.2" font-family="Helvetica,sans-Serif" font-size="11.00">&lt;alias&gt;</text>
</g>
<!-- Kernel&#45;&gt;ProcPtr -->
<g id="edge22" class="edge">
<title>Kernel&#45;&gt;ProcPtr</title>
<path fill="none" stroke="#90a4ae" stroke-width="0.8" d="M1282.99,-449.75C1288.16,-446.61 1293.82,-443.77 1299.5,-442 1574.57,-356.08 2308.82,-425.38 2595.5,-396 2877.16,-367.14 3223.5,-572.13 3223.5,-289 3223.5,-289 3223.5,-289 3223.5,-197 3223.5,-134.78 3178.31,-72.81 3150.93,-40.98"/>
<polygon fill="#90a4ae" stroke="#90a4ae" stroke-width="0.8" points="3152.23,-39.27 3146.7,-36.13 3149.06,-42.03 3152.23,-39.27"/>
</g>
<!-- VAddr -->
<g id="node55" class="node">
<title>VAddr</title>
<path fill="#f3e5f5" stroke="#7b1fa2" d="M1417.5,-36C1417.5,-36 1383.5,-36 1383.5,-36 1377.5,-36 1371.5,-30 1371.5,-24 1371.5,-24 1371.5,-12 1371.5,-12 1371.5,-6 1377.5,0 1383.5,0 1383.5,0 1417.5,0 1417.5,0 1423.5,0 1429.5,-6 1429.5,-12 1429.5,-12 1429.5,-24 1429.5,-24 1429.5,-30 1423.5,-36 1417.5,-36"/>
<text text-anchor="middle" x="1400.5" y="-21.2" font-family="Helvetica,sans-Serif" font-size="11.00">VAddr</text>
<text text-anchor="middle" x="1400.5" y="-9.2" font-family="Helvetica,sans-Serif" font-size="11.00">&lt;alias&gt;</text>
</g>
<!-- Kernel&#45;&gt;VAddr -->
<g id="edge24" class="edge">
<title>Kernel&#45;&gt;VAddr</title>
<path fill="none" stroke="#90a4ae" stroke-width="0.8" d="M1265.82,-449.98C1287.43,-380.82 1368.72,-120.71 1393.37,-41.82"/>
<polygon fill="#90a4ae" stroke="#90a4ae" stroke-width="0.8" points="1395.39,-42.39 1395.18,-36.03 1391.38,-41.13 1395.39,-42.39"/>
</g>
<!-- PageTable -->
<g id="node7" class="node">
<title>PageTable</title>
<path fill="#e3f2fd" stroke="#1976d2" d="M784,-306C784,-306 739,-306 739,-306 733,-306 727,-300 727,-294 727,-294 727,-282 727,-282 727,-276 733,-270 739,-270 739,-270 784,-270 784,-270 790,-270 796,-276 796,-282 796,-282 796,-294 796,-294 796,-300 790,-306 784,-306"/>
<text text-anchor="middle" x="761.5" y="-291.2" font-family="Helvetica,sans-Serif" font-size="11.00">PageTable</text>
<text text-anchor="middle" x="761.5" y="-279.2" font-family="Helvetica,sans-Serif" font-size="11.00">&lt;struct&gt;</text>
</g>
<!-- MemoryManager&#45;&gt;PageTable -->
<g id="edge31" class="edge">
<title>MemoryManager&#45;&gt;PageTable</title>
<path fill="none" stroke="#90a4ae" stroke-width="0.8" d="M983.15,-359.93C930.28,-343.01 850.43,-317.46 802.38,-302.08"/>
<polygon fill="#90a4ae" stroke="#90a4ae" stroke-width="0.8" points="802.75,-300 796.4,-300.17 801.47,-304 802.75,-300"/>
</g>
<!-- PCIBitMap -->
<g id="node16" class="node">
<title>PCIBitMap</title>
<path fill="#e3f2fd" stroke="#1976d2" d="M1322.5,-126C1322.5,-126 1276.5,-126 1276.5,-126 1270.5,-126 1264.5,-120 1264.5,-114 1264.5,-114 1264.5,-102 1264.5,-102 1264.5,-96 1270.5,-90 1276.5,-90 1276.5,-90 1322.5,-90 1322.5,-90 1328.5,-90 1334.5,-96 1334.5,-102 1334.5,-102 1334.5,-114 1334.5,-114 1334.5,-120 1328.5,-126 1322.5,-126"/>
<text text-anchor="middle" x="1299.5" y="-111.2" font-family="Helvetica,sans-Serif" font-size="11.00">PCIBitMap</text>
<text text-anchor="middle" x="1299.5" y="-99.2" font-family="Helvetica,sans-Serif" font-size="11.00">&lt;struct&gt;</text>
</g>
<!-- MemoryManager&#45;&gt;PCIBitMap -->
<g id="edge28" class="edge">
<title>MemoryManager&#45;&gt;PCIBitMap</title>
<path fill="none" stroke="#90a4ae" stroke-width="0.8" d="M1080.14,-359.87C1108.68,-347.43 1145.83,-328.82 1174.5,-306 1215.46,-273.39 1222.45,-260.21 1250.5,-216 1267.88,-188.6 1282.56,-154.02 1291.19,-131.71"/>
<polygon fill="#90a4ae" stroke="#90a4ae" stroke-width="0.8" points="1293.18,-132.39 1293.36,-126.04 1289.26,-130.89 1293.18,-132.39"/>
</g>
<!-- PageEntry -->
<g id="node18" class="node">
<title>PageEntry</title>
<path fill="#e3f2fd" stroke="#1976d2" d="M625.5,-126C625.5,-126 579.5,-126 579.5,-126 573.5,-126 567.5,-120 567.5,-114 567.5,-114 567.5,-102 567.5,-102 567.5,-96 573.5,-90 579.5,-90 579.5,-90 625.5,-90 625.5,-90 631.5,-90 637.5,-96 637.5,-102 637.5,-102 637.5,-114 637.5,-114 637.5,-120 631.5,-126 625.5,-126"/>
<text text-anchor="middle" x="602.5" y="-111.2" font-family="Helvetica,sans-Serif" font-size="11.00">PageEntry</text>
<text text-anchor="middle" x="602.5" y="-99.2" font-family="Helvetica,sans-Serif" font-size="11.00">&lt;struct&gt;</text>
</g>
<!-- MemoryManager&#45;&gt;PageEntry -->
<g id="edge29" class="edge">
<title>MemoryManager&#45;&gt;PageEntry</title>
<path fill="none" stroke="#90a4ae" stroke-width="0.8" d="M982.24,-372.24C916.82,-364.88 804.79,-347.03 717.5,-306 658.45,-278.24 630.2,-274.6 601.5,-216 588.58,-189.62 592,-155 596.51,-132.39"/>
<polygon fill="#90a4ae" stroke="#90a4ae" stroke-width="0.8" points="598.6,-132.65 597.79,-126.35 594.49,-131.78 598.6,-132.65"/>
</g>
<!-- RootTable -->
<g id="node19" class="node">
<title>RootTable</title>
<path fill="#e3f2fd" stroke="#1976d2" d="M1037,-126C1037,-126 992,-126 992,-126 986,-126 980,-120 980,-114 980,-114 980,-102 980,-102 980,-96 986,-90 992,-90 992,-90 1037,-90 1037,-90 1043,-90 1049,-96 1049,-102 1049,-102 1049,-114 1049,-114 1049,-120 1043,-126 1037,-126"/>
<text text-anchor="middle" x="1014.5" y="-111.2" font-family="Helvetica,sans-Serif" font-size="11.00">RootTable</text>
<text text-anchor="middle" x="1014.5" y="-99.2" font-family="Helvetica,sans-Serif" font-size="11.00">&lt;struct&gt;</text>
</g>
<!-- MemoryManager&#45;&gt;RootTable -->
<g id="edge34" class="edge">
<title>MemoryManager&#45;&gt;RootTable</title>
<path fill="none" stroke="#90a4ae" stroke-width="0.8" d="M1035.09,-359.83C1031.27,-313.31 1020.73,-184.84 1016.39,-132.08"/>
<polygon fill="#90a4ae" stroke="#90a4ae" stroke-width="0.8" points="1018.48,-131.84 1015.9,-126.03 1014.3,-132.18 1018.48,-131.84"/>
</g>
<!-- ArrayVec -->
<g id="node24" class="node">
<title>ArrayVec</title>
<path fill="#e3f2fd" stroke="#1976d2" d="M1027,-36C1027,-36 986,-36 986,-36 980,-36 974,-30 974,-24 974,-24 974,-12 974,-12 974,-6 980,0 986,0 986,0 1027,0 1027,0 1033,0 1039,-6 1039,-12 1039,-12 1039,-24 1039,-24 1039,-30 1033,-36 1027,-36"/>
<text text-anchor="middle" x="1006.5" y="-21.2" font-family="Helvetica,sans-Serif" font-size="11.00">ArrayVec</text>
<text text-anchor="middle" x="1006.5" y="-9.2" font-family="Helvetica,sans-Serif" font-size="11.00">&lt;struct&gt;</text>
</g>
<!-- MemoryManager&#45;&gt;ArrayVec -->
<g id="edge26" class="edge">
<title>MemoryManager&#45;&gt;ArrayVec</title>
<path fill="none" stroke="#90a4ae" stroke-width="0.8" d="M1030.38,-359.96C1016.35,-319.84 982.14,-216.04 970.5,-126 968.45,-110.13 966.78,-105.56 970.5,-90 974.6,-72.83 983.58,-55.11 991.54,-41.67"/>
<polygon fill="#90a4ae" stroke="#90a4ae" stroke-width="0.8" points="993.55,-42.41 994.87,-36.19 989.96,-40.23 993.55,-42.41"/>
</g>
<!-- IOid -->
<g id="node32" class="node">
<title>IOid</title>
<path fill="#f3e5f5" stroke="#7b1fa2" d="M1290.5,-36C1290.5,-36 1256.5,-36 1256.5,-36 1250.5,-36 1244.5,-30 1244.5,-24 1244.5,-24 1244.5,-12 1244.5,-12 1244.5,-6 1250.5,0 1256.5,0 1256.5,0 1290.5,0 1290.5,0 1296.5,0 1302.5,-6 1302.5,-12 1302.5,-12 1302.5,-24 1302.5,-24 1302.5,-30 1296.5,-36 1290.5,-36"/>
<text text-anchor="middle" x="1273.5" y="-21.2" font-family="Helvetica,sans-Serif" font-size="11.00">IOid</text>
<text text-anchor="middle" x="1273.5" y="-9.2" font-family="Helvetica,sans-Serif" font-size="11.00">&lt;alias&gt;</text>
</g>
<!-- MemoryManager&#45;&gt;IOid -->
<g id="edge27" class="edge">
<title>MemoryManager&#45;&gt;IOid</title>
<path fill="none" stroke="#90a4ae" stroke-width="0.8" d="M1047.93,-359.73C1086.96,-300.77 1214.97,-107.42 1258.7,-41.36"/>
<polygon fill="#90a4ae" stroke="#90a4ae" stroke-width="0.8" points="1260.62,-42.26 1262.18,-36.09 1257.12,-39.94 1260.62,-42.26"/>
</g>
<!-- MemoryManager&#45;&gt;PagePtr -->
<g id="edge30" class="edge">
<title>MemoryManager&#45;&gt;PagePtr</title>
<path fill="none" stroke="#90a4ae" stroke-width="0.8" d="M982.4,-376.76C903.4,-374.37 753.7,-362.03 641.5,-306 507.61,-239.13 390.53,-96.07 348.78,-41.13"/>
<polygon fill="#90a4ae" stroke="#90a4ae" stroke-width="0.8" points="350.27,-39.61 344.98,-36.09 346.92,-42.14 350.27,-39.61"/>
</g>
<!-- Pcid -->
<g id="node45" class="node">
<title>Pcid</title>
<path fill="#f3e5f5" stroke="#7b1fa2" d="M943.5,-36C943.5,-36 909.5,-36 909.5,-36 903.5,-36 897.5,-30 897.5,-24 897.5,-24 897.5,-12 897.5,-12 897.5,-6 903.5,0 909.5,0 909.5,0 943.5,0 943.5,0 949.5,0 955.5,-6 955.5,-12 955.5,-12 955.5,-24 955.5,-24 955.5,-30 949.5,-36 943.5,-36"/>
<text text-anchor="middle" x="926.5" y="-21.2" font-family="Helvetica,sans-Serif" font-size="11.00">Pcid</text>
<text text-anchor="middle" x="926.5" y="-9.2" font-family="Helvetica,sans-Serif" font-size="11.00">&lt;alias&gt;</text>
</g>
<!-- MemoryManager&#45;&gt;Pcid -->
<g id="edge32" class="edge">
<title>MemoryManager&#45;&gt;Pcid</title>
<path fill="none" stroke="#90a4ae" stroke-width="0.8" d="M1026.24,-359.92C1018.02,-345.8 1006.59,-325.05 998.5,-306 965.65,-228.64 958.92,-208.01 940.5,-126 934.11,-97.55 930.32,-64.14 928.32,-42.32"/>
<polygon fill="#90a4ae" stroke="#90a4ae" stroke-width="0.8" points="930.4,-42.01 927.78,-36.22 926.22,-42.38 930.4,-42.01"/>
</g>
<!-- MemoryManager&#45;&gt;ProcPtr -->
<g id="edge33" class="edge">
<title>MemoryManager&#45;&gt;ProcPtr</title>
<path fill="none" stroke="#90a4ae" stroke-width="0.8" d="M1090.63,-376.1C1387.02,-371.05 2803.08,-344.93 2886.5,-306 3007.97,-249.31 3091.34,-99.43 3119.76,-41.92"/>
<polygon fill="#90a4ae" stroke="#90a4ae" stroke-width="0.8" points="3121.74,-42.64 3122.49,-36.32 3117.97,-40.79 3121.74,-42.64"/>
</g>
<!-- Container -->
<g id="node4" class="node">
<title>Container</title>
<path fill="#e3f2fd" stroke="#1976d2" d="M2865.5,-306C2865.5,-306 2821.5,-306 2821.5,-306 2815.5,-306 2809.5,-300 2809.5,-294 2809.5,-294 2809.5,-282 2809.5,-282 2809.5,-276 2815.5,-270 2821.5,-270 2821.5,-270 2865.5,-270 2865.5,-270 2871.5,-270 2877.5,-276 2877.5,-282 2877.5,-282 2877.5,-294 2877.5,-294 2877.5,-300 2871.5,-306 2865.5,-306"/>
<text text-anchor="middle" x="2843.5" y="-291.2" font-family="Helvetica,sans-Serif" font-size="11.00">Container</text>
<text text-anchor="middle" x="2843.5" y="-279.2" font-family="Helvetica,sans-Serif" font-size="11.00">&lt;struct&gt;</text>
</g>
<!-- ProcessManager&#45;&gt;Container -->
<g id="edge72" class="edge">
<title>ProcessManager&#45;&gt;Container</title>
<path fill="none" stroke="#90a4ae" stroke-width="0.8" d="M2586.09,-362.07C2647.59,-344.61 2748.03,-316.1 2803.51,-300.35"/>
<polygon fill="#90a4ae" stroke="#90a4ae" stroke-width="0.8" points="2804.2,-302.34 2809.39,-298.68 2803.05,-298.3 2804.2,-302.34"/>
</g>
<!-- Endpoint -->
<g id="node5" class="node">
<title>Endpoint</title>
<path fill="#e3f2fd" stroke="#1976d2" d="M2179,-306C2179,-306 2138,-306 2138,-306 2132,-306 2126,-300 2126,-294 2126,-294 2126,-282 2126,-282 2126,-276 2132,-270 2138,-270 2138,-270 2179,-270 2179,-270 2185,-270 2191,-276 2191,-282 2191,-282 2191,-294 2191,-294 2191,-300 2185,-306 2179,-306"/>
<text text-anchor="middle" x="2158.5" y="-291.2" font-family="Helvetica,sans-Serif" font-size="11.00">Endpoint</text>
<text text-anchor="middle" x="2158.5" y="-279.2" font-family="Helvetica,sans-Serif" font-size="11.00">&lt;struct&gt;</text>
</g>
<!-- ProcessManager&#45;&gt;Endpoint -->
<g id="edge75" class="edge">
<title>ProcessManager&#45;&gt;Endpoint</title>
<path fill="none" stroke="#90a4ae" stroke-width="0.8" d="M2480.98,-367.88C2415.76,-356.04 2301.39,-333.58 2205.5,-306 2202.73,-305.2 2199.88,-304.33 2197.03,-303.4"/>
<polygon fill="#90a4ae" stroke="#90a4ae" stroke-width="0.8" points="2197.54,-301.36 2191.19,-301.46 2196.21,-305.34 2197.54,-301.36"/>
</g>
<!-- Process -->
<g id="node8" class="node">
<title>Process</title>
<path fill="#e3f2fd" stroke="#1976d2" d="M2514,-306C2514,-306 2473,-306 2473,-306 2467,-306 2461,-300 2461,-294 2461,-294 2461,-282 2461,-282 2461,-276 2467,-270 2473,-270 2473,-270 2514,-270 2514,-270 2520,-270 2526,-276 2526,-282 2526,-282 2526,-294 2526,-294 2526,-300 2520,-306 2514,-306"/>
<text text-anchor="middle" x="2493.5" y="-291.2" font-family="Helvetica,sans-Serif" font-size="11.00">Process</text>
<text text-anchor="middle" x="2493.5" y="-279.2" font-family="Helvetica,sans-Serif" font-size="11.00">&lt;struct&gt;</text>
</g>
<!-- ProcessManager&#45;&gt;Process -->
<g id="edge78" class="edge">
<title>ProcessManager&#45;&gt;Process</title>
<path fill="none" stroke="#90a4ae" stroke-width="0.8" d="M2525.6,-359.61C2519.37,-345.91 2510.63,-326.68 2503.84,-311.75"/>
<polygon fill="#90a4ae" stroke="#90a4ae" stroke-width="0.8" points="2505.64,-310.64 2501.25,-306.05 2501.82,-312.38 2505.64,-310.64"/>
</g>
<!-- Thread -->
<g id="node9" class="node">
<title>Thread</title>
<path fill="#e3f2fd" stroke="#1976d2" d="M2012,-306C2012,-306 1971,-306 1971,-306 1965,-306 1959,-300 1959,-294 1959,-294 1959,-282 1959,-282 1959,-276 1965,-270 1971,-270 1971,-270 2012,-270 2012,-270 2018,-270 2024,-276 2024,-282 2024,-282 2024,-294 2024,-294 2024,-300 2018,-306 2012,-306"/>
<text text-anchor="middle" x="1991.5" y="-291.2" font-family="Helvetica,sans-Serif" font-size="11.00">Thread</text>
<text text-anchor="middle" x="1991.5" y="-279.2" font-family="Helvetica,sans-Serif" font-size="11.00">&lt;struct&gt;</text>
</g>
<!-- ProcessManager&#45;&gt;Thread -->
<g id="edge79" class="edge">
<title>ProcessManager&#45;&gt;Thread</title>
<path fill="none" stroke="#90a4ae" stroke-width="0.8" d="M2480.54,-368.4C2371.85,-350.75 2125.8,-310.8 2030.36,-295.31"/>
<polygon fill="#90a4ae" stroke="#90a4ae" stroke-width="0.8" points="2030.55,-293.21 2024.29,-294.32 2029.88,-297.36 2030.55,-293.21"/>
</g>
<!-- Cpu -->
<g id="node13" class="node">
<title>Cpu</title>
<path fill="#e3f2fd" stroke="#1976d2" d="M2613,-126C2613,-126 2572,-126 2572,-126 2566,-126 2560,-120 2560,-114 2560,-114 2560,-102 2560,-102 2560,-96 2566,-90 2572,-90 2572,-90 2613,-90 2613,-90 2619,-90 2625,-96 2625,-102 2625,-102 2625,-114 2625,-114 2625,-120 2619,-126 2613,-126"/>
<text text-anchor="middle" x="2592.5" y="-111.2" font-family="Helvetica,sans-Serif" font-size="11.00">Cpu</text>
<text text-anchor="middle" x="2592.5" y="-99.2" font-family="Helvetica,sans-Serif" font-size="11.00">&lt;struct&gt;</text>
</g>
<!-- ProcessManager&#45;&gt;Cpu -->
<g id="edge74" class="edge">
<title>ProcessManager&#45;&gt;Cpu</title>
<path fill="none" stroke="#90a4ae" stroke-width="0.8" d="M2537.28,-359.83C2547.52,-313.31 2575.8,-184.84 2587.42,-132.08"/>
<polygon fill="#90a4ae" stroke="#90a4ae" stroke-width="0.8" points="2589.51,-132.34 2588.75,-126.03 2585.41,-131.44 2589.51,-132.34"/>
</g>
<!-- ContainerPtr -->
<g id="node25" class="node">
<title>ContainerPtr</title>
<path fill="#f3e5f5" stroke="#7b1fa2" d="M2249.5,-36C2249.5,-36 2189.5,-36 2189.5,-36 2183.5,-36 2177.5,-30 2177.5,-24 2177.5,-24 2177.5,-12 2177.5,-12 2177.5,-6 2183.5,0 2189.5,0 2189.5,0 2249.5,0 2249.5,0 2255.5,0 2261.5,-6 2261.5,-12 2261.5,-12 2261.5,-24 2261.5,-24 2261.5,-30 2255.5,-36 2249.5,-36"/>
<text text-anchor="middle" x="2219.5" y="-21.2" font-family="Helvetica,sans-Serif" font-size="11.00">ContainerPtr</text>
<text text-anchor="middle" x="2219.5" y="-9.2" font-family="Helvetica,sans-Serif" font-size="11.00">&lt;alias&gt;</text>
</g>
<!-- ProcessManager&#45;&gt;ContainerPtr -->
<g id="edge73" class="edge">
<title>ProcessManager&#45;&gt;ContainerPtr</title>
<path fill="none" stroke="#90a4ae" stroke-width="0.8" d="M2499.17,-359.88C2449.88,-334.01 2358.33,-281.01 2297.5,-216 2265.78,-182.1 2261.76,-169.09 2244.5,-126 2233.4,-98.28 2226.53,-64.45 2222.86,-42.35"/>
<polygon fill="#90a4ae" stroke="#90a4ae" stroke-width="0.8" points="2224.89,-41.75 2221.87,-36.16 2220.75,-42.42 2224.89,-41.75"/>
</g>
<!-- EndpointPtr -->
<g id="node30" class="node">
<title>EndpointPtr</title>
<path fill="#f3e5f5" stroke="#7b1fa2" d="M2756.5,-36C2756.5,-36 2702.5,-36 2702.5,-36 2696.5,-36 2690.5,-30 2690.5,-24 2690.5,-24 2690.5,-12 2690.5,-12 2690.5,-6 2696.5,0 2702.5,0 2702.5,0 2756.5,0 2756.5,0 2762.5,0 2768.5,-6 2768.5,-12 2768.5,-12 2768.5,-24 2768.5,-24 2768.5,-30 2762.5,-36 2756.5,-36"/>
<text text-anchor="middle" x="2729.5" y="-21.2" font-family="Helvetica,sans-Serif" font-size="11.00">EndpointPtr</text>
<text text-anchor="middle" x="2729.5" y="-9.2" font-family="Helvetica,sans-Serif" font-size="11.00">&lt;alias&gt;</text>
</g>
<!-- ProcessManager&#45;&gt;EndpointPtr -->
<g id="edge76" class="edge">
<title>ProcessManager&#45;&gt;EndpointPtr</title>
<path fill="none" stroke="#90a4ae" stroke-width="0.8" d="M2542.95,-359.73C2575.23,-300.77 2681.09,-107.42 2717.26,-41.36"/>
<polygon fill="#90a4ae" stroke="#90a4ae" stroke-width="0.8" points="2719.1,-42.37 2720.14,-36.09 2715.42,-40.35 2719.1,-42.37"/>
</g>
<!-- ProcessManager&#45;&gt;ProcPtr -->
<g id="edge77" class="edge">
<title>ProcessManager&#45;&gt;ProcPtr</title>
<path fill="none" stroke="#90a4ae" stroke-width="0.8" d="M2586.03,-374.22C2660.66,-368.7 2800.44,-352.55 2909.5,-306 3036.09,-251.97 3098.52,-248.38 3161.5,-126 3175.67,-98.46 3159.98,-63.5 3146.24,-41.18"/>
<polygon fill="#90a4ae" stroke="#90a4ae" stroke-width="0.8" points="3147.98,-40 3142.99,-36.07 3144.44,-42.26 3147.98,-40"/>
</g>
<!-- ThreadPtr -->
<g id="node52" class="node">
<title>ThreadPtr</title>
<path fill="#f3e5f5" stroke="#7b1fa2" d="M2857,-36C2857,-36 2812,-36 2812,-36 2806,-36 2800,-30 2800,-24 2800,-24 2800,-12 2800,-12 2800,-6 2806,0 2812,0 2812,0 2857,0 2857,0 2863,0 2869,-6 2869,-12 2869,-12 2869,-24 2869,-24 2869,-30 2863,-36 2857,-36"/>
<text text-anchor="middle" x="2834.5" y="-21.2" font-family="Helvetica,sans-Serif" font-size="11.00">ThreadPtr</text>
<text text-anchor="middle" x="2834.5" y="-9.2" font-family="Helvetica,sans-Serif" font-size="11.00">&lt;alias&gt;</text>
</g>
<!-- ProcessManager&#45;&gt;ThreadPtr -->
<g id="edge80" class="edge">
<title>ProcessManager&#45;&gt;ThreadPtr</title>
<path fill="none" stroke="#90a4ae" stroke-width="0.8" d="M2586.04,-374.32C2674.96,-368.58 2849.12,-351.64 2886.5,-306 2951.33,-226.84 2881.42,-93.84 2849.09,-41.31"/>
<polygon fill="#90a4ae" stroke="#90a4ae" stroke-width="0.8" points="2850.85,-40.17 2845.89,-36.19 2847.29,-42.39 2850.85,-40.17"/>
</g>
<!-- StaticLinkedList -->
<g id="node12" class="node">
<title>StaticLinkedList</title>
<path fill="#e3f2fd" stroke="#1976d2" d="M2433,-216C2433,-216 2356,-216 2356,-216 2350,-216 2344,-210 2344,-204 2344,-204 2344,-192 2344,-192 2344,-186 2350,-180 2356,-180 2356,-180 2433,-180 2433,-180 2439,-180 2445,-186 2445,-192 2445,-192 2445,-204 2445,-204 2445,-210 2439,-216 2433,-216"/>
<text text-anchor="middle" x="2394.5" y="-201.2" font-family="Helvetica,sans-Serif" font-size="11.00">StaticLinkedList</text>
<text text-anchor="middle" x="2394.5" y="-189.2" font-family="Helvetica,sans-Serif" font-size="11.00">&lt;struct&gt;</text>
</g>
<!-- Container&#45;&gt;StaticLinkedList -->
<g id="edge7" class="edge">
<title>Container&#45;&gt;StaticLinkedList</title>
<path fill="none" stroke="#90a4ae" stroke-width="0.8" d="M2809.38,-280.31C2732.69,-265.28 2545.98,-228.69 2451.41,-210.15"/>
<polygon fill="#90a4ae" stroke="#90a4ae" stroke-width="0.8" points="2451.6,-208.05 2445.31,-208.96 2450.8,-212.17 2451.6,-208.05"/>
</g>
<!-- ArraySet -->
<g id="node23" class="node">
<title>ArraySet</title>
<path fill="#e3f2fd" stroke="#1976d2" d="M3054,-36C3054,-36 3013,-36 3013,-36 3007,-36 3001,-30 3001,-24 3001,-24 3001,-12 3001,-12 3001,-6 3007,0 3013,0 3013,0 3054,0 3054,0 3060,0 3066,-6 3066,-12 3066,-12 3066,-24 3066,-24 3066,-30 3060,-36 3054,-36"/>
<text text-anchor="middle" x="3033.5" y="-21.2" font-family="Helvetica,sans-Serif" font-size="11.00">ArraySet</text>
<text text-anchor="middle" x="3033.5" y="-9.2" font-family="Helvetica,sans-Serif" font-size="11.00">&lt;struct&gt;</text>
</g>
<!-- Container&#45;&gt;ArraySet -->
<g id="edge1" class="edge">
<title>Container&#45;&gt;ArraySet</title>
<path fill="none" stroke="#90a4ae" stroke-width="0.8" d="M2855.67,-269.83C2888.85,-223.03 2980.85,-93.27 3017.82,-41.12"/>
<polygon fill="#90a4ae" stroke="#90a4ae" stroke-width="0.8" points="3019.67,-42.14 3021.43,-36.03 3016.24,-39.71 3019.67,-42.14"/>
</g>
<!-- Container&#45;&gt;ContainerPtr -->
<g id="edge2" class="edge">
<title>Container&#45;&gt;ContainerPtr</title>
<path fill="none" stroke="#90a4ae" stroke-width="0.8" d="M2809.36,-271.34C2735.06,-237.38 2552.96,-154.79 2398.5,-90 2354.31,-71.46 2303.49,-51.43 2267.32,-37.38"/>
<polygon fill="#90a4ae" stroke="#90a4ae" stroke-width="0.8" points="2268,-35.39 2261.64,-35.18 2266.48,-39.31 2268,-35.39"/>
</g>
<!-- Container&#45;&gt;EndpointPtr -->
<g id="edge3" class="edge">
<title>Container&#45;&gt;EndpointPtr</title>
<path fill="none" stroke="#90a4ae" stroke-width="0.8" d="M2841.22,-269.88C2838.01,-248.37 2831.19,-210.59 2819.5,-180 2799.48,-127.63 2764.74,-71.58 2744.78,-41.38"/>
<polygon fill="#90a4ae" stroke="#90a4ae" stroke-width="0.8" points="2746.31,-39.88 2741.24,-36.05 2742.81,-42.21 2746.31,-39.88"/>
</g>
<!-- Container&#45;&gt;ProcPtr -->
<g id="edge4" class="edge">
<title>Container&#45;&gt;ProcPtr</title>
<path fill="none" stroke="#90a4ae" stroke-width="0.8" d="M2862.21,-269.83C2877.83,-255.48 2900.66,-234.45 2920.5,-216 2988.92,-152.37 3069.37,-76.64 3107.81,-40.4"/>
<polygon fill="#90a4ae" stroke="#90a4ae" stroke-width="0.8" points="3109.37,-41.82 3112.29,-36.18 3106.48,-38.77 3109.37,-41.82"/>
</g>
<!-- Quota -->
<g id="node47" class="node">
<title>Quota</title>
<path fill="#e3f2fd" stroke="#1976d2" d="M2940,-36C2940,-36 2899,-36 2899,-36 2893,-36 2887,-30 2887,-24 2887,-24 2887,-12 2887,-12 2887,-6 2893,0 2899,0 2899,0 2940,0 2940,0 2946,0 2952,-6 2952,-12 2952,-12 2952,-24 2952,-24 2952,-30 2946,-36 2940,-36"/>
<text text-anchor="middle" x="2919.5" y="-21.2" font-family="Helvetica,sans-Serif" font-size="11.00">Quota</text>
<text text-anchor="middle" x="2919.5" y="-9.2" font-family="Helvetica,sans-Serif" font-size="11.00">&lt;struct&gt;</text>
</g>
<!-- Container&#45;&gt;Quota -->
<g id="edge5" class="edge">
<title>Container&#45;&gt;Quota</title>
<path fill="none" stroke="#90a4ae" stroke-width="0.8" d="M2851.41,-269.77C2857.72,-255.56 2866.47,-234.76 2872.5,-216 2892.33,-154.29 2907.97,-79.31 2915.18,-42.16"/>
<polygon fill="#90a4ae" stroke="#90a4ae" stroke-width="0.8" points="2917.27,-42.4 2916.34,-36.11 2913.14,-41.6 2917.27,-42.4"/>
</g>
<!-- SLLIndex -->
<g id="node50" class="node">
<title>SLLIndex</title>
<path fill="#f3e5f5" stroke="#7b1fa2" d="M2407,-36C2407,-36 2368,-36 2368,-36 2362,-36 2356,-30 2356,-24 2356,-24 2356,-12 2356,-12 2356,-6 2362,0 2368,0 2368,0 2407,0 2407,0 2413,0 2419,-6 2419,-12 2419,-12 2419,-24 2419,-24 2419,-30 2413,-36 2407,-36"/>
<text text-anchor="middle" x="2387.5" y="-21.2" font-family="Helvetica,sans-Serif" font-size="11.00">SLLIndex</text>
<text text-anchor="middle" x="2387.5" y="-9.2" font-family="Helvetica,sans-Serif" font-size="11.00">&lt;alias&gt;</text>
</g>
<!-- Container&#45;&gt;SLLIndex -->
<g id="edge6" class="edge">
<title>Container&#45;&gt;SLLIndex</title>
<path fill="none" stroke="#90a4ae" stroke-width="0.8" d="M2830.31,-269.93C2799.97,-231.84 2721.15,-139.37 2634.5,-90 2616.14,-79.54 2489.76,-45.7 2425.24,-28.79"/>
<polygon fill="#90a4ae" stroke="#90a4ae" stroke-width="0.8" points="2425.53,-26.7 2419.19,-27.21 2424.46,-30.76 2425.53,-26.7"/>
</g>
<!-- Container&#45;&gt;ThreadPtr -->
<g id="edge8" class="edge">
<title>Container&#45;&gt;ThreadPtr</title>
<path fill="none" stroke="#90a4ae" stroke-width="0.8" d="M2847.84,-269.92C2851.24,-255.63 2855.68,-234.63 2857.5,-216 2862.94,-160.27 2866.24,-145.31 2857.5,-90 2854.88,-73.43 2849.03,-55.45 2843.88,-41.74"/>
<polygon fill="#90a4ae" stroke="#90a4ae" stroke-width="0.8" points="2845.84,-40.98 2841.73,-36.13 2841.92,-42.49 2845.84,-40.98"/>
</g>
<!-- Endpoint&#45;&gt;StaticLinkedList -->
<g id="edge14" class="edge">
<title>Endpoint&#45;&gt;StaticLinkedList</title>
<path fill="none" stroke="#90a4ae" stroke-width="0.8" d="M2191.31,-274.76C2230.55,-260.14 2296.68,-235.48 2342.8,-218.28"/>
<polygon fill="#90a4ae" stroke="#90a4ae" stroke-width="0.8" points="2343.71,-220.18 2348.6,-216.11 2342.25,-216.24 2343.71,-220.18"/>
</g>
<!-- Endpoint&#45;&gt;ContainerPtr -->
<g id="edge11" class="edge">
<title>Endpoint&#45;&gt;ContainerPtr</title>
<path fill="none" stroke="#90a4ae" stroke-width="0.8" d="M2162.41,-269.83C2173,-223.31 2202.24,-94.84 2214.25,-42.08"/>
<polygon fill="#90a4ae" stroke="#90a4ae" stroke-width="0.8" points="2216.34,-42.35 2215.62,-36.03 2212.24,-41.41 2216.34,-42.35"/>
</g>
<!-- EndpointIdx -->
<g id="node29" class="node">
<title>EndpointIdx</title>
<path fill="#f3e5f5" stroke="#7b1fa2" d="M1777,-36C1777,-36 1722,-36 1722,-36 1716,-36 1710,-30 1710,-24 1710,-24 1710,-12 1710,-12 1710,-6 1716,0 1722,0 1722,0 1777,0 1777,0 1783,0 1789,-6 1789,-12 1789,-12 1789,-24 1789,-24 1789,-30 1783,-36 1777,-36"/>
<text text-anchor="middle" x="1749.5" y="-21.2" font-family="Helvetica,sans-Serif" font-size="11.00">EndpointIdx</text>
<text text-anchor="middle" x="1749.5" y="-9.2" font-family="Helvetica,sans-Serif" font-size="11.00">&lt;alias&gt;</text>
</g>
<!-- Endpoint&#45;&gt;EndpointIdx -->
<g id="edge12" class="edge">
<title>Endpoint&#45;&gt;EndpointIdx</title>
<path fill="none" stroke="#90a4ae" stroke-width="0.8" d="M2147.15,-269.99C2120.95,-232.01 2052.33,-139.77 1972.5,-90 1903.79,-47.16 1875.43,-61.27 1798.5,-36 1797.35,-35.62 1796.18,-35.23 1795,-34.84"/>
<polygon fill="#90a4ae" stroke="#90a4ae" stroke-width="0.8" points="1795.4,-32.76 1789.04,-32.84 1794.06,-36.74 1795.4,-32.76"/>
</g>
<!-- EndpointState -->
<g id="node31" class="node">
<title>EndpointState</title>
<path fill="#fff3e0" stroke="#f57c00" d="M2147.5,-36C2147.5,-36 2079.5,-36 2079.5,-36 2073.5,-36 2067.5,-30 2067.5,-24 2067.5,-24 2067.5,-12 2067.5,-12 2067.5,-6 2073.5,0 2079.5,0 2079.5,0 2147.5,0 2147.5,0 2153.5,0 2159.5,-6 2159.5,-12 2159.5,-12 2159.5,-24 2159.5,-24 2159.5,-30 2153.5,-36 2147.5,-36"/>
<text text-anchor="middle" x="2113.5" y="-21.2" font-family="Helvetica,sans-Serif" font-size="11.00">EndpointState</text>
<text text-anchor="middle" x="2113.5" y="-9.2" font-family="Helvetica,sans-Serif" font-size="11.00">&lt;enum&gt;</text>
</g>
<!-- Endpoint&#45;&gt;EndpointState -->
<g id="edge13" class="edge">
<title>Endpoint&#45;&gt;EndpointState</title>
<path fill="none" stroke="#90a4ae" stroke-width="0.8" d="M2155.62,-269.83C2147.81,-223.31 2126.23,-94.84 2117.38,-42.08"/>
<polygon fill="#90a4ae" stroke="#90a4ae" stroke-width="0.8" points="2119.42,-41.6 2116.36,-36.03 2115.28,-42.29 2119.42,-41.6"/>
</g>
<!-- Endpoint&#45;&gt;ThreadPtr -->
<g id="edge15" class="edge">
<title>Endpoint&#45;&gt;ThreadPtr</title>
<path fill="none" stroke="#90a4ae" stroke-width="0.8" d="M2191.11,-284.66C2284.56,-277.56 2551.6,-254.36 2629.5,-216 2715.07,-173.86 2788.26,-83.1 2819.01,-41.12"/>
<polygon fill="#90a4ae" stroke="#90a4ae" stroke-width="0.8" points="2820.89,-42.1 2822.71,-36.01 2817.49,-39.63 2820.89,-42.1"/>
</g>
<!-- PageAllocator&#45;&gt;StaticLinkedList -->
<g id="edge50" class="edge">
<title>PageAllocator&#45;&gt;StaticLinkedList</title>
<path fill="none" stroke="#90a4ae" stroke-width="0.8" d="M380.78,-284.93C452.29,-281.67 595.79,-275.19 717.5,-270 1306.79,-244.89 1454.26,-242.27 2043.5,-216 2147.33,-211.37 2268.41,-205.37 2337.8,-201.88"/>
<polygon fill="#90a4ae" stroke="#90a4ae" stroke-width="0.8" points="2338.05,-203.97 2343.94,-201.57 2337.84,-199.78 2338.05,-203.97"/>
</g>
<!-- Page -->
<g id="node17" class="node">
<title>Page</title>
<path fill="#e3f2fd" stroke="#1976d2" d="M1120,-126C1120,-126 1079,-126 1079,-126 1073,-126 1067,-120 1067,-114 1067,-114 1067,-102 1067,-102 1067,-96 1073,-90 1079,-90 1079,-90 1120,-90 1120,-90 1126,-90 1132,-96 1132,-102 1132,-102 1132,-114 1132,-114 1132,-120 1126,-126 1120,-126"/>
<text text-anchor="middle" x="1099.5" y="-111.2" font-family="Helvetica,sans-Serif" font-size="11.00">Page</text>
<text text-anchor="middle" x="1099.5" y="-99.2" font-family="Helvetica,sans-Serif" font-size="11.00">&lt;struct&gt;</text>
</g>
<!-- PageAllocator&#45;&gt;Page -->
<g id="edge45" class="edge">
<title>PageAllocator&#45;&gt;Page</title>
<path fill="none" stroke="#90a4ae" stroke-width="0.8" d="M380.68,-280.07C495.6,-261.79 807.63,-207.91 1057.5,-126 1058.62,-125.63 1059.76,-125.25 1060.9,-124.85"/>
<polygon fill="#90a4ae" stroke="#90a4ae" stroke-width="0.8" points="1061.7,-126.8 1066.64,-122.79 1060.28,-122.84 1061.7,-126.8"/>
</g>
<!-- PageAllocator&#45;&gt;ContainerPtr -->
<g id="edge44" class="edge">
<title>PageAllocator&#45;&gt;ContainerPtr</title>
<path fill="none" stroke="#90a4ae" stroke-width="0.8" d="M380.71,-285.04C594.6,-275.71 1499.65,-235.39 1624.5,-216 1782.36,-191.49 1821.41,-177.91 1972.5,-126 2047.19,-100.34 2130.9,-61.93 2179.18,-38.79"/>
<polygon fill="#90a4ae" stroke="#90a4ae" stroke-width="0.8" points="2180.1,-40.67 2184.6,-36.18 2178.28,-36.89 2180.1,-40.67"/>
</g>
<!-- PagePerm1g -->
<g id="node40" class="node">
<title>PagePerm1g</title>
<path fill="#f3e5f5" stroke="#7b1fa2" d="M169.5,-36C169.5,-36 111.5,-36 111.5,-36 105.5,-36 99.5,-30 99.5,-24 99.5,-24 99.5,-12 99.5,-12 99.5,-6 105.5,0 111.5,0 111.5,0 169.5,0 169.5,0 175.5,0 181.5,-6 181.5,-12 181.5,-12 181.5,-24 181.5,-24 181.5,-30 175.5,-36 169.5,-36"/>
<text text-anchor="middle" x="140.5" y="-21.2" font-family="Helvetica,sans-Serif" font-size="11.00">PagePerm1g</text>
<text text-anchor="middle" x="140.5" y="-9.2" font-family="Helvetica,sans-Serif" font-size="11.00">&lt;alias&gt;</text>
</g>
<!-- PageAllocator&#45;&gt;PagePerm1g -->
<g id="edge46" class="edge">
<title>PageAllocator&#45;&gt;PagePerm1g</title>
<path fill="none" stroke="#90a4ae" stroke-width="0.8" d="M323.01,-269.83C288.95,-223.03 194.54,-93.27 156.6,-41.12"/>
<polygon fill="#90a4ae" stroke="#90a4ae" stroke-width="0.8" points="158.12,-39.65 152.89,-36.03 154.72,-42.12 158.12,-39.65"/>
</g>
<!-- PagePerm2m -->
<g id="node41" class="node">
<title>PagePerm2m</title>
<path fill="#f3e5f5" stroke="#7b1fa2" d="M273.5,-36C273.5,-36 211.5,-36 211.5,-36 205.5,-36 199.5,-30 199.5,-24 199.5,-24 199.5,-12 199.5,-12 199.5,-6 205.5,0 211.5,0 211.5,0 273.5,0 273.5,0 279.5,0 285.5,-6 285.5,-12 285.5,-12 285.5,-24 285.5,-24 285.5,-30 279.5,-36 273.5,-36"/>
<text text-anchor="middle" x="242.5" y="-21.2" font-family="Helvetica,sans-Serif" font-size="11.00">PagePerm2m</text>
<text text-anchor="middle" x="242.5" y="-9.2" font-family="Helvetica,sans-Serif" font-size="11.00">&lt;alias&gt;</text>
</g>
<!-- PageAllocator&#45;&gt;PagePerm2m -->
<g id="edge47" class="edge">
<title>PageAllocator&#45;&gt;PagePerm2m</title>
<path fill="none" stroke="#90a4ae" stroke-width="0.8" d="M329.54,-269.83C313.37,-223.22 268.64,-94.32 250.4,-41.76"/>
<polygon fill="#90a4ae" stroke="#90a4ae" stroke-width="0.8" points="252.36,-41.01 248.41,-36.03 248.39,-42.39 252.36,-41.01"/>
</g>
<!-- PagePerm4k -->
<g id="node42" class="node">
<title>PagePerm4k</title>
<path fill="#f3e5f5" stroke="#7b1fa2" d="M69,-36C69,-36 12,-36 12,-36 6,-36 0,-30 0,-24 0,-24 0,-12 0,-12 0,-6 6,0 12,0 12,0 69,0 69,0 75,0 81,-6 81,-12 81,-12 81,-24 81,-24 81,-30 75,-36 69,-36"/>
<text text-anchor="middle" x="40.5" y="-21.2" font-family="Helvetica,sans-Serif" font-size="11.00">PagePerm4k</text>
<text text-anchor="middle" x="40.5" y="-9.2" font-family="Helvetica,sans-Serif" font-size="11.00">&lt;alias&gt;</text>
</g>
<!-- PageAllocator&#45;&gt;PagePerm4k -->
<g id="edge48" class="edge">
<title>PageAllocator&#45;&gt;PagePerm4k</title>
<path fill="none" stroke="#90a4ae" stroke-width="0.8" d="M316.02,-269.87C299.78,-255.54 276.05,-234.53 255.5,-216 185.23,-152.63 102.97,-76.79 63.68,-40.46"/>
<polygon fill="#90a4ae" stroke="#90a4ae" stroke-width="0.8" points="64.93,-38.76 59.1,-36.23 62.08,-41.84 64.93,-38.76"/>
</g>
<!-- PageAllocator&#45;&gt;PagePtr -->
<g id="edge49" class="edge">
<title>PageAllocator&#45;&gt;PagePtr</title>
<path fill="none" stroke="#90a4ae" stroke-width="0.8" d="M335.31,-269.83C334.79,-223.31 333.35,-94.84 332.76,-42.08"/>
<polygon fill="#90a4ae" stroke="#90a4ae" stroke-width="0.8" points="334.86,-42.01 332.69,-36.03 330.66,-42.05 334.86,-42.01"/>
</g>
<!-- PageMap -->
<g id="node11" class="node">
<title>PageMap</title>
<path fill="#e3f2fd" stroke="#1976d2" d="M683,-216C683,-216 642,-216 642,-216 636,-216 630,-210 630,-204 630,-204 630,-192 630,-192 630,-186 636,-180 642,-180 642,-180 683,-180 683,-180 689,-180 695,-186 695,-192 695,-192 695,-204 695,-204 695,-210 689,-216 683,-216"/>
<text text-anchor="middle" x="662.5" y="-201.2" font-family="Helvetica,sans-Serif" font-size="11.00">PageMap</text>
<text text-anchor="middle" x="662.5" y="-189.2" font-family="Helvetica,sans-Serif" font-size="11.00">&lt;struct&gt;</text>
</g>
<!-- PageTable&#45;&gt;PageMap -->
<g id="edge60" class="edge">
<title>PageTable&#45;&gt;PageMap</title>
<path fill="none" stroke="#90a4ae" stroke-width="0.8" d="M741.94,-269.61C725.97,-255.42 703.35,-235.31 686.32,-220.18"/>
<polygon fill="#90a4ae" stroke="#90a4ae" stroke-width="0.8" points="687.56,-218.47 681.68,-216.05 684.77,-221.61 687.56,-218.47"/>
</g>
<!-- MapEntry -->
<g id="node14" class="node">
<title>MapEntry</title>
<path fill="#e3f2fd" stroke="#1976d2" d="M720,-126C720,-126 677,-126 677,-126 671,-126 665,-120 665,-114 665,-114 665,-102 665,-102 665,-96 671,-90 677,-90 677,-90 720,-90 720,-90 726,-90 732,-96 732,-102 732,-102 732,-114 732,-114 732,-120 726,-126 720,-126"/>
<text text-anchor="middle" x="698.5" y="-111.2" font-family="Helvetica,sans-Serif" font-size="11.00">MapEntry</text>
<text text-anchor="middle" x="698.5" y="-99.2" font-family="Helvetica,sans-Serif" font-size="11.00">&lt;struct&gt;</text>
</g>
<!-- PageTable&#45;&gt;MapEntry -->
<g id="edge58" class="edge">
<title>PageTable&#45;&gt;MapEntry</title>
<path fill="none" stroke="#90a4ae" stroke-width="0.8" d="M755.46,-269.93C744.08,-237.77 719.44,-168.17 706.62,-131.95"/>
<polygon fill="#90a4ae" stroke="#90a4ae" stroke-width="0.8" points="708.5,-130.97 704.52,-126.02 704.54,-132.37 708.5,-130.97"/>
</g>
<!-- PageTable&#45;&gt;PageEntry -->
<g id="edge59" class="edge">
<title>PageTable&#45;&gt;PageEntry</title>
<path fill="none" stroke="#90a4ae" stroke-width="0.8" d="M726.94,-279.16C694.19,-269.85 646.29,-250.96 620.5,-216 602.51,-191.61 600.02,-155.62 600.66,-132.24"/>
<polygon fill="#90a4ae" stroke="#90a4ae" stroke-width="0.8" points="602.77,-132.08 600.91,-126 598.57,-131.91 602.77,-132.08"/>
</g>
<!-- PageTable&#45;&gt;IOid -->
<g id="edge54" class="edge">
<title>PageTable&#45;&gt;IOid</title>
<path fill="none" stroke="#90a4ae" stroke-width="0.8" d="M796.01,-276.04C864.55,-253.5 1021.5,-197.93 1140.5,-126 1162.12,-112.93 1164.85,-105.88 1184.5,-90 1205.44,-73.08 1229.29,-54.07 1247.03,-39.98"/>
<polygon fill="#90a4ae" stroke="#90a4ae" stroke-width="0.8" points="1248.47,-41.52 1251.86,-36.14 1245.85,-38.23 1248.47,-41.52"/>
</g>
<!-- L2Index -->
<g id="node34" class="node">
<title>L2Index</title>
<path fill="#f3e5f5" stroke="#7b1fa2" d="M791.5,-36C791.5,-36 757.5,-36 757.5,-36 751.5,-36 745.5,-30 745.5,-24 745.5,-24 745.5,-12 745.5,-12 745.5,-6 751.5,0 757.5,0 757.5,0 791.5,0 791.5,0 797.5,0 803.5,-6 803.5,-12 803.5,-12 803.5,-24 803.5,-24 803.5,-30 797.5,-36 791.5,-36"/>
<text text-anchor="middle" x="774.5" y="-21.2" font-family="Helvetica,sans-Serif" font-size="11.00">L2Index</text>
<text text-anchor="middle" x="774.5" y="-9.2" font-family="Helvetica,sans-Serif" font-size="11.00">&lt;alias&gt;</text>
</g>
<!-- PageTable&#45;&gt;L2Index -->
<g id="edge55" class="edge">
<title>PageTable&#45;&gt;L2Index</title>
<path fill="none" stroke="#90a4ae" stroke-width="0.8" d="M762.33,-269.83C764.59,-223.31 770.82,-94.84 773.38,-42.08"/>
<polygon fill="#90a4ae" stroke="#90a4ae" stroke-width="0.8" points="775.48,-42.12 773.67,-36.03 771.29,-41.92 775.48,-42.12"/>
</g>
<!-- L3Index -->
<g id="node35" class="node">
<title>L3Index</title>
<path fill="#f3e5f5" stroke="#7b1fa2" d="M867.5,-36C867.5,-36 833.5,-36 833.5,-36 827.5,-36 821.5,-30 821.5,-24 821.5,-24 821.5,-12 821.5,-12 821.5,-6 827.5,0 833.5,0 833.5,0 867.5,0 867.5,0 873.5,0 879.5,-6 879.5,-12 879.5,-12 879.5,-24 879.5,-24 879.5,-30 873.5,-36 867.5,-36"/>
<text text-anchor="middle" x="850.5" y="-21.2" font-family="Helvetica,sans-Serif" font-size="11.00">L3Index</text>
<text text-anchor="middle" x="850.5" y="-9.2" font-family="Helvetica,sans-Serif" font-size="11.00">&lt;alias&gt;</text>
</g>
<!-- PageTable&#45;&gt;L3Index -->
<g id="edge56" class="edge">
<title>PageTable&#45;&gt;L3Index</title>
<path fill="none" stroke="#90a4ae" stroke-width="0.8" d="M766.56,-269.76C776.72,-235.37 800.63,-155.88 823.5,-90 829.14,-73.76 836.04,-55.64 841.45,-41.78"/>
<polygon fill="#90a4ae" stroke="#90a4ae" stroke-width="0.8" points="843.44,-42.47 843.67,-36.11 839.52,-40.93 843.44,-42.47"/>
</g>
<!-- L4Index -->
<g id="node36" class="node">
<title>L4Index</title>
<path fill="#f3e5f5" stroke="#7b1fa2" d="M425.5,-36C425.5,-36 391.5,-36 391.5,-36 385.5,-36 379.5,-30 379.5,-24 379.5,-24 379.5,-12 379.5,-12 379.5,-6 385.5,0 391.5,0 391.5,0 425.5,0 425.5,0 431.5,0 437.5,-6 437.5,-12 437.5,-12 437.5,-24 437.5,-24 437.5,-30 431.5,-36 425.5,-36"/>
<text text-anchor="middle" x="408.5" y="-21.2" font-family="Helvetica,sans-Serif" font-size="11.00">L4Index</text>
<text text-anchor="middle" x="408.5" y="-9.2" font-family="Helvetica,sans-Serif" font-size="11.00">&lt;alias&gt;</text>
</g>
<!-- PageTable&#45;&gt;L4Index -->
<g id="edge57" class="edge">
<title>PageTable&#45;&gt;L4Index</title>
<path fill="none" stroke="#90a4ae" stroke-width="0.8" d="M726.75,-280.35C685.53,-271.17 616.13,-251.58 566.5,-216 498.75,-167.43 444.47,-82.32 421.04,-41.76"/>
<polygon fill="#90a4ae" stroke="#90a4ae" stroke-width="0.8" points="422.61,-40.27 417.8,-36.1 418.96,-42.36 422.61,-40.27"/>
</g>
<!-- PageMapPtr -->
<g id="node39" class="node">
<title>PageMapPtr</title>
<path fill="#f3e5f5" stroke="#7b1fa2" d="M523.5,-36C523.5,-36 467.5,-36 467.5,-36 461.5,-36 455.5,-30 455.5,-24 455.5,-24 455.5,-12 455.5,-12 455.5,-6 461.5,0 467.5,0 467.5,0 523.5,0 523.5,0 529.5,0 535.5,-6 535.5,-12 535.5,-12 535.5,-24 535.5,-24 535.5,-30 529.5,-36 523.5,-36"/>
<text text-anchor="middle" x="495.5" y="-21.2" font-family="Helvetica,sans-Serif" font-size="11.00">PageMapPtr</text>
<text text-anchor="middle" x="495.5" y="-9.2" font-family="Helvetica,sans-Serif" font-size="11.00">&lt;alias&gt;</text>
</g>
<!-- PageTable&#45;&gt;PageMapPtr -->
<g id="edge61" class="edge">
<title>PageTable&#45;&gt;PageMapPtr</title>
<path fill="none" stroke="#90a4ae" stroke-width="0.8" d="M726.9,-278.76C691.75,-268.89 637.5,-249.36 601.5,-216 547.58,-166.03 515.45,-82.26 502.36,-41.98"/>
<polygon fill="#90a4ae" stroke="#90a4ae" stroke-width="0.8" points="504.32,-41.21 500.49,-36.14 500.32,-42.49 504.32,-41.21"/>
</g>
<!-- PageTable&#45;&gt;Pcid -->
<g id="edge62" class="edge">
<title>PageTable&#45;&gt;Pcid</title>
<path fill="none" stroke="#90a4ae" stroke-width="0.8" d="M772.03,-269.73C780.58,-255.49 792.76,-234.68 802.5,-216 831.1,-161.18 827.12,-141.39 861.5,-90 873.61,-71.9 890.22,-53.84 903.63,-40.46"/>
<polygon fill="#90a4ae" stroke="#90a4ae" stroke-width="0.8" points="905.24,-41.82 908.04,-36.11 902.29,-38.83 905.24,-41.82"/>
</g>
<!-- PageTable&#45;&gt;VAddr -->
<g id="edge63" class="edge">
<title>PageTable&#45;&gt;VAddr</title>
<path fill="none" stroke="#90a4ae" stroke-width="0.8" d="M796.18,-279.47C845.13,-268.33 936.82,-245.54 1011.5,-216 1124.99,-171.1 1146.46,-144.84 1255.5,-90 1292.94,-71.17 1336.12,-50.11 1365.55,-35.85"/>
<polygon fill="#90a4ae" stroke="#90a4ae" stroke-width="0.8" points="1366.76,-37.6 1371.25,-33.1 1364.93,-33.82 1366.76,-37.6"/>
</g>
<!-- Process&#45;&gt;StaticLinkedList -->
<g id="edge70" class="edge">
<title>Process&#45;&gt;StaticLinkedList</title>
<path fill="none" stroke="#90a4ae" stroke-width="0.8" d="M2473.94,-269.61C2457.97,-255.42 2435.35,-235.31 2418.32,-220.18"/>
<polygon fill="#90a4ae" stroke="#90a4ae" stroke-width="0.8" points="2419.56,-218.47 2413.68,-216.05 2416.77,-221.61 2419.56,-218.47"/>
</g>
<!-- Process&#45;&gt;ContainerPtr -->
<g id="edge64" class="edge">
<title>Process&#45;&gt;ContainerPtr</title>
<path fill="none" stroke="#90a4ae" stroke-width="0.8" d="M2460.87,-278.74C2426.41,-268.67 2372.12,-248.81 2335.5,-216 2279.66,-165.98 2243.07,-82.52 2227.72,-42.2"/>
<polygon fill="#90a4ae" stroke="#90a4ae" stroke-width="0.8" points="2229.51,-40.99 2225.44,-36.11 2225.58,-42.47 2229.51,-40.99"/>
</g>
<!-- DemandPagingMode -->
<g id="node27" class="node">
<title>DemandPagingMode</title>
<path fill="#fff3e0" stroke="#f57c00" d="M2582.5,-36C2582.5,-36 2480.5,-36 2480.5,-36 2474.5,-36 2468.5,-30 2468.5,-24 2468.5,-24 2468.5,-12 2468.5,-12 2468.5,-6 2474.5,0 2480.5,0 2480.5,0 2582.5,0 2582.5,0 2588.5,0 2594.5,-6 2594.5,-12 2594.5,-12 2594.5,-24 2594.5,-24 2594.5,-30 2588.5,-36 2582.5,-36"/>
<text text-anchor="middle" x="2531.5" y="-21.2" font-family="Helvetica,sans-Serif" font-size="11.00">DemandPagingMode</text>
<text text-anchor="middle" x="2531.5" y="-9.2" font-family="Helvetica,sans-Serif" font-size="11.00">&lt;enum&gt;</text>
</g>
<!-- Process&#45;&gt;DemandPagingMode -->
<g id="edge65" class="edge">
<title>Process&#45;&gt;DemandPagingMode</title>
<path fill="none" stroke="#90a4ae" stroke-width="0.8" d="M2497.25,-269.85C2500.3,-255.51 2504.56,-234.49 2507.5,-216 2517.46,-153.44 2525.5,-79.12 2529.23,-42.21"/>
<polygon fill="#90a4ae" stroke="#90a4ae" stroke-width="0.8" points="2531.33,-42.37 2529.84,-36.19 2527.15,-41.95 2531.33,-42.37"/>
</g>
<!-- Process&#45;&gt;IOid -->
<g id="edge66" class="edge">
<title>Process&#45;&gt;IOid</title>
<path fill="none" stroke="#90a4ae" stroke-width="0.8" d="M2460.87,-285.13C2297.34,-275.69 1573.02,-233.04 1528.5,-216 1476.26,-196 1350.05,-87.05 1297.3,-40.31"/>
<polygon fill="#90a4ae" stroke="#90a4ae" stroke-width="0.8" points="1298.61,-38.66 1292.72,-36.25 1295.82,-41.81 1298.61,-38.66"/>
</g>
<!-- Process&#45;&gt;Pcid -->
<g id="edge67" class="edge">
<title>Process&#45;&gt;Pcid</title>
<path fill="none" stroke="#90a4ae" stroke-width="0.8" d="M2460.86,-284.96C2296.99,-274.67 1568.05,-228.54 1467.5,-216 1244.75,-188.21 1145.06,-267.14 970.5,-126 944.73,-105.16 933.9,-66.73 929.46,-42.04"/>
<polygon fill="#90a4ae" stroke="#90a4ae" stroke-width="0.8" points="931.52,-41.65 928.46,-36.08 927.38,-42.35 931.52,-41.65"/>
</g>
<!-- Process&#45;&gt;ProcPtr -->
<g id="edge68" class="edge">
<title>Process&#45;&gt;ProcPtr</title>
<path fill="none" stroke="#90a4ae" stroke-width="0.8" d="M2526.31,-286.44C2622.87,-284.15 2903.5,-272.66 2971.5,-216 3016.96,-178.12 2977.51,-136.19 3014.5,-90 3035.77,-63.44 3069.85,-44.29 3095.58,-32.61"/>
<polygon fill="#90a4ae" stroke="#90a4ae" stroke-width="0.8" points="3096.63,-34.45 3101.26,-30.09 3094.93,-30.61 3096.63,-34.45"/>
</g>
<!-- Process&#45;&gt;SLLIndex -->
<g id="edge69" class="edge">
<title>Process&#45;&gt;SLLIndex</title>
<path fill="none" stroke="#90a4ae" stroke-width="0.8" d="M2487.52,-269.86C2480.06,-248.66 2466.79,-211.5 2454.5,-180 2435.21,-130.55 2410.92,-73.33 2397.52,-42.16"/>
<polygon fill="#90a4ae" stroke="#90a4ae" stroke-width="0.8" points="2399.3,-40.97 2394.99,-36.29 2395.44,-42.63 2399.3,-40.97"/>
</g>
<!-- Process&#45;&gt;ThreadPtr -->
<g id="edge71" class="edge">
<title>Process&#45;&gt;ThreadPtr</title>
<path fill="none" stroke="#90a4ae" stroke-width="0.8" d="M2526.3,-286.14C2578.3,-283.1 2680.23,-270.1 2743.5,-216 2797.97,-169.43 2821.74,-83.29 2830.35,-42.1"/>
<polygon fill="#90a4ae" stroke="#90a4ae" stroke-width="0.8" points="2832.43,-42.42 2831.56,-36.13 2828.31,-41.59 2832.43,-42.42"/>
</g>
<!-- IPCPayLoad -->
<g id="node10" class="node">
<title>IPCPayLoad</title>
<path fill="#fff3e0" stroke="#f57c00" d="M1603.5,-216C1603.5,-216 1549.5,-216 1549.5,-216 1543.5,-216 1537.5,-210 1537.5,-204 1537.5,-204 1537.5,-192 1537.5,-192 1537.5,-186 1543.5,-180 1549.5,-180 1549.5,-180 1603.5,-180 1603.5,-180 1609.5,-180 1615.5,-186 1615.5,-192 1615.5,-192 1615.5,-204 1615.5,-204 1615.5,-210 1609.5,-216 1603.5,-216"/>
<text text-anchor="middle" x="1576.5" y="-201.2" font-family="Helvetica,sans-Serif" font-size="11.00">IPCPayLoad</text>
<text text-anchor="middle" x="1576.5" y="-189.2" font-family="Helvetica,sans-Serif" font-size="11.00">&lt;enum&gt;</text>
</g>
<!-- Thread&#45;&gt;IPCPayLoad -->
<g id="edge92" class="edge">
<title>Thread&#45;&gt;IPCPayLoad</title>
<path fill="none" stroke="#90a4ae" stroke-width="0.8" d="M1958.94,-280.09C1885.32,-264.49 1705.96,-226.45 1621.67,-208.58"/>
<polygon fill="#90a4ae" stroke="#90a4ae" stroke-width="0.8" points="1622.08,-206.52 1615.77,-207.33 1621.2,-210.63 1622.08,-206.52"/>
</g>
<!-- TrapFrameOption -->
<g id="node21" class="node">
<title>TrapFrameOption</title>
<path fill="#e3f2fd" stroke="#1976d2" d="M1951.5,-126C1951.5,-126 1867.5,-126 1867.5,-126 1861.5,-126 1855.5,-120 1855.5,-114 1855.5,-114 1855.5,-102 1855.5,-102 1855.5,-96 1861.5,-90 1867.5,-90 1867.5,-90 1951.5,-90 1951.5,-90 1957.5,-90 1963.5,-96 1963.5,-102 1963.5,-102 1963.5,-114 1963.5,-114 1963.5,-120 1957.5,-126 1951.5,-126"/>
<text text-anchor="middle" x="1909.5" y="-111.2" font-family="Helvetica,sans-Serif" font-size="11.00">TrapFrameOption</text>
<text text-anchor="middle" x="1909.5" y="-99.2" font-family="Helvetica,sans-Serif" font-size="11.00">&lt;struct&gt;</text>
</g>
<!-- Thread&#45;&gt;TrapFrameOption -->
<g id="edge97" class="edge">
<title>Thread&#45;&gt;TrapFrameOption</title>
<path fill="none" stroke="#90a4ae" stroke-width="0.8" d="M1983.64,-269.93C1968.76,-237.64 1936.49,-167.6 1919.87,-131.51"/>
<polygon fill="#90a4ae" stroke="#90a4ae" stroke-width="0.8" points="1921.76,-130.59 1917.34,-126.02 1917.94,-132.34 1921.76,-130.59"/>
</g>
<!-- Thread&#45;&gt;ContainerPtr -->
<g id="edge88" class="edge">
<title>Thread&#45;&gt;ContainerPtr</title>
<path fill="none" stroke="#90a4ae" stroke-width="0.8" d="M2006.11,-269.83C2046,-222.93 2156.76,-92.75 2200.95,-40.81"/>
<polygon fill="#90a4ae" stroke="#90a4ae" stroke-width="0.8" points="2202.72,-41.96 2205.01,-36.03 2199.53,-39.24 2202.72,-41.96"/>
</g>
<!-- CpuId -->
<g id="node26" class="node">
<title>CpuId</title>
<path fill="#f3e5f5" stroke="#7b1fa2" d="M2037.5,-36C2037.5,-36 2003.5,-36 2003.5,-36 1997.5,-36 1991.5,-30 1991.5,-24 1991.5,-24 1991.5,-12 1991.5,-12 1991.5,-6 1997.5,0 2003.5,0 2003.5,0 2037.5,0 2037.5,0 2043.5,0 2049.5,-6 2049.5,-12 2049.5,-12 2049.5,-24 2049.5,-24 2049.5,-30 2043.5,-36 2037.5,-36"/>
<text text-anchor="middle" x="2020.5" y="-21.2" font-family="Helvetica,sans-Serif" font-size="11.00">CpuId</text>
<text text-anchor="middle" x="2020.5" y="-9.2" font-family="Helvetica,sans-Serif" font-size="11.00">&lt;alias&gt;</text>
</g>
<!-- Thread&#45;&gt;CpuId -->
<g id="edge89" class="edge">
<title>Thread&#45;&gt;CpuId</title>
<path fill="none" stroke="#90a4ae" stroke-width="0.8" d="M1993.36,-269.83C1998.39,-223.31 2012.29,-94.84 2018,-42.08"/>
<polygon fill="#90a4ae" stroke="#90a4ae" stroke-width="0.8" points="2020.1,-42.22 2018.66,-36.03 2015.92,-41.77 2020.1,-42.22"/>
</g>
<!-- Thread&#45;&gt;EndpointIdx -->
<g id="edge90" class="edge">
<title>Thread&#45;&gt;EndpointIdx</title>
<path fill="none" stroke="#90a4ae" stroke-width="0.8" d="M1958.89,-272.81C1933.25,-260.49 1897.76,-240.75 1872.5,-216 1818.15,-162.74 1777.09,-80.95 1759.26,-41.63"/>
<polygon fill="#90a4ae" stroke="#90a4ae" stroke-width="0.8" points="1761.17,-40.76 1756.8,-36.15 1757.34,-42.48 1761.17,-40.76"/>
</g>
<!-- Thread&#45;&gt;EndpointPtr -->
<g id="edge91" class="edge">
<title>Thread&#45;&gt;EndpointPtr</title>
<path fill="none" stroke="#90a4ae" stroke-width="0.8" d="M2024.19,-282.59C2122.86,-269.18 2413.43,-229.06 2454.5,-216 2539.74,-188.89 2563.52,-180.43 2634.5,-126 2666.76,-101.27 2696.59,-64.44 2713.92,-41.08"/>
<polygon fill="#90a4ae" stroke="#90a4ae" stroke-width="0.8" points="2715.77,-42.1 2717.63,-36.02 2712.39,-39.62 2715.77,-42.1"/>
</g>
<!-- Thread&#45;&gt;ProcPtr -->
<g id="edge93" class="edge">
<title>Thread&#45;&gt;ProcPtr</title>
<path fill="none" stroke="#90a4ae" stroke-width="0.8" d="M2024.24,-282.58C2138.81,-267.12 2514.98,-216.34 2516.5,-216 2741.68,-165.07 3002.51,-68.36 3095.43,-32.67"/>
<polygon fill="#90a4ae" stroke="#90a4ae" stroke-width="0.8" points="3096.46,-34.53 3101.3,-30.41 3094.95,-30.61 3096.46,-34.53"/>
</g>
<!-- RetValueType -->
<g id="node49" class="node">
<title>RetValueType</title>
<path fill="#fff3e0" stroke="#f57c00" d="M1680,-36C1680,-36 1615,-36 1615,-36 1609,-36 1603,-30 1603,-24 1603,-24 1603,-12 1603,-12 1603,-6 1609,0 1615,0 1615,0 1680,0 1680,0 1686,0 1692,-6 1692,-12 1692,-12 1692,-24 1692,-24 1692,-30 1686,-36 1680,-36"/>
<text text-anchor="middle" x="1647.5" y="-21.2" font-family="Helvetica,sans-Serif" font-size="11.00">RetValueType</text>
<text text-anchor="middle" x="1647.5" y="-9.2" font-family="Helvetica,sans-Serif" font-size="11.00">&lt;enum&gt;</text>
</g>
<!-- Thread&#45;&gt;RetValueType -->
<g id="edge94" class="edge">
<title>Thread&#45;&gt;RetValueType</title>
<path fill="none" stroke="#90a4ae" stroke-width="0.8" d="M1958.97,-276.05C1926.46,-264.2 1875.9,-243.28 1837.5,-216 1763.91,-163.72 1694.91,-80.55 1664.21,-41.12"/>
<polygon fill="#90a4ae" stroke="#90a4ae" stroke-width="0.8" points="1665.65,-39.54 1660.31,-36.08 1662.33,-42.11 1665.65,-39.54"/>
</g>
<!-- Thread&#45;&gt;SLLIndex -->
<g id="edge95" class="edge">
<title>Thread&#45;&gt;SLLIndex</title>
<path fill="none" stroke="#90a4ae" stroke-width="0.8" d="M2016.87,-269.83C2086.72,-222.56 2281.64,-90.64 2357.11,-39.56"/>
<polygon fill="#90a4ae" stroke="#90a4ae" stroke-width="0.8" points="2358.55,-41.13 2362.34,-36.03 2356.19,-37.65 2358.55,-41.13"/>
</g>
<!-- ThreadState -->
<g id="node53" class="node">
<title>ThreadState</title>
<path fill="#fff3e0" stroke="#f57c00" d="M1877.5,-36C1877.5,-36 1819.5,-36 1819.5,-36 1813.5,-36 1807.5,-30 1807.5,-24 1807.5,-24 1807.5,-12 1807.5,-12 1807.5,-6 1813.5,0 1819.5,0 1819.5,0 1877.5,0 1877.5,0 1883.5,0 1889.5,-6 1889.5,-12 1889.5,-12 1889.5,-24 1889.5,-24 1889.5,-30 1883.5,-36 1877.5,-36"/>
<text text-anchor="middle" x="1848.5" y="-21.2" font-family="Helvetica,sans-Serif" font-size="11.00">ThreadState</text>
<text text-anchor="middle" x="1848.5" y="-9.2" font-family="Helvetica,sans-Serif" font-size="11.00">&lt;enum&gt;</text>
</g>
<!-- Thread&#45;&gt;ThreadState -->
<g id="edge96" class="edge">
<title>Thread&#45;&gt;ThreadState</title>
<path fill="none" stroke="#90a4ae" stroke-width="0.8" d="M1967.45,-269.79C1932.94,-243.43 1870.84,-189.39 1846.5,-126 1836.03,-98.73 1839.17,-64.6 1843.16,-42.32"/>
<polygon fill="#90a4ae" stroke="#90a4ae" stroke-width="0.8" points="1845.23,-42.65 1844.3,-36.36 1841.11,-41.86 1845.23,-42.65"/>
</g>
<!-- VaRange4K -->
<g id="node22" class="node">
<title>VaRange4K</title>
<path fill="#e3f2fd" stroke="#1976d2" d="M1532,-126C1532,-126 1479,-126 1479,-126 1473,-126 1467,-120 1467,-114 1467,-114 1467,-102 1467,-102 1467,-96 1473,-90 1479,-90 1479,-90 1532,-90 1532,-90 1538,-90 1544,-96 1544,-102 1544,-102 1544,-114 1544,-114 1544,-120 1538,-126 1532,-126"/>
<text text-anchor="middle" x="1505.5" y="-111.2" font-family="Helvetica,sans-Serif" font-size="11.00">VaRange4K</text>
<text text-anchor="middle" x="1505.5" y="-99.2" font-family="Helvetica,sans-Serif" font-size="11.00">&lt;struct&gt;</text>
</g>
<!-- IPCPayLoad&#45;&gt;VaRange4K -->
<g id="edge18" class="edge">
<title>IPCPayLoad&#45;&gt;VaRange4K</title>
<path fill="none" stroke="#90a4ae" stroke-width="0.8" d="M1562.47,-179.61C1551.22,-165.66 1535.35,-145.99 1523.22,-130.96"/>
<polygon fill="#90a4ae" stroke="#90a4ae" stroke-width="0.8" points="1524.66,-129.4 1519.26,-126.05 1521.39,-132.04 1524.66,-129.4"/>
</g>
<!-- IPCPayLoad&#45;&gt;EndpointIdx -->
<g id="edge16" class="edge">
<title>IPCPayLoad&#45;&gt;EndpointIdx</title>
<path fill="none" stroke="#90a4ae" stroke-width="0.8" d="M1615.61,-180.34C1640.61,-168.17 1672.37,-149.66 1694.5,-126 1717.42,-101.49 1733.23,-65.61 1741.83,-42.28"/>
<polygon fill="#90a4ae" stroke="#90a4ae" stroke-width="0.8" points="1743.91,-42.7 1743.96,-36.34 1739.96,-41.28 1743.91,-42.7"/>
</g>
<!-- IPCPayLoad&#45;&gt;VAddr -->
<g id="edge17" class="edge">
<title>IPCPayLoad&#45;&gt;VAddr</title>
<path fill="none" stroke="#90a4ae" stroke-width="0.8" d="M1537.28,-180.05C1512.4,-167.8 1480.8,-149.33 1458.5,-126 1434.94,-101.36 1418.04,-65.28 1408.76,-41.97"/>
<polygon fill="#90a4ae" stroke="#90a4ae" stroke-width="0.8" points="1410.7,-41.16 1406.57,-36.33 1406.79,-42.68 1410.7,-41.16"/>
</g>
<!-- PageMap&#45;&gt;PageEntry -->
<g id="edge53" class="edge">
<title>PageMap&#45;&gt;PageEntry</title>
<path fill="none" stroke="#90a4ae" stroke-width="0.8" d="M650.65,-179.61C641.22,-165.78 627.96,-146.34 617.74,-131.35"/>
<polygon fill="#90a4ae" stroke="#90a4ae" stroke-width="0.8" points="619.24,-129.82 614.13,-126.05 615.77,-132.19 619.24,-129.82"/>
</g>
<!-- Node -->
<g id="node15" class="node">
<title>Node</title>
<path fill="#e3f2fd" stroke="#1976d2" d="M2377,-126C2377,-126 2336,-126 2336,-126 2330,-126 2324,-120 2324,-114 2324,-114 2324,-102 2324,-102 2324,-96 2330,-90 2336,-90 2336,-90 2377,-90 2377,-90 2383,-90 2389,-96 2389,-102 2389,-102 2389,-114 2389,-114 2389,-120 2383,-126 2377,-126"/>
<text text-anchor="middle" x="2356.5" y="-111.2" font-family="Helvetica,sans-Serif" font-size="11.00">Node</text>
<text text-anchor="middle" x="2356.5" y="-99.2" font-family="Helvetica,sans-Serif" font-size="11.00">&lt;struct&gt;</text>
</g>
<!-- StaticLinkedList&#45;&gt;Node -->
<g id="edge83" class="edge">
<title>StaticLinkedList&#45;&gt;Node</title>
<path fill="none" stroke="#90a4ae" stroke-width="0.8" d="M2386.99,-179.61C2381.07,-165.91 2372.77,-146.68 2366.32,-131.75"/>
<polygon fill="#90a4ae" stroke="#90a4ae" stroke-width="0.8" points="2368.17,-130.73 2363.86,-126.05 2364.31,-132.39 2368.17,-130.73"/>
</g>
<!-- StaticLinkedList&#45;&gt;SLLIndex -->
<g id="edge84" class="edge">
<title>StaticLinkedList&#45;&gt;SLLIndex</title>
<path fill="none" stroke="#90a4ae" stroke-width="0.8" d="M2396.34,-179.93C2398.34,-158.79 2400.94,-121.69 2398.5,-90 2397.26,-73.93 2394.47,-56 2392.01,-42.17"/>
<polygon fill="#90a4ae" stroke="#90a4ae" stroke-width="0.8" points="2394.05,-41.66 2390.91,-36.13 2389.92,-42.41 2394.05,-41.66"/>
</g>
<!-- Cpu&#45;&gt;ContainerPtr -->
<g id="edge9" class="edge">
<title>Cpu&#45;&gt;ContainerPtr</title>
<path fill="none" stroke="#90a4ae" stroke-width="0.8" d="M2559.73,-99.27C2493.71,-83.69 2344.5,-48.49 2267.49,-30.32"/>
<polygon fill="#90a4ae" stroke="#90a4ae" stroke-width="0.8" points="2267.94,-28.27 2261.62,-28.94 2266.98,-32.36 2267.94,-28.27"/>
</g>
<!-- Cpu&#45;&gt;ThreadPtr -->
<g id="edge10" class="edge">
<title>Cpu&#45;&gt;ThreadPtr</title>
<path fill="none" stroke="#90a4ae" stroke-width="0.8" d="M2625.14,-95.13C2668.81,-79.25 2746.26,-51.09 2793.72,-33.83"/>
<polygon fill="#90a4ae" stroke="#90a4ae" stroke-width="0.8" points="2794.72,-35.7 2799.64,-31.67 2793.29,-31.75 2794.72,-35.7"/>
</g>
<!-- PAddr -->
<g id="node37" class="node">
<title>PAddr</title>
<path fill="#f3e5f5" stroke="#7b1fa2" d="M715.5,-36C715.5,-36 681.5,-36 681.5,-36 675.5,-36 669.5,-30 669.5,-24 669.5,-24 669.5,-12 669.5,-12 669.5,-6 675.5,0 681.5,0 681.5,0 715.5,0 715.5,0 721.5,0 727.5,-6 727.5,-12 727.5,-12 727.5,-24 727.5,-24 727.5,-30 721.5,-36 715.5,-36"/>
<text text-anchor="middle" x="698.5" y="-21.2" font-family="Helvetica,sans-Serif" font-size="11.00">PAddr</text>
<text text-anchor="middle" x="698.5" y="-9.2" font-family="Helvetica,sans-Serif" font-size="11.00">&lt;alias&gt;</text>
</g>
<!-- MapEntry&#45;&gt;PAddr -->
<g id="edge25" class="edge">
<title>MapEntry&#45;&gt;PAddr</title>
<path fill="none" stroke="#90a4ae" stroke-width="0.8" d="M698.5,-89.61C698.5,-76.03 698.5,-57.02 698.5,-42.14"/>
<polygon fill="#90a4ae" stroke="#90a4ae" stroke-width="0.8" points="700.6,-42.05 698.5,-36.05 696.4,-42.05 700.6,-42.05"/>
</g>
<!-- Node&#45;&gt;SLLIndex -->
<g id="edge35" class="edge">
<title>Node&#45;&gt;SLLIndex</title>
<path fill="none" stroke="#90a4ae" stroke-width="0.8" d="M2362.62,-89.61C2367.45,-75.91 2374.23,-56.68 2379.49,-41.75"/>
<polygon fill="#90a4ae" stroke="#90a4ae" stroke-width="0.8" points="2381.48,-42.41 2381.49,-36.05 2377.52,-41.01 2381.48,-42.41"/>
</g>
<!-- PCIBitMap&#45;&gt;IOid -->
<g id="edge36" class="edge">
<title>PCIBitMap&#45;&gt;IOid</title>
<path fill="none" stroke="#90a4ae" stroke-width="0.8" d="M1294.36,-89.61C1290.35,-76.03 1284.73,-57.02 1280.34,-42.14"/>
<polygon fill="#90a4ae" stroke="#90a4ae" stroke-width="0.8" points="1282.25,-41.21 1278.54,-36.05 1278.22,-42.4 1282.25,-41.21"/>
</g>
<!-- Page&#45;&gt;ContainerPtr -->
<g id="edge37" class="edge">
<title>Page&#45;&gt;ContainerPtr</title>
<path fill="none" stroke="#90a4ae" stroke-width="0.8" d="M1132.02,-102.98C1163.55,-99.2 1212.74,-93.59 1255.5,-90 1660.56,-55.97 1769.36,-112.93 2168.5,-36 2169.51,-35.81 2170.52,-35.6 2171.54,-35.37"/>
<polygon fill="#90a4ae" stroke="#90a4ae" stroke-width="0.8" points="2172.08,-37.41 2177.43,-33.97 2171.1,-33.32 2172.08,-37.41"/>
</g>
<!-- Page&#45;&gt;IOid -->
<g id="edge38" class="edge">
<title>Page&#45;&gt;IOid</title>
<path fill="none" stroke="#90a4ae" stroke-width="0.8" d="M1132.23,-90.45C1162.63,-75.07 1207.74,-52.26 1238.77,-36.57"/>
<polygon fill="#90a4ae" stroke="#90a4ae" stroke-width="0.8" points="1239.98,-38.3 1244.39,-33.72 1238.09,-34.56 1239.98,-38.3"/>
</g>
<!-- Page&#45;&gt;PagePtr -->
<g id="edge39" class="edge">
<title>Page&#45;&gt;PagePtr</title>
<path fill="none" stroke="#90a4ae" stroke-width="0.8" d="M1066.8,-92.66C1063.69,-91.63 1060.56,-90.72 1057.5,-90 759.4,-19.72 667.29,-111.64 370.5,-36 369.49,-35.74 368.47,-35.46 367.45,-35.16"/>
<polygon fill="#90a4ae" stroke="#90a4ae" stroke-width="0.8" points="367.96,-33.11 361.6,-33.21 366.63,-37.1 367.96,-33.11"/>
</g>
<!-- PageState -->
<g id="node44" class="node">
<title>PageState</title>
<path fill="#fff3e0" stroke="#f57c00" d="M1214.5,-36C1214.5,-36 1168.5,-36 1168.5,-36 1162.5,-36 1156.5,-30 1156.5,-24 1156.5,-24 1156.5,-12 1156.5,-12 1156.5,-6 1162.5,0 1168.5,0 1168.5,0 1214.5,0 1214.5,0 1220.5,0 1226.5,-6 1226.5,-12 1226.5,-12 1226.5,-24 1226.5,-24 1226.5,-30 1220.5,-36 1214.5,-36"/>
<text text-anchor="middle" x="1191.5" y="-21.2" font-family="Helvetica,sans-Serif" font-size="11.00">PageState</text>
<text text-anchor="middle" x="1191.5" y="-9.2" font-family="Helvetica,sans-Serif" font-size="11.00">&lt;enum&gt;</text>
</g>
<!-- Page&#45;&gt;PageState -->
<g id="edge40" class="edge">
<title>Page&#45;&gt;PageState</title>
<path fill="none" stroke="#90a4ae" stroke-width="0.8" d="M1117.68,-89.61C1132.39,-75.54 1153.18,-55.65 1168.95,-40.57"/>
<polygon fill="#90a4ae" stroke="#90a4ae" stroke-width="0.8" points="1170.79,-41.72 1173.67,-36.05 1167.89,-38.68 1170.79,-41.72"/>
</g>
<!-- Page&#45;&gt;Pcid -->
<g id="edge41" class="edge">
<title>Page&#45;&gt;Pcid</title>
<path fill="none" stroke="#90a4ae" stroke-width="0.8" d="M1066.96,-90.45C1036.83,-75.12 992.15,-52.4 961.32,-36.71"/>
<polygon fill="#90a4ae" stroke="#90a4ae" stroke-width="0.8" points="962.03,-34.72 955.73,-33.87 960.12,-38.46 962.03,-34.72"/>
</g>
<!-- Page&#45;&gt;SLLIndex -->
<g id="edge42" class="edge">
<title>Page&#45;&gt;SLLIndex</title>
<path fill="none" stroke="#90a4ae" stroke-width="0.8" d="M1132.02,-102.93C1163.54,-99.1 1212.73,-93.47 1255.5,-90 1705.77,-53.52 1820.95,-80.52 2270.5,-36 2297.13,-33.36 2326.97,-29 2349.85,-25.36"/>
<polygon fill="#90a4ae" stroke="#90a4ae" stroke-width="0.8" points="2350.22,-27.43 2355.81,-24.4 2349.56,-23.28 2350.22,-27.43"/>
</g>
<!-- Page&#45;&gt;VAddr -->
<g id="edge43" class="edge">
<title>Page&#45;&gt;VAddr</title>
<path fill="none" stroke="#90a4ae" stroke-width="0.8" d="M1132.29,-97.41C1189.44,-80.7 1306.82,-46.39 1365.49,-29.23"/>
<polygon fill="#90a4ae" stroke="#90a4ae" stroke-width="0.8" points="1366.16,-31.23 1371.33,-27.53 1364.98,-27.2 1366.16,-31.23"/>
</g>
<!-- PageEntry&#45;&gt;PAddr -->
<g id="edge51" class="edge">
<title>PageEntry&#45;&gt;PAddr</title>
<path fill="none" stroke="#90a4ae" stroke-width="0.8" d="M621.47,-89.61C636.95,-75.42 658.89,-55.31 675.4,-40.18"/>
<polygon fill="#90a4ae" stroke="#90a4ae" stroke-width="0.8" points="676.9,-41.65 679.9,-36.05 674.06,-38.56 676.9,-41.65"/>
</g>
<!-- PageEntryPerm -->
<g id="node38" class="node">
<title>PageEntryPerm</title>
<path fill="#e3f2fd" stroke="#1976d2" d="M639.5,-36C639.5,-36 565.5,-36 565.5,-36 559.5,-36 553.5,-30 553.5,-24 553.5,-24 553.5,-12 553.5,-12 553.5,-6 559.5,0 565.5,0 565.5,0 639.5,0 639.5,0 645.5,0 651.5,-6 651.5,-12 651.5,-12 651.5,-24 651.5,-24 651.5,-30 645.5,-36 639.5,-36"/>
<text text-anchor="middle" x="602.5" y="-21.2" font-family="Helvetica,sans-Serif" font-size="11.00">PageEntryPerm</text>
<text text-anchor="middle" x="602.5" y="-9.2" font-family="Helvetica,sans-Serif" font-size="11.00">&lt;struct&gt;</text>
</g>
<!-- PageEntry&#45;&gt;PageEntryPerm -->
<g id="edge52" class="edge">
<title>PageEntry&#45;&gt;PageEntryPerm</title>
<path fill="none" stroke="#90a4ae" stroke-width="0.8" d="M602.5,-89.61C602.5,-76.03 602.5,-57.02 602.5,-42.14"/>
<polygon fill="#90a4ae" stroke="#90a4ae" stroke-width="0.8" points="604.6,-42.05 602.5,-36.05 600.4,-42.05 604.6,-42.05"/>
</g>
<!-- DeviceTable -->
<g id="node28" class="node">
<title>DeviceTable</title>
<path fill="#e3f2fd" stroke="#1976d2" d="M1126,-36C1126,-36 1069,-36 1069,-36 1063,-36 1057,-30 1057,-24 1057,-24 1057,-12 1057,-12 1057,-6 1063,0 1069,0 1069,0 1126,0 1126,0 1132,0 1138,-6 1138,-12 1138,-12 1138,-24 1138,-24 1138,-30 1132,-36 1126,-36"/>
<text text-anchor="middle" x="1097.5" y="-21.2" font-family="Helvetica,sans-Serif" font-size="11.00">DeviceTable</text>
<text text-anchor="middle" x="1097.5" y="-9.2" font-family="Helvetica,sans-Serif" font-size="11.00">&lt;struct&gt;</text>
</g>
<!-- RootTable&#45;&gt;DeviceTable -->
<g id="edge81" class="edge">
<title>RootTable&#45;&gt;DeviceTable</title>
<path fill="none" stroke="#90a4ae" stroke-width="0.8" d="M1030.9,-89.61C1044.17,-75.54 1062.93,-55.65 1077.16,-40.57"/>
<polygon fill="#90a4ae" stroke="#90a4ae" stroke-width="0.8" points="1078.83,-41.86 1081.42,-36.05 1075.77,-38.97 1078.83,-41.86"/>
</g>
<!-- RootTable&#45;&gt;IOid -->
<g id="edge82" class="edge">
<title>RootTable&#45;&gt;IOid</title>
<path fill="none" stroke="#90a4ae" stroke-width="0.8" d="M1049.14,-93.02C1051.96,-91.97 1054.77,-90.95 1057.5,-90 1135.56,-62.78 1158.06,-64.94 1235.5,-36 1236.48,-35.63 1237.47,-35.26 1238.46,-34.87"/>
<polygon fill="#90a4ae" stroke="#90a4ae" stroke-width="0.8" points="1239.42,-36.75 1244.19,-32.55 1237.84,-32.85 1239.42,-36.75"/>
</g>
<!-- SyscallReturnStruct -->
<g id="node20" class="node">
<title>SyscallReturnStruct</title>
<path fill="#e3f2fd" stroke="#1976d2" d="M1673,-126C1673,-126 1574,-126 1574,-126 1568,-126 1562,-120 1562,-114 1562,-114 1562,-102 1562,-102 1562,-96 1568,-90 1574,-90 1574,-90 1673,-90 1673,-90 1679,-90 1685,-96 1685,-102 1685,-102 1685,-114 1685,-114 1685,-120 1679,-126 1673,-126"/>
<text text-anchor="middle" x="1623.5" y="-111.2" font-family="Helvetica,sans-Serif" font-size="11.00">SyscallReturnStruct</text>
<text text-anchor="middle" x="1623.5" y="-99.2" font-family="Helvetica,sans-Serif" font-size="11.00">&lt;struct&gt;</text>
</g>
<!-- SyscallReturnStruct&#45;&gt;Pcid -->
<g id="edge85" class="edge">
<title>SyscallReturnStruct&#45;&gt;Pcid</title>
<path fill="none" stroke="#90a4ae" stroke-width="0.8" d="M1561.76,-91.49C1558.98,-90.95 1556.21,-90.45 1553.5,-90 1294.19,-46.86 1218.81,-102.57 964.5,-36 963.49,-35.74 962.47,-35.45 961.45,-35.14"/>
<polygon fill="#90a4ae" stroke="#90a4ae" stroke-width="0.8" points="961.97,-33.09 955.61,-33.17 960.62,-37.07 961.97,-33.09"/>
</g>
<!-- SyscallReturnStruct&#45;&gt;RetValueType -->
<g id="edge86" class="edge">
<title>SyscallReturnStruct&#45;&gt;RetValueType</title>
<path fill="none" stroke="#90a4ae" stroke-width="0.8" d="M1628.24,-89.61C1631.95,-76.03 1637.13,-57.02 1641.19,-42.14"/>
<polygon fill="#90a4ae" stroke="#90a4ae" stroke-width="0.8" points="1643.3,-42.39 1642.85,-36.05 1639.25,-41.29 1643.3,-42.39"/>
</g>
<!-- SwitchDecision -->
<g id="node51" class="node">
<title>SwitchDecision</title>
<path fill="#fff3e0" stroke="#f57c00" d="M1573,-36C1573,-36 1500,-36 1500,-36 1494,-36 1488,-30 1488,-24 1488,-24 1488,-12 1488,-12 1488,-6 1494,0 1500,0 1500,0 1573,0 1573,0 1579,0 1585,-6 1585,-12 1585,-12 1585,-24 1585,-24 1585,-30 1579,-36 1573,-36"/>
<text text-anchor="middle" x="1536.5" y="-21.2" font-family="Helvetica,sans-Serif" font-size="11.00">SwitchDecision</text>
<text text-anchor="middle" x="1536.5" y="-9.2" font-family="Helvetica,sans-Serif" font-size="11.00">&lt;enum&gt;</text>
</g>
<!-- SyscallReturnStruct&#45;&gt;SwitchDecision -->
<g id="edge87" class="edge">
<title>SyscallReturnStruct&#45;&gt;SwitchDecision</title>
<path fill="none" stroke="#90a4ae" stroke-width="0.8" d="M1606.31,-89.61C1592.4,-75.54 1572.74,-55.65 1557.82,-40.57"/>
<polygon fill="#90a4ae" stroke="#90a4ae" stroke-width="0.8" points="1559.07,-38.84 1553.36,-36.05 1556.08,-41.79 1559.07,-38.84"/>
</g>
<!-- Registers -->
<g id="node48" class="node">
<title>Registers</title>
<path fill="#e3f2fd" stroke="#1976d2" d="M1961.5,-36C1961.5,-36 1919.5,-36 1919.5,-36 1913.5,-36 1907.5,-30 1907.5,-24 1907.5,-24 1907.5,-12 1907.5,-12 1907.5,-6 1913.5,0 1919.5,0 1919.5,0 1961.5,0 1961.5,0 1967.5,0 1973.5,-6 1973.5,-12 1973.5,-12 1973.5,-24 1973.5,-24 1973.5,-30 1967.5,-36 1961.5,-36"/>
<text text-anchor="middle" x="1940.5" y="-21.2" font-family="Helvetica,sans-Serif" font-size="11.00">Registers</text>
<text text-anchor="middle" x="1940.5" y="-9.2" font-family="Helvetica,sans-Serif" font-size="11.00">&lt;struct&gt;</text>
</g>
<!-- TrapFrameOption&#45;&gt;Registers -->
<g id="edge98" class="edge">
<title>TrapFrameOption&#45;&gt;Registers</title>
<path fill="none" stroke="#90a4ae" stroke-width="0.8" d="M1915.62,-89.61C1920.45,-75.91 1927.23,-56.68 1932.49,-41.75"/>
<polygon fill="#90a4ae" stroke="#90a4ae" stroke-width="0.8" points="1934.48,-42.41 1934.49,-36.05 1930.52,-41.01 1934.48,-42.41"/>
</g>
<!-- VaRange4K&#45;&gt;VAddr -->
<g id="edge99" class="edge">
<title>VaRange4K&#45;&gt;VAddr</title>
<path fill="none" stroke="#90a4ae" stroke-width="0.8" d="M1485.01,-89.82C1468.09,-75.65 1444.02,-55.47 1425.89,-40.28"/>
<polygon fill="#90a4ae" stroke="#90a4ae" stroke-width="0.8" points="1426.89,-38.38 1420.94,-36.13 1424.19,-41.6 1426.89,-38.38"/>
</g>
<!-- L1Index -->
<g id="node33" class="node">
<title>L1Index</title>
<path fill="#f3e5f5" stroke="#7b1fa2" d="M3223.5,-36C3223.5,-36 3189.5,-36 3189.5,-36 3183.5,-36 3177.5,-30 3177.5,-24 3177.5,-24 3177.5,-12 3177.5,-12 3177.5,-6 3183.5,0 3189.5,0 3189.5,0 3223.5,0 3223.5,0 3229.5,0 3235.5,-6 3235.5,-12 3235.5,-12 3235.5,-24 3235.5,-24 3235.5,-30 3229.5,-36 3223.5,-36"/>
<text text-anchor="middle" x="3206.5" y="-21.2" font-family="Helvetica,sans-Serif" font-size="11.00">L1Index</text>
<text text-anchor="middle" x="3206.5" y="-9.2" font-family="Helvetica,sans-Serif" font-size="11.00">&lt;alias&gt;</text>
</g>
<!-- UserRetValueType -->
<g id="node54" class="node">
<title>UserRetValueType</title>
<path fill="#fff3e0" stroke="#f57c00" d="M3355.5,-36C3355.5,-36 3265.5,-36 3265.5,-36 3259.5,-36 3253.5,-30 3253.5,-24 3253.5,-24 3253.5,-12 3253.5,-12 3253.5,-6 3259.5,0 3265.5,0 3265.5,0 3355.5,0 3355.5,0 3361.5,0 3367.5,-6 3367.5,-12 3367.5,-12 3367.5,-24 3367.5,-24 3367.5,-30 3361.5,-36 3355.5,-36"/>
<text text-anchor="middle" x="3310.5" y="-21.2" font-family="Helvetica,sans-Serif" font-size="11.00">UserRetValueType</text>
<text text-anchor="middle" x="3310.5" y="-9.2" font-family="Helvetica,sans-Serif" font-size="11.00">&lt;enum&gt;</text>
</g>
<!-- leg_struct -->
<g id="node56" class="node">
<title>leg_struct</title>
<path fill="#e3f2fd" stroke="#1976d2" d="M1785.5,-486C1785.5,-486 1755.5,-486 1755.5,-486 1749.5,-486 1743.5,-480 1743.5,-474 1743.5,-474 1743.5,-462 1743.5,-462 1743.5,-456 1749.5,-450 1755.5,-450 1755.5,-450 1785.5,-450 1785.5,-450 1791.5,-450 1797.5,-456 1797.5,-462 1797.5,-462 1797.5,-474 1797.5,-474 1797.5,-480 1791.5,-486 1785.5,-486"/>
<text text-anchor="middle" x="1770.5" y="-465.8" font-family="Helvetica,sans-Serif" font-size="9.00">struct</text>
</g>
<!-- leg_enum -->
<g id="node57" class="node">
<title>leg_enum</title>
<path fill="#fff3e0" stroke="#f57c00" d="M1713.5,-486C1713.5,-486 1683.5,-486 1683.5,-486 1677.5,-486 1671.5,-480 1671.5,-474 1671.5,-474 1671.5,-462 1671.5,-462 1671.5,-456 1677.5,-450 1683.5,-450 1683.5,-450 1713.5,-450 1713.5,-450 1719.5,-450 1725.5,-456 1725.5,-462 1725.5,-462 1725.5,-474 1725.5,-474 1725.5,-480 1719.5,-486 1713.5,-486"/>
<text text-anchor="middle" x="1698.5" y="-465.8" font-family="Helvetica,sans-Serif" font-size="9.00">enum</text>
</g>
<!-- leg_alias -->
<g id="node58" class="node">
<title>leg_alias</title>
<path fill="#f3e5f5" stroke="#7b1fa2" d="M1641.5,-486C1641.5,-486 1611.5,-486 1611.5,-486 1605.5,-486 1599.5,-480 1599.5,-474 1599.5,-474 1599.5,-462 1599.5,-462 1599.5,-456 1605.5,-450 1611.5,-450 1611.5,-450 1641.5,-450 1641.5,-450 1647.5,-450 1653.5,-456 1653.5,-462 1653.5,-462 1653.5,-474 1653.5,-474 1653.5,-480 1647.5,-486 1641.5,-486"/>
<text text-anchor="middle" x="1626.5" y="-465.8" font-family="Helvetica,sans-Serif" font-size="9.00">alias</text>
</g>
<!-- leg_union -->
<g id="node59" class="node">
<title>leg_union</title>
<path fill="#e0f7fa" stroke="#0097a7" d="M1569.5,-486C1569.5,-486 1539.5,-486 1539.5,-486 1533.5,-486 1527.5,-480 1527.5,-474 1527.5,-474 1527.5,-462 1527.5,-462 1527.5,-456 1533.5,-450 1539.5,-450 1539.5,-450 1569.5,-450 1569.5,-450 1575.5,-450 1581.5,-456 1581.5,-462 1581.5,-462 1581.5,-474 1581.5,-474 1581.5,-480 1575.5,-486 1569.5,-486"/>
<text text-anchor="middle" x="1554.5" y="-465.8" font-family="Helvetica,sans-Serif" font-size="9.00">union</text>
</g>
<!-- leg_container -->
<g id="node60" class="node">
<title>leg_container</title>
<path fill="#e8f5e9" stroke="#388e3c" d="M1497.5,-486C1497.5,-486 1467.5,-486 1467.5,-486 1461.5,-486 1455.5,-480 1455.5,-474 1455.5,-474 1455.5,-462 1455.5,-462 1455.5,-456 1461.5,-450 1467.5,-450 1467.5,-450 1497.5,-450 1497.5,-450 1503.5,-450 1509.5,-456 1509.5,-462 1509.5,-462 1509.5,-474 1509.5,-474 1509.5,-480 1503.5,-486 1497.5,-486"/>
<text text-anchor="middle" x="1482.5" y="-465.8" font-family="Helvetica,sans-Serif" font-size="9.00">container</text>
</g>
<!-- leg_primitive -->
<g id="node61" class="node">
<title>leg_primitive</title>
<path fill="#fafafa" stroke="#616161" d="M1425.5,-486C1425.5,-486 1395.5,-486 1395.5,-486 1389.5,-486 1383.5,-480 1383.5,-474 1383.5,-474 1383.5,-462 1383.5,-462 1383.5,-456 1389.5,-450 1395.5,-450 1395.5,-450 1425.5,-450 1425.5,-450 1431.5,-450 1437.5,-456 1437.5,-462 1437.5,-462 1437.5,-474 1437.5,-474 1437.5,-480 1431.5,-486 1425.5,-486"/>
<text text-anchor="middle" x="1410.5" y="-465.8" font-family="Helvetica,sans-Serif" font-size="9.00">primitive</text>
</g>
<!-- leg_external -->
<g id="node62" class="node">
<title>leg_external</title>
<path fill="#ffebee" stroke="#c62828" d="M1353.5,-486C1353.5,-486 1323.5,-486 1323.5,-486 1317.5,-486 1311.5,-480 1311.5,-474 1311.5,-474 1311.5,-462 1311.5,-462 1311.5,-456 1317.5,-450 1323.5,-450 1323.5,-450 1353.5,-450 1353.5,-450 1359.5,-450 1365.5,-456 1365.5,-462 1365.5,-462 1365.5,-474 1365.5,-474 1365.5,-480 1359.5,-486 1353.5,-486"/>
<text text-anchor="middle" x="1338.5" y="-465.8" font-family="Helvetica,sans-Serif" font-size="9.00">external</text>
</g>
</g>
</svg>
