<?xml version="1.0" encoding="UTF-8" standalone="no"?>
<!DOCTYPE svg PUBLIC "-//W3C//DTD SVG 1.1//EN"
 "http://www.w3.org/Graphics/SVG/1.1/DTD/svg11.dtd">
<!-- Generated by graphviz version 2.43.0 (0)
 -->
<!-- Title: memory&#45;allocator_deps Pages: 1 -->
<svg width="598pt" height="349pt"
 viewBox="0.00 0.00 597.50 349.00" xmlns="http://www.w3.org/2000/svg" xmlns:xlink="http://www.w3.org/1999/xlink">
<g id="graph0" class="graph" transform="scale(1 1) rotate(0) translate(4 345)">
<title>memory&#45;allocator_deps</title>
<polygon fill="white" stroke="transparent" points="-4,4 -4,-345 593.5,-345 593.5,4 -4,4"/>
<g id="clust5" class="cluster">
<title>cluster_legend</title>
<path fill="white" stroke="#9e9e9e" d="M91.5,-262C91.5,-262 569.5,-262 569.5,-262 575.5,-262 581.5,-268 581.5,-274 581.5,-274 581.5,-321 581.5,-321 581.5,-327 575.5,-333 569.5,-333 569.5,-333 91.5,-333 91.5,-333 85.5,-333 79.5,-327 79.5,-321 79.5,-321 79.5,-274 79.5,-274 79.5,-268 85.5,-262 91.5,-262"/>
<text text-anchor="middle" x="330.5" y="-321" font-family="Helvetica,sans-Serif" font-size="10.00" fill="#616161">legend</text>
</g>
<!-- BlockId -->
<g id="node1" class="node">
<title>BlockId</title>
<path fill="#e3f2fd" stroke="#1976d2" d="M57,-306C57,-306 16,-306 16,-306 10,-306 4,-300 4,-294 4,-294 4,-282 4,-282 4,-276 10,-270 16,-270 16,-270 57,-270 57,-270 63,-270 69,-276 69,-282 69,-282 69,-294 69,-294 69,-300 63,-306 57,-306"/>
<text text-anchor="middle" x="36.5" y="-291.2" font-family="Helvetica,sans-Serif" font-size="11.00">BlockId</text>
<text text-anchor="middle" x="36.5" y="-279.2" font-family="Helvetica,sans-Serif" font-size="11.00">&lt;struct&gt;</text>
</g>
<!-- PageId -->
<g id="node2" class="node">
<title>PageId</title>
<path fill="#e3f2fd" stroke="#1976d2" d="M57,-216C57,-216 16,-216 16,-216 10,-216 4,-210 4,-204 4,-204 4,-192 4,-192 4,-186 10,-180 16,-180 16,-180 57,-180 57,-180 63,-180 69,-186 69,-192 69,-192 69,-204 69,-204 69,-210 63,-216 57,-216"/>
<text text-anchor="middle" x="36.5" y="-201.2" font-family="Helvetica,sans-Serif" font-size="11.00">PageId</text>
<text text-anchor="middle" x="36.5" y="-189.2" font-family="Helvetica,sans-Serif" font-size="11.00">&lt;struct&gt;</text>
</g>
<!-- BlockId&#45;&gt;PageId -->
<g id="edge1" class="edge">
<title>BlockId&#45;&gt;PageId</title>
<path fill="none" stroke="#90a4ae" stroke-width="0.8" d="M36.5,-269.61C36.5,-256.03 36.5,-237.02 36.5,-222.14"/>
<polygon fill="#90a4ae" stroke="#90a4ae" stroke-width="0.8" points="38.6,-222.05 36.5,-216.05 34.4,-222.05 38.6,-222.05"/>
</g>
<!-- SegmentId -->
<g id="node4" class="node">
<title>SegmentId</title>
<path fill="#e3f2fd" stroke="#1976d2" d="M61,-126C61,-126 12,-126 12,-126 6,-126 0,-120 0,-114 0,-114 0,-102 0,-102 0,-96 6,-90 12,-90 12,-90 61,-90 61,-90 67,-90 73,-96 73,-102 73,-102 73,-114 73,-114 73,-120 67,-126 61,-126"/>
<text text-anchor="middle" x="36.5" y="-111.2" font-family="Helvetica,sans-Serif" font-size="11.00">SegmentId</text>
<text text-anchor="middle" x="36.5" y="-99.2" font-family="Helvetica,sans-Serif" font-size="11.00">&lt;struct&gt;</text>
</g>
<!-- PageId&#45;&gt;SegmentId -->
<g id="edge3" class="edge">
<title>PageId&#45;&gt;SegmentId</title>
<path fill="none" stroke="#90a4ae" stroke-width="0.8" d="M36.5,-179.61C36.5,-166.03 36.5,-147.02 36.5,-132.14"/>
<polygon fill="#90a4ae" stroke="#90a4ae" stroke-width="0.8" points="38.6,-132.05 36.5,-126.05 34.4,-132.05 38.6,-132.05"/>
</g>
<!-- HeapId -->
<g id="node3" class="node">
<title>HeapId</title>
<path fill="#e3f2fd" stroke="#1976d2" d="M144,-126C144,-126 103,-126 103,-126 97,-126 91,-120 91,-114 91,-114 91,-102 91,-102 91,-96 97,-90 103,-90 103,-90 144,-90 144,-90 150,-90 156,-96 156,-102 156,-102 156,-114 156,-114 156,-120 150,-126 144,-126"/>
<text text-anchor="middle" x="123.5" y="-111.2" font-family="Helvetica,sans-Serif" font-size="11.00">HeapId</text>
<text text-anchor="middle" x="123.5" y="-99.2" font-family="Helvetica,sans-Serif" font-size="11.00">&lt;struct&gt;</text>
</g>
<!-- Provenance -->
<g id="node7" class="node">
<title>Provenance</title>
<path fill="#ffebee" stroke="#c62828" d="M107,-36C107,-36 52,-36 52,-36 46,-36 40,-30 40,-24 40,-24 40,-12 40,-12 40,-6 46,0 52,0 52,0 107,0 107,0 113,0 119,-6 119,-12 119,-12 119,-24 119,-24 119,-30 113,-36 107,-36"/>
<text text-anchor="middle" x="79.5" y="-21.2" font-family="Helvetica,sans-Serif" font-size="11.00">Provenance</text>
<text text-anchor="middle" x="79.5" y="-9.2" font-family="Helvetica,sans-Serif" font-size="11.00">&lt;external&gt;</text>
</g>
<!-- HeapId&#45;&gt;Provenance -->
<g id="edge2" class="edge">
<title>HeapId&#45;&gt;Provenance</title>
<path fill="none" stroke="#90a4ae" stroke-width="0.8" d="M114.81,-89.61C107.95,-75.91 98.34,-56.68 90.87,-41.75"/>
<polygon fill="#90a4ae" stroke="#90a4ae" stroke-width="0.8" points="92.59,-40.48 88.03,-36.05 88.83,-42.36 92.59,-40.48"/>
</g>
<!-- SegmentId&#45;&gt;Provenance -->
<g id="edge4" class="edge">
<title>SegmentId&#45;&gt;Provenance</title>
<path fill="none" stroke="#90a4ae" stroke-width="0.8" d="M45,-89.61C51.69,-75.91 61.09,-56.68 68.39,-41.75"/>
<polygon fill="#90a4ae" stroke="#90a4ae" stroke-width="0.8" points="70.42,-42.36 71.17,-36.05 66.65,-40.52 70.42,-42.36"/>
</g>
<!-- CommitMask -->
<g id="node5" class="node">
<title>CommitMask</title>
<path fill="#e3f2fd" stroke="#1976d2" d="M211.5,-36C211.5,-36 149.5,-36 149.5,-36 143.5,-36 137.5,-30 137.5,-24 137.5,-24 137.5,-12 137.5,-12 137.5,-6 143.5,0 149.5,0 149.5,0 211.5,0 211.5,0 217.5,0 223.5,-6 223.5,-12 223.5,-12 223.5,-24 223.5,-24 223.5,-30 217.5,-36 211.5,-36"/>
<text text-anchor="middle" x="180.5" y="-21.2" font-family="Helvetica,sans-Serif" font-size="11.00">CommitMask</text>
<text text-anchor="middle" x="180.5" y="-9.2" font-family="Helvetica,sans-Serif" font-size="11.00">&lt;struct&gt;</text>
</g>
<!-- Node -->
<g id="node6" class="node">
<title>Node</title>
<path fill="#e3f2fd" stroke="#1976d2" d="M295,-36C295,-36 254,-36 254,-36 248,-36 242,-30 242,-24 242,-24 242,-12 242,-12 242,-6 248,0 254,0 254,0 295,0 295,0 301,0 307,-6 307,-12 307,-12 307,-24 307,-24 307,-30 301,-36 295,-36"/>
<text text-anchor="middle" x="274.5" y="-21.2" font-family="Helvetica,sans-Serif" font-size="11.00">Node</text>
<text text-anchor="middle" x="274.5" y="-9.2" font-family="Helvetica,sans-Serif" font-size="11.00">&lt;struct&gt;</text>
</g>
<!-- leg_struct -->
<g id="node8" class="node">
<title>leg_struct</title>
<path fill="#e3f2fd" stroke="#1976d2" d="M561.5,-306C561.5,-306 531.5,-306 531.5,-306 525.5,-306 519.5,-300 519.5,-294 519.5,-294 519.5,-282 519.5,-282 519.5,-276 525.5,-270 531.5,-270 531.5,-270 561.5,-270 561.5,-270 567.5,-270 573.5,-276 573.5,-282 573.5,-282 573.5,-294 573.5,-294 573.5,-300 567.5,-306 561.5,-306"/>
<text text-anchor="middle" x="546.5" y="-285.8" font-family="Helvetica,sans-Serif" font-size="9.00">struct</text>
</g>
<!-- leg_enum -->
<g id="node9" class="node">
<title>leg_enum</title>
<path fill="#fff3e0" stroke="#f57c00" d="M489.5,-306C489.5,-306 459.5,-306 459.5,-306 453.5,-306 447.5,-300 447.5,-294 447.5,-294 447.5,-282 447.5,-282 447.5,-276 453.5,-270 459.5,-270 459.5,-270 489.5,-270 489.5,-270 495.5,-270 501.5,-276 501.5,-282 501.5,-282 501.5,-294 501.5,-294 501.5,-300 495.5,-306 489.5,-306"/>
<text text-anchor="middle" x="474.5" y="-285.8" font-family="Helvetica,sans-Serif" font-size="9.00">enum</text>
</g>
<!-- leg_alias -->
<g id="node10" class="node">
<title>leg_alias</title>
<path fill="#f3e5f5" stroke="#7b1fa2" d="M417.5,-306C417.5,-306 387.5,-306 387.5,-306 381.5,-306 375.5,-300 375.5,-294 375.5,-294 375.5,-282 375.5,-282 375.5,-276 381.5,-270 387.5,-270 387.5,-270 417.5,-270 417.5,-270 423.5,-270 429.5,-276 429.5,-282 429.5,-282 429.5,-294 429.5,-294 429.5,-300 423.5,-306 417.5,-306"/>
<text text-anchor="middle" x="402.5" y="-285.8" font-family="Helvetica,sans-Serif" font-size="9.00">alias</text>
</g>
<!-- leg_union -->
<g id="node11" class="node">
<title>leg_union</title>
<path fill="#e0f7fa" stroke="#0097a7" d="M345.5,-306C345.5,-306 315.5,-306 315.5,-306 309.5,-306 303.5,-300 303.5,-294 303.5,-294 303.5,-282 303.5,-282 303.5,-276 309.5,-270 315.5,-270 315.5,-270 345.5,-270 345.5,-270 351.5,-270 357.5,-276 357.5,-282 357.5,-282 357.5,-294 357.5,-294 357.5,-300 351.5,-306 345.5,-306"/>
<text text-anchor="middle" x="330.5" y="-285.8" font-family="Helvetica,sans-Serif" font-size="9.00">union</text>
</g>
<!-- leg_container -->
<g id="node12" class="node">
<title>leg_container</title>
<path fill="#e8f5e9" stroke="#388e3c" d="M273.5,-306C273.5,-306 243.5,-306 243.5,-306 237.5,-306 231.5,-300 231.5,-294 231.5,-294 231.5,-282 231.5,-282 231.5,-276 237.5,-270 243.5,-270 243.5,-270 273.5,-270 273.5,-270 279.5,-270 285.5,-276 285.5,-282 285.5,-282 285.5,-294 285.5,-294 285.5,-300 279.5,-306 273.5,-306"/>
<text text-anchor="middle" x="258.5" y="-285.8" font-family="Helvetica,sans-Serif" font-size="9.00">container</text>
</g>
<!-- leg_primitive -->
<g id="node13" class="node">
<title>leg_primitive</title>
<path fill="#fafafa" stroke="#616161" d="M201.5,-306C201.5,-306 171.5,-306 171.5,-306 165.5,-306 159.5,-300 159.5,-294 159.5,-294 159.5,-282 159.5,-282 159.5,-276 165.5,-270 171.5,-270 171.5,-270 201.5,-270 201.5,-270 207.5,-270 213.5,-276 213.5,-282 213.5,-282 213.5,-294 213.5,-294 213.5,-300 207.5,-306 201.5,-306"/>
<text text-anchor="middle" x="186.5" y="-285.8" font-family="Helvetica,sans-Serif" font-size="9.00">primitive</text>
</g>
<!-- leg_external -->
<g id="node14" class="node">
<title>leg_external</title>
<path fill="#ffebee" stroke="#c62828" d="M129.5,-306C129.5,-306 99.5,-306 99.5,-306 93.5,-306 87.5,-300 87.5,-294 87.5,-294 87.5,-282 87.5,-282 87.5,-276 93.5,-270 99.5,-270 99.5,-270 129.5,-270 129.5,-270 135.5,-270 141.5,-276 141.5,-282 141.5,-282 141.5,-294 141.5,-294 141.5,-300 135.5,-306 129.5,-306"/>
<text text-anchor="middle" x="114.5" y="-285.8" font-family="Helvetica,sans-Serif" font-size="9.00">external</text>
</g>
</g>
</svg>
