<?xml version="1.0" encoding="UTF-8" standalone="no"?>
<!DOCTYPE svg PUBLIC "-//W3C//DTD SVG 1.1//EN"
 "http://www.w3.org/Graphics/SVG/1.1/DTD/svg11.dtd">
<!-- Generated by graphviz version 2.43.0 (0)
 -->
<!-- Title: nrkernel_deps Pages: 1 -->
<svg width="683pt" height="259pt"
 viewBox="0.00 0.00 683.00 259.00" xmlns="http://www.w3.org/2000/svg" xmlns:xlink="http://www.w3.org/1999/xlink">
<g id="graph0" class="graph" transform="scale(1 1) rotate(0) translate(4 255)">
<title>nrkernel_deps</title>
<polygon fill="white" stroke="transparent" points="-4,4 -4,-255 679,-255 679,4 -4,4"/>
<g id="clust5" class="cluster">
<title>cluster_legend</title>
<path fill="white" stroke="#9e9e9e" d="M177,-172C177,-172 655,-172 655,-172 661,-172 667,-178 667,-184 667,-184 667,-231 667,-231 667,-237 661,-243 655,-243 655,-243 177,-243 177,-243 171,-243 165,-237 165,-231 165,-231 165,-184 165,-184 165,-178 171,-172 177,-172"/>
<text text-anchor="middle" x="416" y="-231" font-family="Helvetica,sans-Serif" font-size="10.00" fill="#616161">legend</text>
</g>
<!-- Directory -->
<g id="node1" class="node">
<title>Directory</title>
<path fill="#e3f2fd" stroke="#1976d2" stroke-width="3" d="M143,-216C143,-216 101,-216 101,-216 95,-216 89,-210 89,-204 89,-204 89,-192 89,-192 89,-186 95,-180 101,-180 101,-180 143,-180 143,-180 149,-180 155,-186 155,-192 155,-192 155,-204 155,-204 155,-210 149,-216 143,-216"/>
<text text-anchor="middle" x="122" y="-201.2" font-family="Helvetica,sans-Serif" font-size="11.00">Directory</text>
<text text-anchor="middle" x="122" y="-189.2" font-family="Helvetica,sans-Serif" font-size="11.00">&lt;struct&gt;</text>
</g>
<!-- Arch -->
<g id="node2" class="node">
<title>Arch</title>
<path fill="#e3f2fd" stroke="#1976d2" d="M55.5,-126C55.5,-126 14.5,-126 14.5,-126 8.5,-126 2.5,-120 2.5,-114 2.5,-114 2.5,-102 2.5,-102 2.5,-96 8.5,-90 14.5,-90 14.5,-90 55.5,-90 55.5,-90 61.5,-90 67.5,-96 67.5,-102 67.5,-102 67.5,-114 67.5,-114 67.5,-120 61.5,-126 55.5,-126"/>
<text text-anchor="middle" x="35" y="-111.2" font-family="Helvetica,sans-Serif" font-size="11.00">Arch</text>
<text text-anchor="middle" x="35" y="-99.2" font-family="Helvetica,sans-Serif" font-size="11.00">&lt;struct&gt;</text>
</g>
<!-- Directory&#45;&gt;Arch -->
<g id="edge3" class="edge">
<title>Directory&#45;&gt;Arch</title>
<path fill="none" stroke="#90a4ae" stroke-width="0.8" d="M104.81,-179.61C90.9,-165.54 71.24,-145.65 56.32,-130.57"/>
<polygon fill="#90a4ae" stroke="#90a4ae" stroke-width="0.8" points="57.57,-128.84 51.86,-126.05 54.58,-131.79 57.57,-128.84"/>
</g>
<!-- NodeEntry -->
<g id="node3" class="node">
<title>NodeEntry</title>
<path fill="#fff3e0" stroke="#f57c00" d="M146,-126C146,-126 98,-126 98,-126 92,-126 86,-120 86,-114 86,-114 86,-102 86,-102 86,-96 92,-90 98,-90 98,-90 146,-90 146,-90 152,-90 158,-96 158,-102 158,-102 158,-114 158,-114 158,-120 152,-126 146,-126"/>
<text text-anchor="middle" x="122" y="-111.2" font-family="Helvetica,sans-Serif" font-size="11.00">NodeEntry</text>
<text text-anchor="middle" x="122" y="-99.2" font-family="Helvetica,sans-Serif" font-size="11.00">&lt;enum&gt;</text>
</g>
<!-- Directory&#45;&gt;NodeEntry -->
<g id="edge4" class="edge">
<title>Directory&#45;&gt;NodeEntry</title>
<path fill="none" stroke="#d84315" stroke-width="1.5" d="M116.5,-179.61C115.03,-166.03 114.86,-147.02 115.98,-132.14"/>
<polygon fill="#d84315" stroke="#d84315" stroke-width="1.5" points="118.08,-132.22 116.53,-126.05 113.89,-131.83 118.08,-132.22"/>
</g>
<!-- Seq -->
<g id="node5" class="node">
<title>Seq</title>
<path fill="#e8f5e9" stroke="#388e3c" d="M188,-36C188,-36 128,-36 128,-36 122,-36 116,-30 116,-24 116,-24 116,-12 116,-12 116,-6 122,0 128,0 128,0 188,0 188,0 194,0 200,-6 200,-12 200,-12 200,-24 200,-24 200,-30 194,-36 188,-36"/>
<text text-anchor="middle" x="158" y="-21.2" font-family="Helvetica,sans-Serif" font-size="11.00">Seq</text>
<text text-anchor="middle" x="158" y="-9.2" font-family="Helvetica,sans-Serif" font-size="11.00">&lt;container&gt;</text>
</g>
<!-- Directory&#45;&gt;Seq -->
<g id="edge5" class="edge">
<title>Directory&#45;&gt;Seq</title>
<path fill="none" stroke="#90a4ae" stroke-width="0.8" d="M136.72,-179.99C147.45,-166.4 161.1,-146.32 167,-126 175.17,-97.85 169.91,-63.92 164.63,-41.93"/>
<polygon fill="#90a4ae" stroke="#90a4ae" stroke-width="0.8" points="166.66,-41.36 163.16,-36.05 162.58,-42.39 166.66,-41.36"/>
</g>
<!-- ArchLayer -->
<g id="node4" class="node">
<title>ArchLayer</title>
<path fill="#e3f2fd" stroke="#1976d2" d="M58,-36C58,-36 12,-36 12,-36 6,-36 0,-30 0,-24 0,-24 0,-12 0,-12 0,-6 6,0 12,0 12,0 58,0 58,0 64,0 70,-6 70,-12 70,-12 70,-24 70,-24 70,-30 64,-36 58,-36"/>
<text text-anchor="middle" x="35" y="-21.2" font-family="Helvetica,sans-Serif" font-size="11.00">ArchLayer</text>
<text text-anchor="middle" x="35" y="-9.2" font-family="Helvetica,sans-Serif" font-size="11.00">&lt;struct&gt;</text>
</g>
<!-- Arch&#45;&gt;ArchLayer -->
<g id="edge1" class="edge">
<title>Arch&#45;&gt;ArchLayer</title>
<path fill="none" stroke="#90a4ae" stroke-width="0.8" d="M35,-89.61C35,-76.03 35,-57.02 35,-42.14"/>
<polygon fill="#90a4ae" stroke="#90a4ae" stroke-width="0.8" points="37.1,-42.05 35,-36.05 32.9,-42.05 37.1,-42.05"/>
</g>
<!-- Arch&#45;&gt;Seq -->
<g id="edge2" class="edge">
<title>Arch&#45;&gt;Seq</title>
<path fill="none" stroke="#90a4ae" stroke-width="0.8" d="M59.01,-89.82C79.07,-75.47 107.75,-54.95 129.07,-39.7"/>
<polygon fill="#90a4ae" stroke="#90a4ae" stroke-width="0.8" points="130.4,-41.33 134.05,-36.13 127.95,-37.92 130.4,-41.33"/>
</g>
<!-- NodeEntry&#45;&gt;Directory -->
<g id="edge6" class="edge">
<title>NodeEntry&#45;&gt;Directory</title>
<path fill="none" stroke="#d84315" stroke-width="1.5" d="M127.47,-126.05C128.95,-139.55 129.15,-158.55 128.05,-173.49"/>
<polygon fill="#d84315" stroke="#d84315" stroke-width="1.5" points="125.95,-173.45 127.5,-179.61 130.13,-173.83 125.95,-173.45"/>
</g>
<!-- leg_struct -->
<g id="node6" class="node">
<title>leg_struct</title>
<path fill="#e3f2fd" stroke="#1976d2" d="M647,-216C647,-216 617,-216 617,-216 611,-216 605,-210 605,-204 605,-204 605,-192 605,-192 605,-186 611,-180 617,-180 617,-180 647,-180 647,-180 653,-180 659,-186 659,-192 659,-192 659,-204 659,-204 659,-210 653,-216 647,-216"/>
<text text-anchor="middle" x="632" y="-195.8" font-family="Helvetica,sans-Serif" font-size="9.00">struct</text>
</g>
<!-- leg_enum -->
<g id="node7" class="node">
<title>leg_enum</title>
<path fill="#fff3e0" stroke="#f57c00" d="M575,-216C575,-216 545,-216 545,-216 539,-216 533,-210 533,-204 533,-204 533,-192 533,-192 533,-186 539,-180 545,-180 545,-180 575,-180 575,-180 581,-180 587,-186 587,-192 587,-192 587,-204 587,-204 587,-210 581,-216 575,-216"/>
<text text-anchor="middle" x="560" y="-195.8" font-family="Helvetica,sans-Serif" font-size="9.00">enum</text>
</g>
<!-- leg_alias -->
<g id="node8" class="node">
<title>leg_alias</title>
<path fill="#f3e5f5" stroke="#7b1fa2" d="M503,-216C503,-216 473,-216 473,-216 467,-216 461,-210 461,-204 461,-204 461,-192 461,-192 461,-186 467,-180 473,-180 473,-180 503,-180 503,-180 509,-180 515,-186 515,-192 515,-192 515,-204 515,-204 515,-210 509,-216 503,-216"/>
<text text-anchor="middle" x="488" y="-195.8" font-family="Helvetica,sans-Serif" font-size="9.00">alias</text>
</g>
<!-- leg_union -->
<g id="node9" class="node">
<title>leg_union</title>
<path fill="#e0f7fa" stroke="#0097a7" d="M431,-216C431,-216 401,-216 401,-216 395,-216 389,-210 389,-204 389,-204 389,-192 389,-192 389,-186 395,-180 401,-180 401,-180 431,-180 431,-180 437,-180 443,-186 443,-192 443,-192 443,-204 443,-204 443,-210 437,-216 431,-216"/>
<text text-anchor="middle" x="416" y="-195.8" font-family="Helvetica,sans-Serif" font-size="9.00">union</text>
</g>
<!-- leg_container -->
<g id="node10" class="node">
<title>leg_container</title>
<path fill="#e8f5e9" stroke="#388e3c" d="M359,-216C359,-216 329,-216 329,-216 323,-216 317,-210 317,-204 317,-204 317,-192 317,-192 317,-186 323,-180 329,-180 329,-180 359,-180 359,-180 365,-180 371,-186 371,-192 371,-192 371,-204 371,-204 371,-210 365,-216 359,-216"/>
<text text-anchor="middle" x="344" y="-195.8" font-family="Helvetica,sans-Serif" font-size="9.00">container</text>
</g>
<!-- leg_primitive -->
<g id="node11" class="node">
<title>leg_primitive</title>
<path fill="#fafafa" stroke="#616161" d="M287,-216C287,-216 257,-216 257,-216 251,-216 245,-210 245,-204 245,-204 245,-192 245,-192 245,-186 251,-180 257,-180 257,-180 287,-180 287,-180 293,-180 299,-186 299,-192 299,-192 299,-204 299,-204 299,-210 293,-216 287,-216"/>
<text text-anchor="middle" x="272" y="-195.8" font-family="Helvetica,sans-Serif" font-size="9.00">primitive</text>
</g>
<!-- leg_external -->
<g id="node12" class="node">
<title>leg_external</title>
<path fill="#ffebee" stroke="#c62828" d="M215,-216C215,-216 185,-216 185,-216 179,-216 173,-210 173,-204 173,-204 173,-192 173,-192 173,-186 179,-180 185,-180 185,-180 215,-180 215,-180 221,-180 227,-186 227,-192 227,-192 227,-204 227,-204 227,-210 221,-216 215,-216"/>
<text text-anchor="middle" x="200" y="-195.8" font-family="Helvetica,sans-Serif" font-size="9.00">external</text>
</g>
</g>
</svg>
