<?xml version="1.0" encoding="UTF-8" standalone="no"?>
<!DOCTYPE svg PUBLIC "-//W3C//DTD SVG 1.1//EN"
 "http://www.w3.org/Graphics/SVG/1.1/DTD/svg11.dtd">
<!-- Generated by graphviz version 2.43.0 (0)
 -->
<!-- Title: nrkernel_deps Pages: 1 -->
<svg width="3013pt" height="439pt"
 viewBox="0.00 0.00 3013.00 439.00" xmlns="http://www.w3.org/2000/svg" xmlns:xlink="http://www.w3.org/1999/xlink">
<g id="graph0" class="graph" transform="scale(1 1) rotate(0) translate(4 435)">
<title>nrkernel_deps</title>
<polygon fill="white" stroke="transparent" points="-4,4 -4,-435 3009,-435 3009,4 -4,4"/>
<g id="clust7" class="cluster">
<title>cluster_legend</title>
<path fill="white" stroke="#9e9e9e" d="M1923.5,-352C1923.5,-352 2401.5,-352 2401.5,-352 2407.5,-352 2413.5,-358 2413.5,-364 2413.5,-364 2413.5,-411 2413.5,-411 2413.5,-417 2407.5,-423 2401.5,-423 2401.5,-423 1923.5,-423 1923.5,-423 1917.5,-423 1911.5,-417 1911.5,-411 1911.5,-411 1911.5,-364 1911.5,-364 1911.5,-358 1917.5,-352 1923.5,-352"/>
<text text-anchor="middle" x="2162.5" y="-411" font-family="Helvetica,sans-Serif" font-size="10.00" fill="#616161">legend</text>
</g>
<!-- WrappedMapToken -->
<g id="node1" class="node">
<title>WrappedMapToken</title>
<path fill="#e3f2fd" stroke="#1976d2" d="M1889,-396C1889,-396 1796,-396 1796,-396 1790,-396 1784,-390 1784,-384 1784,-384 1784,-372 1784,-372 1784,-366 1790,-360 1796,-360 1796,-360 1889,-360 1889,-360 1895,-360 1901,-366 1901,-372 1901,-372 1901,-384 1901,-384 1901,-390 1895,-396 1889,-396"/>
<text text-anchor="middle" x="1842.5" y="-381.2" font-family="Helvetica,sans-Serif" font-size="11.00">WrappedMapToken</text>
<text text-anchor="middle" x="1842.5" y="-369.2" font-family="Helvetica,sans-Serif" font-size="11.00">&lt;struct&gt;</text>
</g>
<!-- State -->
<g id="node6" class="node">
<title>State</title>
<path fill="#e3f2fd" stroke="#1976d2" d="M798,-306C798,-306 757,-306 757,-306 751,-306 745,-300 745,-294 745,-294 745,-282 745,-282 745,-276 751,-270 757,-270 757,-270 798,-270 798,-270 804,-270 810,-276 810,-282 810,-282 810,-294 810,-294 810,-300 804,-306 798,-306"/>
<text text-anchor="middle" x="777.5" y="-291.2" font-family="Helvetica,sans-Serif" font-size="11.00">State</text>
<text text-anchor="middle" x="777.5" y="-279.2" font-family="Helvetica,sans-Serif" font-size="11.00">&lt;struct&gt;</text>
</g>
<!-- WrappedMapToken&#45;&gt;State -->
<g id="edge58" class="edge">
<title>WrappedMapToken&#45;&gt;State</title>
<path fill="none" stroke="#90a4ae" stroke-width="0.8" d="M1783.72,-372.14C1590.39,-356.17 977.39,-305.52 816.49,-292.22"/>
<polygon fill="#90a4ae" stroke="#90a4ae" stroke-width="0.8" points="816.21,-290.09 810.06,-291.69 815.87,-294.28 816.21,-290.09"/>
</g>
<!-- Token -->
<g id="node44" class="node">
<title>Token</title>
<path fill="#ffebee" stroke="#c62828" d="M2193.5,-36C2193.5,-36 2139.5,-36 2139.5,-36 2133.5,-36 2127.5,-30 2127.5,-24 2127.5,-24 2127.5,-12 2127.5,-12 2127.5,-6 2133.5,0 2139.5,0 2139.5,0 2193.5,0 2193.5,0 2199.5,0 2205.5,-6 2205.5,-12 2205.5,-12 2205.5,-24 2205.5,-24 2205.5,-30 2199.5,-36 2193.5,-36"/>
<text text-anchor="middle" x="2166.5" y="-21.2" font-family="Helvetica,sans-Serif" font-size="11.00">Token</text>
<text text-anchor="middle" x="2166.5" y="-9.2" font-family="Helvetica,sans-Serif" font-size="11.00">&lt;external&gt;</text>
</g>
<!-- WrappedMapToken&#45;&gt;Token -->
<g id="edge59" class="edge">
<title>WrappedMapToken&#45;&gt;Token</title>
<path fill="none" stroke="#90a4ae" stroke-width="0.8" d="M1878.67,-359.9C1945.63,-326.03 2087.55,-243.42 2147.5,-126 2161.07,-99.43 2165.12,-64.86 2166.24,-42.31"/>
<polygon fill="#90a4ae" stroke="#90a4ae" stroke-width="0.8" points="2168.34,-42.36 2166.48,-36.28 2164.14,-42.19 2168.34,-42.36"/>
</g>
<!-- WrappedTokenView -->
<g id="node2" class="node">
<title>WrappedTokenView</title>
<path fill="#e3f2fd" stroke="#1976d2" d="M549.5,-396C549.5,-396 453.5,-396 453.5,-396 447.5,-396 441.5,-390 441.5,-384 441.5,-384 441.5,-372 441.5,-372 441.5,-366 447.5,-360 453.5,-360 453.5,-360 549.5,-360 549.5,-360 555.5,-360 561.5,-366 561.5,-372 561.5,-372 561.5,-384 561.5,-384 561.5,-390 555.5,-396 549.5,-396"/>
<text text-anchor="middle" x="501.5" y="-381.2" font-family="Helvetica,sans-Serif" font-size="11.00">WrappedTokenView</text>
<text text-anchor="middle" x="501.5" y="-369.2" font-family="Helvetica,sans-Serif" font-size="11.00">&lt;struct&gt;</text>
</g>
<!-- WrappedTokenView&#45;&gt;State -->
<g id="edge66" class="edge">
<title>WrappedTokenView&#45;&gt;State</title>
<path fill="none" stroke="#90a4ae" stroke-width="0.8" d="M555.04,-359.93C609.01,-342.72 690.98,-316.58 738.9,-301.31"/>
<polygon fill="#90a4ae" stroke="#90a4ae" stroke-width="0.8" points="739.78,-303.23 744.85,-299.41 738.5,-299.23 739.78,-303.23"/>
</g>
<!-- PTMem -->
<g id="node20" class="node">
<title>PTMem</title>
<path fill="#e3f2fd" stroke="#1976d2" d="M507,-126C507,-126 466,-126 466,-126 460,-126 454,-120 454,-114 454,-114 454,-102 454,-102 454,-96 460,-90 466,-90 466,-90 507,-90 507,-90 513,-90 519,-96 519,-102 519,-102 519,-114 519,-114 519,-120 513,-126 507,-126"/>
<text text-anchor="middle" x="486.5" y="-111.2" font-family="Helvetica,sans-Serif" font-size="11.00">PTMem</text>
<text text-anchor="middle" x="486.5" y="-99.2" font-family="Helvetica,sans-Serif" font-size="11.00">&lt;struct&gt;</text>
</g>
<!-- WrappedTokenView&#45;&gt;PTMem -->
<g id="edge63" class="edge">
<title>WrappedTokenView&#45;&gt;PTMem</title>
<path fill="none" stroke="#90a4ae" stroke-width="0.8" d="M500.54,-359.83C497.94,-313.31 490.74,-184.84 487.79,-132.08"/>
<polygon fill="#90a4ae" stroke="#90a4ae" stroke-width="0.8" points="489.89,-131.9 487.45,-126.03 485.69,-132.14 489.89,-131.9"/>
</g>
<!-- Map -->
<g id="node32" class="node">
<title>Map</title>
<path fill="#e8f5e9" stroke="#388e3c" d="M615.5,-36C615.5,-36 555.5,-36 555.5,-36 549.5,-36 543.5,-30 543.5,-24 543.5,-24 543.5,-12 543.5,-12 543.5,-6 549.5,0 555.5,0 555.5,0 615.5,0 615.5,0 621.5,0 627.5,-6 627.5,-12 627.5,-12 627.5,-24 627.5,-24 627.5,-30 621.5,-36 615.5,-36"/>
<text text-anchor="middle" x="585.5" y="-21.2" font-family="Helvetica,sans-Serif" font-size="11.00">Map</text>
<text text-anchor="middle" x="585.5" y="-9.2" font-family="Helvetica,sans-Serif" font-size="11.00">&lt;container&gt;</text>
</g>
<!-- WrappedTokenView&#45;&gt;Map -->
<g id="edge60" class="edge">
<title>WrappedTokenView&#45;&gt;Map</title>
<path fill="none" stroke="#90a4ae" stroke-width="0.8" d="M490.18,-359.66C461,-312.56 389.21,-179.74 444.5,-90 464.67,-57.27 505.06,-39.09 537.47,-29.34"/>
<polygon fill="#90a4ae" stroke="#90a4ae" stroke-width="0.8" points="538.24,-31.31 543.42,-27.62 537.07,-27.27 538.24,-31.31"/>
</g>
<!-- MemRegion -->
<g id="node33" class="node">
<title>MemRegion</title>
<path fill="#e3f2fd" stroke="#1976d2" d="M1519,-36C1519,-36 1464,-36 1464,-36 1458,-36 1452,-30 1452,-24 1452,-24 1452,-12 1452,-12 1452,-6 1458,0 1464,0 1464,0 1519,0 1519,0 1525,0 1531,-6 1531,-12 1531,-12 1531,-24 1531,-24 1531,-30 1525,-36 1519,-36"/>
<text text-anchor="middle" x="1491.5" y="-21.2" font-family="Helvetica,sans-Serif" font-size="11.00">MemRegion</text>
<text text-anchor="middle" x="1491.5" y="-9.2" font-family="Helvetica,sans-Serif" font-size="11.00">&lt;struct&gt;</text>
</g>
<!-- WrappedTokenView&#45;&gt;MemRegion -->
<g id="edge61" class="edge">
<title>WrappedTokenView&#45;&gt;MemRegion</title>
<path fill="none" stroke="#90a4ae" stroke-width="0.8" d="M561.65,-374.52C747.15,-365.71 1305.89,-330.04 1439.5,-216 1474.3,-186.29 1477.61,-170.19 1489.5,-126 1497.06,-97.91 1496.12,-64.17 1494.25,-42.18"/>
<polygon fill="#90a4ae" stroke="#90a4ae" stroke-width="0.8" points="1496.33,-41.81 1493.68,-36.03 1492.14,-42.2 1496.33,-41.81"/>
</g>
<!-- OpArgs -->
<g id="node35" class="node">
<title>OpArgs</title>
<path fill="#fff3e0" stroke="#f57c00" d="M51,-36C51,-36 12,-36 12,-36 6,-36 0,-30 0,-24 0,-24 0,-12 0,-12 0,-6 6,0 12,0 12,0 51,0 51,0 57,0 63,-6 63,-12 63,-12 63,-24 63,-24 63,-30 57,-36 51,-36"/>
<text text-anchor="middle" x="31.5" y="-21.2" font-family="Helvetica,sans-Serif" font-size="11.00">OpArgs</text>
<text text-anchor="middle" x="31.5" y="-9.2" font-family="Helvetica,sans-Serif" font-size="11.00">&lt;enum&gt;</text>
</g>
<!-- WrappedTokenView&#45;&gt;OpArgs -->
<g id="edge62" class="edge">
<title>WrappedTokenView&#45;&gt;OpArgs</title>
<path fill="none" stroke="#90a4ae" stroke-width="0.8" d="M441.38,-367.2C389.59,-357.05 314.01,-338.07 254.5,-306 140.92,-244.79 66.51,-98.26 41.16,-41.76"/>
<polygon fill="#90a4ae" stroke="#90a4ae" stroke-width="0.8" points="43.07,-40.9 38.72,-36.26 39.24,-42.6 43.07,-40.9"/>
</g>
<!-- Result -->
<g id="node39" class="node">
<title>Result</title>
<path fill="#e8f5e9" stroke="#388e3c" d="M153.5,-36C153.5,-36 93.5,-36 93.5,-36 87.5,-36 81.5,-30 81.5,-24 81.5,-24 81.5,-12 81.5,-12 81.5,-6 87.5,0 93.5,0 93.5,0 153.5,0 153.5,0 159.5,0 165.5,-6 165.5,-12 165.5,-12 165.5,-24 165.5,-24 165.5,-30 159.5,-36 153.5,-36"/>
<text text-anchor="middle" x="123.5" y="-21.2" font-family="Helvetica,sans-Serif" font-size="11.00">Result</text>
<text text-anchor="middle" x="123.5" y="-9.2" font-family="Helvetica,sans-Serif" font-size="11.00">&lt;container&gt;</text>
</g>
<!-- WrappedTokenView&#45;&gt;Result -->
<g id="edge64" class="edge">
<title>WrappedTokenView&#45;&gt;Result</title>
<path fill="none" stroke="#90a4ae" stroke-width="0.8" d="M444.74,-359.99C355.13,-329.67 183.95,-256.86 114.5,-126 100.54,-99.7 107.5,-64.56 114.72,-41.86"/>
<polygon fill="#90a4ae" stroke="#90a4ae" stroke-width="0.8" points="116.74,-42.44 116.64,-36.08 112.75,-41.11 116.74,-42.44"/>
</g>
<!-- Seq -->
<g id="node40" class="node">
<title>Seq</title>
<path fill="#e8f5e9" stroke="#388e3c" d="M1757.5,-36C1757.5,-36 1697.5,-36 1697.5,-36 1691.5,-36 1685.5,-30 1685.5,-24 1685.5,-24 1685.5,-12 1685.5,-12 1685.5,-6 1691.5,0 1697.5,0 1697.5,0 1757.5,0 1757.5,0 1763.5,0 1769.5,-6 1769.5,-12 1769.5,-12 1769.5,-24 1769.5,-24 1769.5,-30 1763.5,-36 1757.5,-36"/>
<text text-anchor="middle" x="1727.5" y="-21.2" font-family="Helvetica,sans-Serif" font-size="11.00">Seq</text>
<text text-anchor="middle" x="1727.5" y="-9.2" font-family="Helvetica,sans-Serif" font-size="11.00">&lt;container&gt;</text>
</g>
<!-- WrappedTokenView&#45;&gt;Seq -->
<g id="edge65" class="edge">
<title>WrappedTokenView&#45;&gt;Seq</title>
<path fill="none" stroke="#90a4ae" stroke-width="0.8" d="M561.78,-374C789.98,-362.56 1589.03,-321.45 1610.5,-306 1699.23,-242.14 1720.82,-98.88 1725.94,-42.46"/>
<polygon fill="#90a4ae" stroke="#90a4ae" stroke-width="0.8" points="1728.05,-42.5 1726.47,-36.34 1723.86,-42.14 1728.05,-42.5"/>
</g>
<!-- WrappedUnmapToken -->
<g id="node3" class="node">
<title>WrappedUnmapToken</title>
<path fill="#e3f2fd" stroke="#1976d2" d="M1155,-396C1155,-396 1046,-396 1046,-396 1040,-396 1034,-390 1034,-384 1034,-384 1034,-372 1034,-372 1034,-366 1040,-360 1046,-360 1046,-360 1155,-360 1155,-360 1161,-360 1167,-366 1167,-372 1167,-372 1167,-384 1167,-384 1167,-390 1161,-396 1155,-396"/>
<text text-anchor="middle" x="1100.5" y="-381.2" font-family="Helvetica,sans-Serif" font-size="11.00">WrappedUnmapToken</text>
<text text-anchor="middle" x="1100.5" y="-369.2" font-family="Helvetica,sans-Serif" font-size="11.00">&lt;struct&gt;</text>
</g>
<!-- WrappedUnmapToken&#45;&gt;State -->
<g id="edge67" class="edge">
<title>WrappedUnmapToken&#45;&gt;State</title>
<path fill="none" stroke="#90a4ae" stroke-width="0.8" d="M1037.84,-359.93C972.17,-342.04 871.07,-314.49 816.18,-299.54"/>
<polygon fill="#90a4ae" stroke="#90a4ae" stroke-width="0.8" points="816.71,-297.51 810.37,-297.96 815.61,-301.56 816.71,-297.51"/>
</g>
<!-- WrappedUnmapToken&#45;&gt;Token -->
<g id="edge68" class="edge">
<title>WrappedUnmapToken&#45;&gt;Token</title>
<path fill="none" stroke="#90a4ae" stroke-width="0.8" d="M1167.16,-374.33C1306.55,-367.95 1624.03,-349.05 1722.5,-306 1857.35,-247.05 1846.63,-164.6 1973.5,-90 1980.18,-86.07 2066.62,-54.8 2121.53,-35.09"/>
<polygon fill="#90a4ae" stroke="#90a4ae" stroke-width="0.8" points="2122.46,-36.98 2127.4,-32.98 2121.04,-33.03 2122.46,-36.98"/>
</g>
<!-- Lbl -->
<g id="node4" class="node">
<title>Lbl</title>
<path fill="#fff3e0" stroke="#f57c00" d="M1590,-306C1590,-306 1551,-306 1551,-306 1545,-306 1539,-300 1539,-294 1539,-294 1539,-282 1539,-282 1539,-276 1545,-270 1551,-270 1551,-270 1590,-270 1590,-270 1596,-270 1602,-276 1602,-282 1602,-282 1602,-294 1602,-294 1602,-300 1596,-306 1590,-306"/>
<text text-anchor="middle" x="1570.5" y="-291.2" font-family="Helvetica,sans-Serif" font-size="11.00">Lbl</text>
<text text-anchor="middle" x="1570.5" y="-279.2" font-family="Helvetica,sans-Serif" font-size="11.00">&lt;enum&gt;</text>
</g>
<!-- MemOp -->
<g id="node9" class="node">
<title>MemOp</title>
<path fill="#fff3e0" stroke="#f57c00" d="M1788,-216C1788,-216 1749,-216 1749,-216 1743,-216 1737,-210 1737,-204 1737,-204 1737,-192 1737,-192 1737,-186 1743,-180 1749,-180 1749,-180 1788,-180 1788,-180 1794,-180 1800,-186 1800,-192 1800,-192 1800,-204 1800,-204 1800,-210 1794,-216 1788,-216"/>
<text text-anchor="middle" x="1768.5" y="-201.2" font-family="Helvetica,sans-Serif" font-size="11.00">MemOp</text>
<text text-anchor="middle" x="1768.5" y="-189.2" font-family="Helvetica,sans-Serif" font-size="11.00">&lt;enum&gt;</text>
</g>
<!-- Lbl&#45;&gt;MemOp -->
<g id="edge18" class="edge">
<title>Lbl&#45;&gt;MemOp</title>
<path fill="none" stroke="#90a4ae" stroke-width="0.8" d="M1602.31,-272.86C1637.38,-257.27 1693.76,-232.22 1730.97,-215.68"/>
<polygon fill="#90a4ae" stroke="#90a4ae" stroke-width="0.8" points="1732.14,-217.46 1736.77,-213.1 1730.43,-213.62 1732.14,-217.46"/>
</g>
<!-- Core -->
<g id="node27" class="node">
<title>Core</title>
<path fill="#e3f2fd" stroke="#1976d2" d="M1116,-36C1116,-36 1075,-36 1075,-36 1069,-36 1063,-30 1063,-24 1063,-24 1063,-12 1063,-12 1063,-6 1069,0 1075,0 1075,0 1116,0 1116,0 1122,0 1128,-6 1128,-12 1128,-12 1128,-24 1128,-24 1128,-30 1122,-36 1116,-36"/>
<text text-anchor="middle" x="1095.5" y="-21.2" font-family="Helvetica,sans-Serif" font-size="11.00">Core</text>
<text text-anchor="middle" x="1095.5" y="-9.2" font-family="Helvetica,sans-Serif" font-size="11.00">&lt;struct&gt;</text>
</g>
<!-- Lbl&#45;&gt;Core -->
<g id="edge17" class="edge">
<title>Lbl&#45;&gt;Core</title>
<path fill="none" stroke="#90a4ae" stroke-width="0.8" d="M1538.77,-287.55C1483.54,-286.77 1369.16,-277.28 1301.5,-216 1257.2,-175.88 1295.41,-133.57 1254.5,-90 1222.13,-55.52 1169.94,-36.67 1134.24,-27.22"/>
<polygon fill="#90a4ae" stroke="#90a4ae" stroke-width="0.8" points="1134.56,-25.13 1128.22,-25.67 1133.51,-29.2 1134.56,-25.13"/>
</g>
<!-- Lbl&#45;&gt;MemRegion -->
<g id="edge19" class="edge">
<title>Lbl&#45;&gt;MemRegion</title>
<path fill="none" stroke="#90a4ae" stroke-width="0.8" d="M1567.71,-269.8C1561.84,-235.16 1546.84,-154.74 1524.5,-90 1518.76,-73.36 1510.38,-55.39 1503.5,-41.69"/>
<polygon fill="#90a4ae" stroke="#90a4ae" stroke-width="0.8" points="1505.25,-40.49 1500.66,-36.09 1501.51,-42.39 1505.25,-40.49"/>
</g>
<!-- RLbl -->
<g id="node5" class="node">
<title>RLbl</title>
<path fill="#fff3e0" stroke="#f57c00" d="M1172,-306C1172,-306 1133,-306 1133,-306 1127,-306 1121,-300 1121,-294 1121,-294 1121,-282 1121,-282 1121,-276 1127,-270 1133,-270 1133,-270 1172,-270 1172,-270 1178,-270 1184,-276 1184,-282 1184,-282 1184,-294 1184,-294 1184,-300 1178,-306 1172,-306"/>
<text text-anchor="middle" x="1152.5" y="-291.2" font-family="Helvetica,sans-Serif" font-size="11.00">RLbl</text>
<text text-anchor="middle" x="1152.5" y="-279.2" font-family="Helvetica,sans-Serif" font-size="11.00">&lt;enum&gt;</text>
</g>
<!-- RLbl&#45;&gt;MemOp -->
<g id="edge34" class="edge">
<title>RLbl&#45;&gt;MemOp</title>
<path fill="none" stroke="#90a4ae" stroke-width="0.8" d="M1184.09,-283.53C1266.63,-274.31 1495.42,-247.71 1684.5,-216 1699.65,-213.46 1716.24,-210.2 1730.65,-207.22"/>
<polygon fill="#90a4ae" stroke="#90a4ae" stroke-width="0.8" points="1731.24,-209.24 1736.68,-205.96 1730.38,-205.13 1731.24,-209.24"/>
</g>
<!-- RLbl&#45;&gt;Core -->
<g id="edge33" class="edge">
<title>RLbl&#45;&gt;Core</title>
<path fill="none" stroke="#90a4ae" stroke-width="0.8" d="M1152.2,-269.78C1151.22,-235.09 1146.95,-154.6 1128.5,-90 1123.7,-73.19 1115.39,-55.35 1108.31,-41.75"/>
<polygon fill="#90a4ae" stroke="#90a4ae" stroke-width="0.8" points="1110.04,-40.52 1105.37,-36.2 1106.33,-42.49 1110.04,-40.52"/>
</g>
<!-- RLbl&#45;&gt;Result -->
<g id="edge35" class="edge">
<title>RLbl&#45;&gt;Result</title>
<path fill="none" stroke="#90a4ae" stroke-width="0.8" d="M1120.88,-284.28C956.51,-269.83 204.59,-200.01 134.5,-126 113.52,-103.84 114.84,-66.38 118.54,-42.18"/>
<polygon fill="#90a4ae" stroke="#90a4ae" stroke-width="0.8" points="120.65,-42.29 119.58,-36.03 116.51,-41.59 120.65,-42.29"/>
</g>
<!-- History -->
<g id="node8" class="node">
<title>History</title>
<path fill="#e3f2fd" stroke="#1976d2" d="M798,-216C798,-216 757,-216 757,-216 751,-216 745,-210 745,-204 745,-204 745,-192 745,-192 745,-186 751,-180 757,-180 757,-180 798,-180 798,-180 804,-180 810,-186 810,-192 810,-192 810,-204 810,-204 810,-210 804,-216 798,-216"/>
<text text-anchor="middle" x="777.5" y="-201.2" font-family="Helvetica,sans-Serif" font-size="11.00">History</text>
<text text-anchor="middle" x="777.5" y="-189.2" font-family="Helvetica,sans-Serif" font-size="11.00">&lt;struct&gt;</text>
</g>
<!-- State&#45;&gt;History -->
<g id="edge40" class="edge">
<title>State&#45;&gt;History</title>
<path fill="none" stroke="#90a4ae" stroke-width="0.8" d="M777.5,-269.61C777.5,-256.03 777.5,-237.02 777.5,-222.14"/>
<polygon fill="#90a4ae" stroke="#90a4ae" stroke-width="0.8" points="779.6,-222.05 777.5,-216.05 775.4,-222.05 779.6,-222.05"/>
</g>
<!-- CoreState -->
<g id="node14" class="node">
<title>CoreState</title>
<path fill="#ffebee" stroke="#c62828" d="M209.5,-126C209.5,-126 155.5,-126 155.5,-126 149.5,-126 143.5,-120 143.5,-114 143.5,-114 143.5,-102 143.5,-102 143.5,-96 149.5,-90 155.5,-90 155.5,-90 209.5,-90 209.5,-90 215.5,-90 221.5,-96 221.5,-102 221.5,-102 221.5,-114 221.5,-114 221.5,-120 215.5,-126 209.5,-126"/>
<text text-anchor="middle" x="182.5" y="-111.2" font-family="Helvetica,sans-Serif" font-size="11.00">CoreState</text>
<text text-anchor="middle" x="182.5" y="-99.2" font-family="Helvetica,sans-Serif" font-size="11.00">&lt;external&gt;</text>
</g>
<!-- State&#45;&gt;CoreState -->
<g id="edge39" class="edge">
<title>State&#45;&gt;CoreState</title>
<path fill="none" stroke="#90a4ae" stroke-width="0.8" d="M744.68,-284.55C650.62,-277.13 381.78,-253.16 302.5,-216 259.85,-196.01 221.29,-155.88 199.95,-130.85"/>
<polygon fill="#90a4ae" stroke="#90a4ae" stroke-width="0.8" points="201.39,-129.29 195.92,-126.05 198.18,-132 201.39,-129.29"/>
</g>
<!-- State&#45;&gt;PTMem -->
<g id="edge44" class="edge">
<title>State&#45;&gt;PTMem</title>
<path fill="none" stroke="#90a4ae" stroke-width="0.8" d="M744.91,-281.66C701.96,-273.37 625.54,-254.23 571.5,-216 539.63,-193.45 513.61,-155.68 499.09,-131.57"/>
<polygon fill="#90a4ae" stroke="#90a4ae" stroke-width="0.8" points="500.86,-130.44 495.99,-126.35 497.25,-132.58 500.86,-130.44"/>
</g>
<!-- ShootdownVector -->
<g id="node21" class="node">
<title>ShootdownVector</title>
<path fill="#ffebee" stroke="#c62828" d="M1036,-126C1036,-126 949,-126 949,-126 943,-126 937,-120 937,-114 937,-114 937,-102 937,-102 937,-96 943,-90 949,-90 949,-90 1036,-90 1036,-90 1042,-90 1048,-96 1048,-102 1048,-102 1048,-114 1048,-114 1048,-120 1042,-126 1036,-126"/>
<text text-anchor="middle" x="992.5" y="-111.2" font-family="Helvetica,sans-Serif" font-size="11.00">ShootdownVector</text>
<text text-anchor="middle" x="992.5" y="-99.2" font-family="Helvetica,sans-Serif" font-size="11.00">&lt;external&gt;</text>
</g>
<!-- State&#45;&gt;ShootdownVector -->
<g id="edge48" class="edge">
<title>State&#45;&gt;ShootdownVector</title>
<path fill="none" stroke="#90a4ae" stroke-width="0.8" d="M798.12,-269.93C837.69,-237.17 924.17,-165.57 967.17,-129.97"/>
<polygon fill="#90a4ae" stroke="#90a4ae" stroke-width="0.8" points="968.66,-131.46 971.95,-126.02 965.99,-128.22 968.66,-131.46"/>
</g>
<!-- ThreadState -->
<g id="node22" class="node">
<title>ThreadState</title>
<path fill="#fff3e0" stroke="#f57c00" d="M309.5,-126C309.5,-126 251.5,-126 251.5,-126 245.5,-126 239.5,-120 239.5,-114 239.5,-114 239.5,-102 239.5,-102 239.5,-96 245.5,-90 251.5,-90 251.5,-90 309.5,-90 309.5,-90 315.5,-90 321.5,-96 321.5,-102 321.5,-102 321.5,-114 321.5,-114 321.5,-120 315.5,-126 309.5,-126"/>
<text text-anchor="middle" x="280.5" y="-111.2" font-family="Helvetica,sans-Serif" font-size="11.00">ThreadState</text>
<text text-anchor="middle" x="280.5" y="-99.2" font-family="Helvetica,sans-Serif" font-size="11.00">&lt;enum&gt;</text>
</g>
<!-- State&#45;&gt;ThreadState -->
<g id="edge49" class="edge">
<title>State&#45;&gt;ThreadState</title>
<path fill="none" stroke="#90a4ae" stroke-width="0.8" d="M744.92,-285.52C654.24,-280.84 401.24,-263.69 335.5,-216 307.6,-195.76 292.82,-157.15 285.83,-132.27"/>
<polygon fill="#90a4ae" stroke="#90a4ae" stroke-width="0.8" points="287.8,-131.51 284.22,-126.26 283.75,-132.6 287.8,-131.51"/>
</g>
<!-- Walk -->
<g id="node23" class="node">
<title>Walk</title>
<path fill="#e3f2fd" stroke="#1976d2" d="M1432,-126C1432,-126 1391,-126 1391,-126 1385,-126 1379,-120 1379,-114 1379,-114 1379,-102 1379,-102 1379,-96 1385,-90 1391,-90 1391,-90 1432,-90 1432,-90 1438,-90 1444,-96 1444,-102 1444,-102 1444,-114 1444,-114 1444,-120 1438,-126 1432,-126"/>
<text text-anchor="middle" x="1411.5" y="-111.2" font-family="Helvetica,sans-Serif" font-size="11.00">Walk</text>
<text text-anchor="middle" x="1411.5" y="-99.2" font-family="Helvetica,sans-Serif" font-size="11.00">&lt;struct&gt;</text>
</g>
<!-- State&#45;&gt;Walk -->
<g id="edge50" class="edge">
<title>State&#45;&gt;Walk</title>
<path fill="none" stroke="#90a4ae" stroke-width="0.8" d="M810.24,-285.28C929.88,-278.72 1338.8,-253.68 1382.5,-216 1406.45,-195.35 1411.6,-157.13 1412.22,-132.4"/>
<polygon fill="#90a4ae" stroke="#90a4ae" stroke-width="0.8" points="1414.33,-132.13 1412.29,-126.11 1410.13,-132.09 1414.33,-132.13"/>
</g>
<!-- Writes -->
<g id="node24" class="node">
<title>Writes</title>
<path fill="#e3f2fd" stroke="#1976d2" d="M907,-126C907,-126 866,-126 866,-126 860,-126 854,-120 854,-114 854,-114 854,-102 854,-102 854,-96 860,-90 866,-90 866,-90 907,-90 907,-90 913,-90 919,-96 919,-102 919,-102 919,-114 919,-114 919,-120 913,-126 907,-126"/>
<text text-anchor="middle" x="886.5" y="-111.2" font-family="Helvetica,sans-Serif" font-size="11.00">Writes</text>
<text text-anchor="middle" x="886.5" y="-99.2" font-family="Helvetica,sans-Serif" font-size="11.00">&lt;struct&gt;</text>
</g>
<!-- State&#45;&gt;Writes -->
<g id="edge51" class="edge">
<title>State&#45;&gt;Writes</title>
<path fill="none" stroke="#90a4ae" stroke-width="0.8" d="M787.95,-269.93C807.73,-237.64 850.62,-167.6 872.72,-131.51"/>
<polygon fill="#90a4ae" stroke="#90a4ae" stroke-width="0.8" points="874.74,-132.23 876.08,-126.02 871.16,-130.04 874.74,-132.23"/>
</g>
<!-- State&#45;&gt;Core -->
<g id="edge38" class="edge">
<title>State&#45;&gt;Core</title>
<path fill="none" stroke="#90a4ae" stroke-width="0.8" d="M810.41,-280.2C874.71,-265.02 1016.45,-221.92 1082.5,-126 1099.48,-101.35 1100.31,-65.73 1098.55,-42.47"/>
<polygon fill="#90a4ae" stroke="#90a4ae" stroke-width="0.8" points="1100.62,-42.05 1098,-36.26 1096.44,-42.42 1100.62,-42.05"/>
</g>
<!-- State&#45;&gt;Map -->
<g id="edge41" class="edge">
<title>State&#45;&gt;Map</title>
<path fill="none" stroke="#90a4ae" stroke-width="0.8" d="M764.76,-269.68C743.16,-240.26 698.04,-178.59 660.5,-126 639.64,-96.77 615.9,-62.77 600.82,-41.08"/>
<polygon fill="#90a4ae" stroke="#90a4ae" stroke-width="0.8" points="602.51,-39.84 597.36,-36.11 599.06,-42.24 602.51,-39.84"/>
</g>
<!-- State&#45;&gt;MemRegion -->
<g id="edge42" class="edge">
<title>State&#45;&gt;MemRegion</title>
<path fill="none" stroke="#90a4ae" stroke-width="0.8" d="M810.08,-285.14C932.17,-277.93 1358.1,-250.51 1407.5,-216 1465.92,-175.2 1483.95,-85.07 1489.32,-42.34"/>
<polygon fill="#90a4ae" stroke="#90a4ae" stroke-width="0.8" points="1491.43,-42.36 1490.05,-36.15 1487.26,-41.86 1491.43,-42.36"/>
</g>
<!-- Option -->
<g id="node36" class="node">
<title>Option</title>
<path fill="#e8f5e9" stroke="#388e3c" d="M379.5,-36C379.5,-36 319.5,-36 319.5,-36 313.5,-36 307.5,-30 307.5,-24 307.5,-24 307.5,-12 307.5,-12 307.5,-6 313.5,0 319.5,0 319.5,0 379.5,0 379.5,0 385.5,0 391.5,-6 391.5,-12 391.5,-12 391.5,-24 391.5,-24 391.5,-30 385.5,-36 379.5,-36"/>
<text text-anchor="middle" x="349.5" y="-21.2" font-family="Helvetica,sans-Serif" font-size="11.00">Option</text>
<text text-anchor="middle" x="349.5" y="-9.2" font-family="Helvetica,sans-Serif" font-size="11.00">&lt;container&gt;</text>
</g>
<!-- State&#45;&gt;Option -->
<g id="edge43" class="edge">
<title>State&#45;&gt;Option</title>
<path fill="none" stroke="#90a4ae" stroke-width="0.8" d="M744.75,-287.08C685.57,-285.67 559.22,-275.31 475.5,-216 412.19,-171.15 373.19,-83.48 357.48,-41.92"/>
<polygon fill="#90a4ae" stroke="#90a4ae" stroke-width="0.8" points="359.39,-41.02 355.33,-36.13 355.45,-42.48 359.39,-41.02"/>
</g>
<!-- Polarity -->
<g id="node37" class="node">
<title>Polarity</title>
<path fill="#fff3e0" stroke="#f57c00" d="M487,-36C487,-36 448,-36 448,-36 442,-36 436,-30 436,-24 436,-24 436,-12 436,-12 436,-6 442,0 448,0 448,0 487,0 487,0 493,0 499,-6 499,-12 499,-12 499,-24 499,-24 499,-30 493,-36 487,-36"/>
<text text-anchor="middle" x="467.5" y="-21.2" font-family="Helvetica,sans-Serif" font-size="11.00">Polarity</text>
<text text-anchor="middle" x="467.5" y="-9.2" font-family="Helvetica,sans-Serif" font-size="11.00">&lt;enum&gt;</text>
</g>
<!-- State&#45;&gt;Polarity -->
<g id="edge45" class="edge">
<title>State&#45;&gt;Polarity</title>
<path fill="none" stroke="#90a4ae" stroke-width="0.8" d="M744.93,-283.17C695.51,-276.18 599.98,-258.03 530.5,-216 483.16,-187.36 465.09,-177.35 444.5,-126 433.34,-98.15 444.69,-63.96 455.04,-41.83"/>
<polygon fill="#90a4ae" stroke="#90a4ae" stroke-width="0.8" points="457.04,-42.52 457.77,-36.2 453.26,-40.68 457.04,-42.52"/>
</g>
<!-- State&#45;&gt;Seq -->
<g id="edge46" class="edge">
<title>State&#45;&gt;Seq</title>
<path fill="none" stroke="#90a4ae" stroke-width="0.8" d="M810.06,-284.79C925.96,-276.72 1318,-247.67 1439.5,-216 1538.16,-190.28 1570.91,-189.72 1650.5,-126 1679.78,-102.56 1703.12,-65.29 1716.13,-41.5"/>
<polygon fill="#90a4ae" stroke="#90a4ae" stroke-width="0.8" points="1718.07,-42.33 1719.06,-36.05 1714.37,-40.34 1718.07,-42.33"/>
</g>
<!-- Set -->
<g id="node41" class="node">
<title>Set</title>
<path fill="#e8f5e9" stroke="#388e3c" d="M916.5,-36C916.5,-36 856.5,-36 856.5,-36 850.5,-36 844.5,-30 844.5,-24 844.5,-24 844.5,-12 844.5,-12 844.5,-6 850.5,0 856.5,0 856.5,0 916.5,0 916.5,0 922.5,0 928.5,-6 928.5,-12 928.5,-12 928.5,-24 928.5,-24 928.5,-30 922.5,-36 916.5,-36"/>
<text text-anchor="middle" x="886.5" y="-21.2" font-family="Helvetica,sans-Serif" font-size="11.00">Set</text>
<text text-anchor="middle" x="886.5" y="-9.2" font-family="Helvetica,sans-Serif" font-size="11.00">&lt;container&gt;</text>
</g>
<!-- State&#45;&gt;Set -->
<g id="edge47" class="edge">
<title>State&#45;&gt;Set</title>
<path fill="none" stroke="#90a4ae" stroke-width="0.8" d="M763.75,-269.83C753.73,-256.15 740.98,-236.03 735.5,-216 727.09,-185.25 739.44,-98.72 745.5,-90 767.22,-58.75 806.86,-40.51 838.59,-30.37"/>
<polygon fill="#90a4ae" stroke="#90a4ae" stroke-width="0.8" points="839.31,-32.34 844.42,-28.56 838.07,-28.33 839.31,-32.34"/>
</g>
<!-- Directory -->
<g id="node7" class="node">
<title>Directory</title>
<path fill="#e3f2fd" stroke="#1976d2" d="M2039.5,-216C2039.5,-216 1997.5,-216 1997.5,-216 1991.5,-216 1985.5,-210 1985.5,-204 1985.5,-204 1985.5,-192 1985.5,-192 1985.5,-186 1991.5,-180 1997.5,-180 1997.5,-180 2039.5,-180 2039.5,-180 2045.5,-180 2051.5,-186 2051.5,-192 2051.5,-192 2051.5,-204 2051.5,-204 2051.5,-210 2045.5,-216 2039.5,-216"/>
<text text-anchor="middle" x="2018.5" y="-201.2" font-family="Helvetica,sans-Serif" font-size="11.00">Directory</text>
<text text-anchor="middle" x="2018.5" y="-189.2" font-family="Helvetica,sans-Serif" font-size="11.00">&lt;struct&gt;</text>
</g>
<!-- Arch -->
<g id="node11" class="node">
<title>Arch</title>
<path fill="#e3f2fd" stroke="#1976d2" d="M2126,-126C2126,-126 2085,-126 2085,-126 2079,-126 2073,-120 2073,-114 2073,-114 2073,-102 2073,-102 2073,-96 2079,-90 2085,-90 2085,-90 2126,-90 2126,-90 2132,-90 2138,-96 2138,-102 2138,-102 2138,-114 2138,-114 2138,-120 2132,-126 2126,-126"/>
<text text-anchor="middle" x="2105.5" y="-111.2" font-family="Helvetica,sans-Serif" font-size="11.00">Arch</text>
<text text-anchor="middle" x="2105.5" y="-99.2" font-family="Helvetica,sans-Serif" font-size="11.00">&lt;struct&gt;</text>
</g>
<!-- Directory&#45;&gt;Arch -->
<g id="edge8" class="edge">
<title>Directory&#45;&gt;Arch</title>
<path fill="none" stroke="#90a4ae" stroke-width="0.8" d="M2035.69,-179.61C2049.6,-165.54 2069.26,-145.65 2084.18,-130.57"/>
<polygon fill="#90a4ae" stroke="#90a4ae" stroke-width="0.8" points="2085.92,-131.79 2088.64,-126.05 2082.93,-128.84 2085.92,-131.79"/>
</g>
<!-- NodeEntry -->
<g id="node16" class="node">
<title>NodeEntry</title>
<path fill="#fff3e0" stroke="#f57c00" d="M2042.5,-126C2042.5,-126 1994.5,-126 1994.5,-126 1988.5,-126 1982.5,-120 1982.5,-114 1982.5,-114 1982.5,-102 1982.5,-102 1982.5,-96 1988.5,-90 1994.5,-90 1994.5,-90 2042.5,-90 2042.5,-90 2048.5,-90 2054.5,-96 2054.5,-102 2054.5,-102 2054.5,-114 2054.5,-114 2054.5,-120 2048.5,-126 2042.5,-126"/>
<text text-anchor="middle" x="2018.5" y="-111.2" font-family="Helvetica,sans-Serif" font-size="11.00">NodeEntry</text>
<text text-anchor="middle" x="2018.5" y="-99.2" font-family="Helvetica,sans-Serif" font-size="11.00">&lt;enum&gt;</text>
</g>
<!-- Directory&#45;&gt;NodeEntry -->
<g id="edge9" class="edge">
<title>Directory&#45;&gt;NodeEntry</title>
<path fill="none" stroke="#d84315" stroke-width="1.5" d="M2013,-179.61C2011.53,-166.03 2011.36,-147.02 2012.48,-132.14"/>
<polygon fill="#d84315" stroke="#d84315" stroke-width="1.5" points="2014.58,-132.22 2013.03,-126.05 2010.39,-131.83 2014.58,-132.22"/>
</g>
<!-- Directory&#45;&gt;Seq -->
<g id="edge10" class="edge">
<title>Directory&#45;&gt;Seq</title>
<path fill="none" stroke="#90a4ae" stroke-width="0.8" d="M1994.56,-179.97C1963.66,-158.24 1907.99,-119.87 1858.5,-90 1828.21,-71.72 1792.89,-52.7 1766.57,-38.96"/>
<polygon fill="#90a4ae" stroke="#90a4ae" stroke-width="0.8" points="1767.38,-37.02 1761.09,-36.11 1765.44,-40.74 1767.38,-37.02"/>
</g>
<!-- History&#45;&gt;Walk -->
<g id="edge15" class="edge">
<title>History&#45;&gt;Walk</title>
<path fill="none" stroke="#90a4ae" stroke-width="0.8" d="M810.25,-192.45C917.49,-177.57 1257.82,-130.33 1372.98,-114.35"/>
<polygon fill="#90a4ae" stroke="#90a4ae" stroke-width="0.8" points="1373.29,-116.42 1378.94,-113.52 1372.71,-112.26 1373.29,-116.42"/>
</g>
<!-- History&#45;&gt;Writes -->
<g id="edge16" class="edge">
<title>History&#45;&gt;Writes</title>
<path fill="none" stroke="#90a4ae" stroke-width="0.8" d="M798.78,-179.82C816.33,-165.65 841.32,-145.47 860.15,-130.28"/>
<polygon fill="#90a4ae" stroke="#90a4ae" stroke-width="0.8" points="861.93,-131.54 865.28,-126.13 859.29,-128.27 861.93,-131.54"/>
</g>
<!-- History&#45;&gt;Core -->
<g id="edge11" class="edge">
<title>History&#45;&gt;Core</title>
<path fill="none" stroke="#90a4ae" stroke-width="0.8" d="M810.43,-197.98C867.76,-197.87 986.44,-189.36 1056.5,-126 1080.46,-104.33 1089.72,-66.73 1093.29,-42.37"/>
<polygon fill="#90a4ae" stroke="#90a4ae" stroke-width="0.8" points="1095.4,-42.4 1094.11,-36.17 1091.24,-41.84 1095.4,-42.4"/>
</g>
<!-- History&#45;&gt;Map -->
<g id="edge12" class="edge">
<title>History&#45;&gt;Map</title>
<path fill="none" stroke="#90a4ae" stroke-width="0.8" d="M759.09,-179.93C723.82,-147.24 646.84,-75.86 608.35,-40.18"/>
<polygon fill="#90a4ae" stroke="#90a4ae" stroke-width="0.8" points="609.68,-38.55 603.85,-36.02 606.83,-41.63 609.68,-38.55"/>
</g>
<!-- History&#45;&gt;Polarity -->
<g id="edge13" class="edge">
<title>History&#45;&gt;Polarity</title>
<path fill="none" stroke="#90a4ae" stroke-width="0.8" d="M747.78,-179.93C690.26,-146.91 564,-74.41 502.52,-39.11"/>
<polygon fill="#90a4ae" stroke="#90a4ae" stroke-width="0.8" points="503.38,-37.18 497.13,-36.02 501.29,-40.82 503.38,-37.18"/>
</g>
<!-- History&#45;&gt;Set -->
<g id="edge14" class="edge">
<title>History&#45;&gt;Set</title>
<path fill="none" stroke="#90a4ae" stroke-width="0.8" d="M767.24,-179.82C755.43,-157.58 739.69,-118.33 756.5,-90 774.21,-60.14 809.4,-42.03 838.7,-31.58"/>
<polygon fill="#90a4ae" stroke="#90a4ae" stroke-width="0.8" points="839.48,-33.53 844.47,-29.59 838.12,-29.56 839.48,-33.53"/>
</g>
<!-- LoadResult -->
<g id="node15" class="node">
<title>LoadResult</title>
<path fill="#fff3e0" stroke="#f57c00" d="M1838,-126C1838,-126 1787,-126 1787,-126 1781,-126 1775,-120 1775,-114 1775,-114 1775,-102 1775,-102 1775,-96 1781,-90 1787,-90 1787,-90 1838,-90 1838,-90 1844,-90 1850,-96 1850,-102 1850,-102 1850,-114 1850,-114 1850,-120 1844,-126 1838,-126"/>
<text text-anchor="middle" x="1812.5" y="-111.2" font-family="Helvetica,sans-Serif" font-size="11.00">LoadResult</text>
<text text-anchor="middle" x="1812.5" y="-99.2" font-family="Helvetica,sans-Serif" font-size="11.00">&lt;enum&gt;</text>
</g>
<!-- MemOp&#45;&gt;LoadResult -->
<g id="edge21" class="edge">
<title>MemOp&#45;&gt;LoadResult</title>
<path fill="none" stroke="#90a4ae" stroke-width="0.8" d="M1777.19,-179.61C1784.05,-165.91 1793.66,-146.68 1801.13,-131.75"/>
<polygon fill="#90a4ae" stroke="#90a4ae" stroke-width="0.8" points="1803.17,-132.36 1803.97,-126.05 1799.41,-130.48 1803.17,-132.36"/>
</g>
<!-- MemOp&#45;&gt;Seq -->
<g id="edge22" class="edge">
<title>MemOp&#45;&gt;Seq</title>
<path fill="none" stroke="#90a4ae" stroke-width="0.8" d="M1764.57,-179.93C1757.16,-147.77 1741.13,-78.17 1732.79,-41.95"/>
<polygon fill="#90a4ae" stroke="#90a4ae" stroke-width="0.8" points="1734.81,-41.39 1731.42,-36.02 1730.72,-42.33 1734.81,-41.39"/>
</g>
<!-- StoreResult -->
<g id="node42" class="node">
<title>StoreResult</title>
<path fill="#fff3e0" stroke="#f57c00" d="M1943.5,-36C1943.5,-36 1889.5,-36 1889.5,-36 1883.5,-36 1877.5,-30 1877.5,-24 1877.5,-24 1877.5,-12 1877.5,-12 1877.5,-6 1883.5,0 1889.5,0 1889.5,0 1943.5,0 1943.5,0 1949.5,0 1955.5,-6 1955.5,-12 1955.5,-12 1955.5,-24 1955.5,-24 1955.5,-30 1949.5,-36 1943.5,-36"/>
<text text-anchor="middle" x="1916.5" y="-21.2" font-family="Helvetica,sans-Serif" font-size="11.00">StoreResult</text>
<text text-anchor="middle" x="1916.5" y="-9.2" font-family="Helvetica,sans-Serif" font-size="11.00">&lt;enum&gt;</text>
</g>
<!-- MemOp&#45;&gt;StoreResult -->
<g id="edge23" class="edge">
<title>MemOp&#45;&gt;StoreResult</title>
<path fill="none" stroke="#90a4ae" stroke-width="0.8" d="M1795.73,-179.89C1814.96,-166.82 1840.43,-147.47 1858.5,-126 1880.33,-100.07 1897.57,-64.63 1907.41,-41.77"/>
<polygon fill="#90a4ae" stroke="#90a4ae" stroke-width="0.8" points="1909.34,-42.59 1909.75,-36.24 1905.48,-40.95 1909.34,-42.59"/>
</g>
<!-- Step -->
<g id="node10" class="node">
<title>Step</title>
<path fill="#fff3e0" stroke="#f57c00" d="M1362,-216C1362,-216 1323,-216 1323,-216 1317,-216 1311,-210 1311,-204 1311,-204 1311,-192 1311,-192 1311,-186 1317,-180 1323,-180 1323,-180 1362,-180 1362,-180 1368,-180 1374,-186 1374,-192 1374,-192 1374,-204 1374,-204 1374,-210 1368,-216 1362,-216"/>
<text text-anchor="middle" x="1342.5" y="-201.2" font-family="Helvetica,sans-Serif" font-size="11.00">Step</text>
<text text-anchor="middle" x="1342.5" y="-189.2" font-family="Helvetica,sans-Serif" font-size="11.00">&lt;enum&gt;</text>
</g>
<!-- Step&#45;&gt;Walk -->
<g id="edge55" class="edge">
<title>Step&#45;&gt;Walk</title>
<path fill="none" stroke="#90a4ae" stroke-width="0.8" d="M1356.13,-179.61C1367.07,-165.66 1382.49,-145.99 1394.28,-130.96"/>
<polygon fill="#90a4ae" stroke="#90a4ae" stroke-width="0.8" points="1396.08,-132.07 1398.13,-126.05 1392.78,-129.48 1396.08,-132.07"/>
</g>
<!-- Step&#45;&gt;Core -->
<g id="edge52" class="edge">
<title>Step&#45;&gt;Core</title>
<path fill="none" stroke="#90a4ae" stroke-width="0.8" d="M1338.1,-179.72C1331.28,-156.27 1315.99,-114.5 1288.5,-90 1244.42,-50.72 1176.76,-32.56 1134.37,-24.63"/>
<polygon fill="#90a4ae" stroke="#90a4ae" stroke-width="0.8" points="1134.58,-22.53 1128.31,-23.53 1133.84,-26.66 1134.58,-22.53"/>
</g>
<!-- Step&#45;&gt;MemRegion -->
<g id="edge53" class="edge">
<title>Step&#45;&gt;MemRegion</title>
<path fill="none" stroke="#90a4ae" stroke-width="0.8" d="M1342.84,-179.69C1344.12,-156.95 1349.33,-116.78 1369.5,-90 1388.69,-64.52 1419.9,-46.6 1445.95,-35.13"/>
<polygon fill="#90a4ae" stroke="#90a4ae" stroke-width="0.8" points="1447.08,-36.93 1451.77,-32.64 1445.42,-33.07 1447.08,-36.93"/>
</g>
<!-- Step&#45;&gt;Option -->
<g id="edge54" class="edge">
<title>Step&#45;&gt;Option</title>
<path fill="none" stroke="#90a4ae" stroke-width="0.8" d="M1310.82,-194.69C1222.48,-187.93 966.12,-166.06 756.5,-126 624.84,-100.84 472.85,-56.78 397.29,-33.84"/>
<polygon fill="#90a4ae" stroke="#90a4ae" stroke-width="0.8" points="397.9,-31.83 391.54,-32.09 396.67,-35.85 397.9,-31.83"/>
</g>
<!-- ArchLayer -->
<g id="node25" class="node">
<title>ArchLayer</title>
<path fill="#e3f2fd" stroke="#1976d2" d="M2097.5,-36C2097.5,-36 2051.5,-36 2051.5,-36 2045.5,-36 2039.5,-30 2039.5,-24 2039.5,-24 2039.5,-12 2039.5,-12 2039.5,-6 2045.5,0 2051.5,0 2051.5,0 2097.5,0 2097.5,0 2103.5,0 2109.5,-6 2109.5,-12 2109.5,-12 2109.5,-24 2109.5,-24 2109.5,-30 2103.5,-36 2097.5,-36"/>
<text text-anchor="middle" x="2074.5" y="-21.2" font-family="Helvetica,sans-Serif" font-size="11.00">ArchLayer</text>
<text text-anchor="middle" x="2074.5" y="-9.2" font-family="Helvetica,sans-Serif" font-size="11.00">&lt;struct&gt;</text>
</g>
<!-- Arch&#45;&gt;ArchLayer -->
<g id="edge1" class="edge">
<title>Arch&#45;&gt;ArchLayer</title>
<path fill="none" stroke="#90a4ae" stroke-width="0.8" d="M2099.38,-89.61C2094.55,-75.91 2087.77,-56.68 2082.51,-41.75"/>
<polygon fill="#90a4ae" stroke="#90a4ae" stroke-width="0.8" points="2084.48,-41.01 2080.51,-36.05 2080.52,-42.41 2084.48,-41.01"/>
</g>
<!-- Arch&#45;&gt;Seq -->
<g id="edge2" class="edge">
<title>Arch&#45;&gt;Seq</title>
<path fill="none" stroke="#90a4ae" stroke-width="0.8" d="M2072.68,-93.08C2069.6,-91.97 2066.51,-90.92 2063.5,-90 1963.1,-59.34 1841.87,-37.27 1775.95,-26.47"/>
<polygon fill="#90a4ae" stroke="#90a4ae" stroke-width="0.8" points="1776,-24.36 1769.75,-25.47 1775.33,-28.5 1776,-24.36"/>
</g>
<!-- ArchExec -->
<g id="node12" class="node">
<title>ArchExec</title>
<path fill="#e3f2fd" stroke="#1976d2" d="M2292,-126C2292,-126 2251,-126 2251,-126 2245,-126 2239,-120 2239,-114 2239,-114 2239,-102 2239,-102 2239,-96 2245,-90 2251,-90 2251,-90 2292,-90 2292,-90 2298,-90 2304,-96 2304,-102 2304,-102 2304,-114 2304,-114 2304,-120 2298,-126 2292,-126"/>
<text text-anchor="middle" x="2271.5" y="-111.2" font-family="Helvetica,sans-Serif" font-size="11.00">ArchExec</text>
<text text-anchor="middle" x="2271.5" y="-99.2" font-family="Helvetica,sans-Serif" font-size="11.00">&lt;struct&gt;</text>
</g>
<!-- ArchLayerExec -->
<g id="node26" class="node">
<title>ArchLayerExec</title>
<path fill="#e3f2fd" stroke="#1976d2" d="M2307.5,-36C2307.5,-36 2235.5,-36 2235.5,-36 2229.5,-36 2223.5,-30 2223.5,-24 2223.5,-24 2223.5,-12 2223.5,-12 2223.5,-6 2229.5,0 2235.5,0 2235.5,0 2307.5,0 2307.5,0 2313.5,0 2319.5,-6 2319.5,-12 2319.5,-12 2319.5,-24 2319.5,-24 2319.5,-30 2313.5,-36 2307.5,-36"/>
<text text-anchor="middle" x="2271.5" y="-21.2" font-family="Helvetica,sans-Serif" font-size="11.00">ArchLayerExec</text>
<text text-anchor="middle" x="2271.5" y="-9.2" font-family="Helvetica,sans-Serif" font-size="11.00">&lt;struct&gt;</text>
</g>
<!-- ArchExec&#45;&gt;ArchLayerExec -->
<g id="edge3" class="edge">
<title>ArchExec&#45;&gt;ArchLayerExec</title>
<path fill="none" stroke="#90a4ae" stroke-width="0.8" d="M2271.5,-89.61C2271.5,-76.03 2271.5,-57.02 2271.5,-42.14"/>
<polygon fill="#90a4ae" stroke="#90a4ae" stroke-width="0.8" points="2273.6,-42.05 2271.5,-36.05 2269.4,-42.05 2273.6,-42.05"/>
</g>
<!-- Constants -->
<g id="node13" class="node">
<title>Constants</title>
<path fill="#e3f2fd" stroke="#1976d2" d="M823.5,-126C823.5,-126 777.5,-126 777.5,-126 771.5,-126 765.5,-120 765.5,-114 765.5,-114 765.5,-102 765.5,-102 765.5,-96 771.5,-90 777.5,-90 777.5,-90 823.5,-90 823.5,-90 829.5,-90 835.5,-96 835.5,-102 835.5,-102 835.5,-114 835.5,-114 835.5,-120 829.5,-126 823.5,-126"/>
<text text-anchor="middle" x="800.5" y="-111.2" font-family="Helvetica,sans-Serif" font-size="11.00">Constants</text>
<text text-anchor="middle" x="800.5" y="-99.2" font-family="Helvetica,sans-Serif" font-size="11.00">&lt;struct&gt;</text>
</g>
<!-- Constants&#45;&gt;Core -->
<g id="edge4" class="edge">
<title>Constants&#45;&gt;Core</title>
<path fill="none" stroke="#90a4ae" stroke-width="0.8" d="M835.94,-92.98C838.82,-91.94 841.7,-90.93 844.5,-90 918.8,-65.2 1007.28,-41.5 1056.86,-28.73"/>
<polygon fill="#90a4ae" stroke="#90a4ae" stroke-width="0.8" points="1057.42,-30.76 1062.71,-27.23 1056.38,-26.69 1057.42,-30.76"/>
</g>
<!-- Constants&#45;&gt;Map -->
<g id="edge5" class="edge">
<title>Constants&#45;&gt;Map</title>
<path fill="none" stroke="#90a4ae" stroke-width="0.8" d="M765.48,-92.67C729.41,-77.9 672.98,-54.8 632.93,-38.41"/>
<polygon fill="#90a4ae" stroke="#90a4ae" stroke-width="0.8" points="633.49,-36.37 627.14,-36.04 631.9,-40.26 633.49,-36.37"/>
</g>
<!-- CoreState&#45;&gt;Option -->
<g id="edge6" class="edge">
<title>CoreState&#45;&gt;Option</title>
<path fill="none" stroke="#90a4ae" stroke-width="0.8" d="M215.1,-89.82C242.68,-75.29 282.26,-54.43 311.32,-39.12"/>
<polygon fill="#90a4ae" stroke="#90a4ae" stroke-width="0.8" points="312.66,-40.79 316.99,-36.13 310.7,-37.07 312.66,-40.79"/>
</g>
<!-- CoreState&#45;&gt;Result -->
<g id="edge7" class="edge">
<title>CoreState&#45;&gt;Result</title>
<path fill="none" stroke="#90a4ae" stroke-width="0.8" d="M170.84,-89.61C161.57,-75.78 148.53,-56.34 138.49,-41.35"/>
<polygon fill="#90a4ae" stroke="#90a4ae" stroke-width="0.8" points="140.02,-39.86 134.93,-36.05 136.53,-42.2 140.02,-39.86"/>
</g>
<!-- LoadResult&#45;&gt;Seq -->
<g id="edge20" class="edge">
<title>LoadResult&#45;&gt;Seq</title>
<path fill="none" stroke="#90a4ae" stroke-width="0.8" d="M1795.71,-89.61C1782.11,-75.54 1762.9,-55.65 1748.33,-40.57"/>
<polygon fill="#90a4ae" stroke="#90a4ae" stroke-width="0.8" points="1749.65,-38.91 1743.97,-36.05 1746.63,-41.82 1749.65,-38.91"/>
</g>
<!-- NodeEntry&#45;&gt;Directory -->
<g id="edge24" class="edge">
<title>NodeEntry&#45;&gt;Directory</title>
<path fill="none" stroke="#d84315" stroke-width="1.5" d="M2023.97,-126.05C2025.45,-139.55 2025.65,-158.55 2024.55,-173.49"/>
<polygon fill="#d84315" stroke="#d84315" stroke-width="1.5" points="2022.45,-173.45 2024,-179.61 2026.63,-173.83 2022.45,-173.45"/>
</g>
<!-- PDE -->
<g id="node17" class="node">
<title>PDE</title>
<path fill="#e3f2fd" stroke="#1976d2" d="M2400,-126C2400,-126 2359,-126 2359,-126 2353,-126 2347,-120 2347,-114 2347,-114 2347,-102 2347,-102 2347,-96 2353,-90 2359,-90 2359,-90 2400,-90 2400,-90 2406,-90 2412,-96 2412,-102 2412,-102 2412,-114 2412,-114 2412,-120 2406,-126 2400,-126"/>
<text text-anchor="middle" x="2379.5" y="-111.2" font-family="Helvetica,sans-Serif" font-size="11.00">PDE</text>
<text text-anchor="middle" x="2379.5" y="-99.2" font-family="Helvetica,sans-Serif" font-size="11.00">&lt;struct&gt;</text>
</g>
<!-- Ghost -->
<g id="node31" class="node">
<title>Ghost</title>
<path fill="#e8f5e9" stroke="#388e3c" d="M2409.5,-36C2409.5,-36 2349.5,-36 2349.5,-36 2343.5,-36 2337.5,-30 2337.5,-24 2337.5,-24 2337.5,-12 2337.5,-12 2337.5,-6 2343.5,0 2349.5,0 2349.5,0 2409.5,0 2409.5,0 2415.5,0 2421.5,-6 2421.5,-12 2421.5,-12 2421.5,-24 2421.5,-24 2421.5,-30 2415.5,-36 2409.5,-36"/>
<text text-anchor="middle" x="2379.5" y="-21.2" font-family="Helvetica,sans-Serif" font-size="11.00">Ghost</text>
<text text-anchor="middle" x="2379.5" y="-9.2" font-family="Helvetica,sans-Serif" font-size="11.00">&lt;container&gt;</text>
</g>
<!-- PDE&#45;&gt;Ghost -->
<g id="edge25" class="edge">
<title>PDE&#45;&gt;Ghost</title>
<path fill="none" stroke="#90a4ae" stroke-width="0.8" d="M2379.5,-89.61C2379.5,-76.03 2379.5,-57.02 2379.5,-42.14"/>
<polygon fill="#90a4ae" stroke="#90a4ae" stroke-width="0.8" points="2381.6,-42.05 2379.5,-36.05 2377.4,-42.05 2381.6,-42.05"/>
</g>
<!-- PTDir -->
<g id="node18" class="node">
<title>PTDir</title>
<path fill="#e3f2fd" stroke="#1976d2" d="M1234,-126C1234,-126 1193,-126 1193,-126 1187,-126 1181,-120 1181,-114 1181,-114 1181,-102 1181,-102 1181,-96 1187,-90 1193,-90 1193,-90 1234,-90 1234,-90 1240,-90 1246,-96 1246,-102 1246,-102 1246,-114 1246,-114 1246,-120 1240,-126 1234,-126"/>
<text text-anchor="middle" x="1213.5" y="-111.2" font-family="Helvetica,sans-Serif" font-size="11.00">PTDir</text>
<text text-anchor="middle" x="1213.5" y="-99.2" font-family="Helvetica,sans-Serif" font-size="11.00">&lt;struct&gt;</text>
</g>
<!-- PTDir&#45;&gt;MemRegion -->
<g id="edge26" class="edge">
<title>PTDir&#45;&gt;MemRegion</title>
<path fill="none" stroke="#90a4ae" stroke-width="0.8" d="M1246.21,-96.65C1295.65,-81 1389.58,-51.26 1445.77,-33.48"/>
<polygon fill="#90a4ae" stroke="#90a4ae" stroke-width="0.8" points="1446.67,-35.39 1451.76,-31.58 1445.4,-31.39 1446.67,-35.39"/>
</g>
<!-- PTDir&#45;&gt;Option -->
<g id="edge27" class="edge">
<title>PTDir&#45;&gt;Option</title>
<path fill="none" stroke="#90a4ae" stroke-width="0.8" d="M1180.75,-103.24C1149,-99.64 1099.48,-94.17 1056.5,-90 776.79,-62.87 704.31,-78.38 426.5,-36 417.09,-34.56 407.1,-32.65 397.55,-30.63"/>
<polygon fill="#90a4ae" stroke="#90a4ae" stroke-width="0.8" points="397.98,-28.58 391.67,-29.36 397.1,-32.68 397.98,-28.58"/>
</g>
<!-- PTDir&#45;&gt;Seq -->
<g id="edge28" class="edge">
<title>PTDir&#45;&gt;Seq</title>
<path fill="none" stroke="#90a4ae" stroke-width="0.8" d="M1246.23,-102.33C1319.08,-91.78 1500.08,-64.8 1650.5,-36 1659.85,-34.21 1669.81,-32.14 1679.35,-30.07"/>
<polygon fill="#90a4ae" stroke="#90a4ae" stroke-width="0.8" points="1679.81,-32.12 1685.23,-28.78 1678.92,-28.01 1679.81,-32.12"/>
</g>
<!-- PTDir&#45;&gt;Set -->
<g id="edge29" class="edge">
<title>PTDir&#45;&gt;Set</title>
<path fill="none" stroke="#90a4ae" stroke-width="0.8" d="M1180.95,-98.24C1123.09,-82.67 1002.07,-50.1 934.59,-31.94"/>
<polygon fill="#90a4ae" stroke="#90a4ae" stroke-width="0.8" points="934.97,-29.87 928.63,-30.34 933.88,-33.92 934.97,-29.87"/>
</g>
<!-- PTE -->
<g id="node19" class="node">
<title>PTE</title>
<path fill="#e3f2fd" stroke="#1976d2" d="M1630,-126C1630,-126 1589,-126 1589,-126 1583,-126 1577,-120 1577,-114 1577,-114 1577,-102 1577,-102 1577,-96 1583,-90 1589,-90 1589,-90 1630,-90 1630,-90 1636,-90 1642,-96 1642,-102 1642,-102 1642,-114 1642,-114 1642,-120 1636,-126 1630,-126"/>
<text text-anchor="middle" x="1609.5" y="-111.2" font-family="Helvetica,sans-Serif" font-size="11.00">PTE</text>
<text text-anchor="middle" x="1609.5" y="-99.2" font-family="Helvetica,sans-Serif" font-size="11.00">&lt;struct&gt;</text>
</g>
<!-- Flags -->
<g id="node29" class="node">
<title>Flags</title>
<path fill="#e3f2fd" stroke="#1976d2" d="M1630,-36C1630,-36 1589,-36 1589,-36 1583,-36 1577,-30 1577,-24 1577,-24 1577,-12 1577,-12 1577,-6 1583,0 1589,0 1589,0 1630,0 1630,0 1636,0 1642,-6 1642,-12 1642,-12 1642,-24 1642,-24 1642,-30 1636,-36 1630,-36"/>
<text text-anchor="middle" x="1609.5" y="-21.2" font-family="Helvetica,sans-Serif" font-size="11.00">Flags</text>
<text text-anchor="middle" x="1609.5" y="-9.2" font-family="Helvetica,sans-Serif" font-size="11.00">&lt;struct&gt;</text>
</g>
<!-- PTE&#45;&gt;Flags -->
<g id="edge30" class="edge">
<title>PTE&#45;&gt;Flags</title>
<path fill="none" stroke="#90a4ae" stroke-width="0.8" d="M1609.5,-89.61C1609.5,-76.03 1609.5,-57.02 1609.5,-42.14"/>
<polygon fill="#90a4ae" stroke="#90a4ae" stroke-width="0.8" points="1611.6,-42.05 1609.5,-36.05 1607.4,-42.05 1611.6,-42.05"/>
</g>
<!-- PTE&#45;&gt;MemRegion -->
<g id="edge31" class="edge">
<title>PTE&#45;&gt;MemRegion</title>
<path fill="none" stroke="#90a4ae" stroke-width="0.8" d="M1586.47,-89.82C1567.3,-75.53 1539.94,-55.13 1519.51,-39.89"/>
<polygon fill="#90a4ae" stroke="#90a4ae" stroke-width="0.8" points="1520.54,-38.04 1514.47,-36.13 1518.03,-41.4 1520.54,-38.04"/>
</g>
<!-- PTMem&#45;&gt;Map -->
<g id="edge32" class="edge">
<title>PTMem&#45;&gt;Map</title>
<path fill="none" stroke="#90a4ae" stroke-width="0.8" d="M506.06,-89.61C522.03,-75.42 544.65,-55.31 561.68,-40.18"/>
<polygon fill="#90a4ae" stroke="#90a4ae" stroke-width="0.8" points="563.23,-41.61 566.32,-36.05 560.44,-38.47 563.23,-41.61"/>
</g>
<!-- ShootdownVector&#45;&gt;Core -->
<g id="edge36" class="edge">
<title>ShootdownVector&#45;&gt;Core</title>
<path fill="none" stroke="#90a4ae" stroke-width="0.8" d="M1012.85,-89.61C1029.46,-75.42 1053,-55.31 1070.71,-40.18"/>
<polygon fill="#90a4ae" stroke="#90a4ae" stroke-width="0.8" points="1072.35,-41.54 1075.54,-36.05 1069.62,-38.35 1072.35,-41.54"/>
</g>
<!-- ShootdownVector&#45;&gt;Set -->
<g id="edge37" class="edge">
<title>ShootdownVector&#45;&gt;Set</title>
<path fill="none" stroke="#90a4ae" stroke-width="0.8" d="M971.81,-89.82C954.74,-75.65 930.43,-55.47 912.13,-40.28"/>
<polygon fill="#90a4ae" stroke="#90a4ae" stroke-width="0.8" points="913.1,-38.35 907.14,-36.13 910.41,-41.58 913.1,-38.35"/>
</g>
<!-- ThreadState&#45;&gt;Option -->
<g id="edge56" class="edge">
<title>ThreadState&#45;&gt;Option</title>
<path fill="none" stroke="#90a4ae" stroke-width="0.8" d="M294.13,-89.61C305.07,-75.66 320.49,-55.99 332.28,-40.96"/>
<polygon fill="#90a4ae" stroke="#90a4ae" stroke-width="0.8" points="334.08,-42.07 336.13,-36.05 330.78,-39.48 334.08,-42.07"/>
</g>
<!-- Walk&#45;&gt;Seq -->
<g id="edge57" class="edge">
<title>Walk&#45;&gt;Seq</title>
<path fill="none" stroke="#90a4ae" stroke-width="0.8" d="M1444.13,-97.91C1499.96,-82.36 1614.09,-50.58 1679.19,-32.45"/>
<polygon fill="#90a4ae" stroke="#90a4ae" stroke-width="0.8" points="1680.12,-34.38 1685.33,-30.74 1678.99,-30.33 1680.12,-34.38"/>
</g>
<!-- Writes&#45;&gt;Core -->
<g id="edge69" class="edge">
<title>Writes&#45;&gt;Core</title>
<path fill="none" stroke="#90a4ae" stroke-width="0.8" d="M919.16,-93.25C956.47,-77.54 1017.47,-51.85 1057.05,-35.19"/>
<polygon fill="#90a4ae" stroke="#90a4ae" stroke-width="0.8" points="1058.01,-37.06 1062.73,-32.8 1056.38,-33.19 1058.01,-37.06"/>
</g>
<!-- Writes&#45;&gt;Set -->
<g id="edge70" class="edge">
<title>Writes&#45;&gt;Set</title>
<path fill="none" stroke="#90a4ae" stroke-width="0.8" d="M886.5,-89.61C886.5,-76.03 886.5,-57.02 886.5,-42.14"/>
<polygon fill="#90a4ae" stroke="#90a4ae" stroke-width="0.8" points="888.6,-42.05 886.5,-36.05 884.4,-42.05 888.6,-42.05"/>
</g>
<!-- DoShootdown -->
<g id="node28" class="node">
<title>DoShootdown</title>
<path fill="#fff3e0" stroke="#f57c00" d="M2517.5,-36C2517.5,-36 2451.5,-36 2451.5,-36 2445.5,-36 2439.5,-30 2439.5,-24 2439.5,-24 2439.5,-12 2439.5,-12 2439.5,-6 2445.5,0 2451.5,0 2451.5,0 2517.5,0 2517.5,0 2523.5,0 2529.5,-6 2529.5,-12 2529.5,-12 2529.5,-24 2529.5,-24 2529.5,-30 2523.5,-36 2517.5,-36"/>
<text text-anchor="middle" x="2484.5" y="-21.2" font-family="Helvetica,sans-Serif" font-size="11.00">DoShootdown</text>
<text text-anchor="middle" x="2484.5" y="-9.2" font-family="Helvetica,sans-Serif" font-size="11.00">&lt;enum&gt;</text>
</g>
<!-- GPDE -->
<g id="node30" class="node">
<title>GPDE</title>
<path fill="#fff3e0" stroke="#f57c00" d="M2599,-36C2599,-36 2560,-36 2560,-36 2554,-36 2548,-30 2548,-24 2548,-24 2548,-12 2548,-12 2548,-6 2554,0 2560,0 2560,0 2599,0 2599,0 2605,0 2611,-6 2611,-12 2611,-12 2611,-24 2611,-24 2611,-30 2605,-36 2599,-36"/>
<text text-anchor="middle" x="2579.5" y="-21.2" font-family="Helvetica,sans-Serif" font-size="11.00">GPDE</text>
<text text-anchor="middle" x="2579.5" y="-9.2" font-family="Helvetica,sans-Serif" font-size="11.00">&lt;enum&gt;</text>
</g>
<!-- MemRegionExec -->
<g id="node34" class="node">
<title>MemRegionExec</title>
<path fill="#ffebee" stroke="#c62828" d="M2722,-36C2722,-36 2641,-36 2641,-36 2635,-36 2629,-30 2629,-24 2629,-24 2629,-12 2629,-12 2629,-6 2635,0 2641,0 2641,0 2722,0 2722,0 2728,0 2734,-6 2734,-12 2734,-12 2734,-24 2734,-24 2734,-30 2728,-36 2722,-36"/>
<text text-anchor="middle" x="2681.5" y="-21.2" font-family="Helvetica,sans-Serif" font-size="11.00">MemRegionExec</text>
<text text-anchor="middle" x="2681.5" y="-9.2" font-family="Helvetica,sans-Serif" font-size="11.00">&lt;external&gt;</text>
</g>
<!-- Progress -->
<g id="node38" class="node">
<title>Progress</title>
<path fill="#ffebee" stroke="#c62828" d="M2818.5,-36C2818.5,-36 2764.5,-36 2764.5,-36 2758.5,-36 2752.5,-30 2752.5,-24 2752.5,-24 2752.5,-12 2752.5,-12 2752.5,-6 2758.5,0 2764.5,0 2764.5,0 2818.5,0 2818.5,0 2824.5,0 2830.5,-6 2830.5,-12 2830.5,-12 2830.5,-24 2830.5,-24 2830.5,-30 2824.5,-36 2818.5,-36"/>
<text text-anchor="middle" x="2791.5" y="-21.2" font-family="Helvetica,sans-Serif" font-size="11.00">Progress</text>
<text text-anchor="middle" x="2791.5" y="-9.2" font-family="Helvetica,sans-Serif" font-size="11.00">&lt;external&gt;</text>
</g>
<!-- TokState -->
<g id="node43" class="node">
<title>TokState</title>
<path fill="#fff3e0" stroke="#f57c00" d="M2900,-36C2900,-36 2861,-36 2861,-36 2855,-36 2849,-30 2849,-24 2849,-24 2849,-12 2849,-12 2849,-6 2855,0 2861,0 2861,0 2900,0 2900,0 2906,0 2912,-6 2912,-12 2912,-12 2912,-24 2912,-24 2912,-30 2906,-36 2900,-36"/>
<text text-anchor="middle" x="2880.5" y="-21.2" font-family="Helvetica,sans-Serif" font-size="11.00">TokState</text>
<text text-anchor="middle" x="2880.5" y="-9.2" font-family="Helvetica,sans-Serif" font-size="11.00">&lt;enum&gt;</text>
</g>
<!-- WalkResult -->
<g id="node45" class="node">
<title>WalkResult</title>
<path fill="#fff3e0" stroke="#f57c00" d="M2993,-36C2993,-36 2942,-36 2942,-36 2936,-36 2930,-30 2930,-24 2930,-24 2930,-12 2930,-12 2930,-6 2936,0 2942,0 2942,0 2993,0 2993,0 2999,0 3005,-6 3005,-12 3005,-12 3005,-24 3005,-24 3005,-30 2999,-36 2993,-36"/>
<text text-anchor="middle" x="2967.5" y="-21.2" font-family="Helvetica,sans-Serif" font-size="11.00">WalkResult</text>
<text text-anchor="middle" x="2967.5" y="-9.2" font-family="Helvetica,sans-Serif" font-size="11.00">&lt;enum&gt;</text>
</g>
<!-- leg_struct -->
<g id="node46" class="node">
<title>leg_struct</title>
<path fill="#e3f2fd" stroke="#1976d2" d="M2393.5,-396C2393.5,-396 2363.5,-396 2363.5,-396 2357.5,-396 2351.5,-390 2351.5,-384 2351.5,-384 2351.5,-372 2351.5,-372 2351.5,-366 2357.5,-360 2363.5,-360 2363.5,-360 2393.5,-360 2393.5,-360 2399.5,-360 2405.5,-366 2405.5,-372 2405.5,-372 2405.5,-384 2405.5,-384 2405.5,-390 2399.5,-396 2393.5,-396"/>
<text text-anchor="middle" x="2378.5" y="-375.8" font-family="Helvetica,sans-Serif" font-size="9.00">struct</text>
</g>
<!-- leg_enum -->
<g id="node47" class="node">
<title>leg_enum</title>
<path fill="#fff3e0" stroke="#f57c00" d="M2321.5,-396C2321.5,-396 2291.5,-396 2291.5,-396 2285.5,-396 2279.5,-390 2279.5,-384 2279.5,-384 2279.5,-372 2279.5,-372 2279.5,-366 2285.5,-360 2291.5,-360 2291.5,-360 2321.5,-360 2321.5,-360 2327.5,-360 2333.5,-366 2333.5,-372 2333.5,-372 2333.5,-384 2333.5,-384 2333.5,-390 2327.5,-396 2321.5,-396"/>
<text text-anchor="middle" x="2306.5" y="-375.8" font-family="Helvetica,sans-Serif" font-size="9.00">enum</text>
</g>
<!-- leg_alias -->
<g id="node48" class="node">
<title>leg_alias</title>
<path fill="#f3e5f5" stroke="#7b1fa2" d="M2249.5,-396C2249.5,-396 2219.5,-396 2219.5,-396 2213.5,-396 2207.5,-390 2207.5,-384 2207.5,-384 2207.5,-372 2207.5,-372 2207.5,-366 2213.5,-360 2219.5,-360 2219.5,-360 2249.5,-360 2249.5,-360 2255.5,-360 2261.5,-366 2261.5,-372 2261.5,-372 2261.5,-384 2261.5,-384 2261.5,-390 2255.5,-396 2249.5,-396"/>
<text text-anchor="middle" x="2234.5" y="-375.8" font-family="Helvetica,sans-Serif" font-size="9.00">alias</text>
</g>
<!-- leg_union -->
<g id="node49" class="node">
<title>leg_union</title>
<path fill="#e0f7fa" stroke="#0097a7" d="M2177.5,-396C2177.5,-396 2147.5,-396 2147.5,-396 2141.5,-396 2135.5,-390 2135.5,-384 2135.5,-384 2135.5,-372 2135.5,-372 2135.5,-366 2141.5,-360 2147.5,-360 2147.5,-360 2177.5,-360 2177.5,-360 2183.5,-360 2189.5,-366 2189.5,-372 2189.5,-372 2189.5,-384 2189.5,-384 2189.5,-390 2183.5,-396 2177.5,-396"/>
<text text-anchor="middle" x="2162.5" y="-375.8" font-family="Helvetica,sans-Serif" font-size="9.00">union</text>
</g>
<!-- leg_container -->
<g id="node50" class="node">
<title>leg_container</title>
<path fill="#e8f5e9" stroke="#388e3c" d="M2105.5,-396C2105.5,-396 2075.5,-396 2075.5,-396 2069.5,-396 2063.5,-390 2063.5,-384 2063.5,-384 2063.5,-372 2063.5,-372 2063.5,-366 2069.5,-360 2075.5,-360 2075.5,-360 2105.5,-360 2105.5,-360 2111.5,-360 2117.5,-366 2117.5,-372 2117.5,-372 2117.5,-384 2117.5,-384 2117.5,-390 2111.5,-396 2105.5,-396"/>
<text text-anchor="middle" x="2090.5" y="-375.8" font-family="Helvetica,sans-Serif" font-size="9.00">container</text>
</g>
<!-- leg_primitive -->
<g id="node51" class="node">
<title>leg_primitive</title>
<path fill="#fafafa" stroke="#616161" d="M2033.5,-396C2033.5,-396 2003.5,-396 2003.5,-396 1997.5,-396 1991.5,-390 1991.5,-384 1991.5,-384 1991.5,-372 1991.5,-372 1991.5,-366 1997.5,-360 2003.5,-360 2003.5,-360 2033.5,-360 2033.5,-360 2039.5,-360 2045.5,-366 2045.5,-372 2045.5,-372 2045.5,-384 2045.5,-384 2045.5,-390 2039.5,-396 2033.5,-396"/>
<text text-anchor="middle" x="2018.5" y="-375.8" font-family="Helvetica,sans-Serif" font-size="9.00">primitive</text>
</g>
<!-- leg_external -->
<g id="node52" class="node">
<title>leg_external</title>
<path fill="#ffebee" stroke="#c62828" d="M1961.5,-396C1961.5,-396 1931.5,-396 1931.5,-396 1925.5,-396 1919.5,-390 1919.5,-384 1919.5,-384 1919.5,-372 1919.5,-372 1919.5,-366 1925.5,-360 1931.5,-360 1931.5,-360 1961.5,-360 1961.5,-360 1967.5,-360 1973.5,-366 1973.5,-372 1973.5,-372 1973.5,-384 1973.5,-384 1973.5,-390 1967.5,-396 1961.5,-396"/>
<text text-anchor="middle" x="1946.5" y="-375.8" font-family="Helvetica,sans-Serif" font-size="9.00">external</text>
</g>
</g>
</svg>
