<?xml version="1.0" encoding="UTF-8" standalone="no"?>
<!DOCTYPE svg PUBLIC "-//W3C//DTD SVG 1.1//EN"
 "http://www.w3.org/Graphics/SVG/1.1/DTD/svg11.dtd">
<!-- Generated by graphviz version 2.43.0 (0)
 -->
<!-- Title: storage_deps Pages: 1 -->
<svg width="2027pt" height="349pt"
 viewBox="0.00 0.00 2027.00 349.00" xmlns="http://www.w3.org/2000/svg" xmlns:xlink="http://www.w3.org/1999/xlink">
<g id="graph0" class="graph" transform="scale(1 1) rotate(0) translate(4 345)">
<title>storage_deps</title>
<polygon fill="white" stroke="transparent" points="-4,4 -4,-345 2023,-345 2023,4 -4,4"/>
<g id="clust5" class="cluster">
<title>cluster_legend</title>
<path fill="white" stroke="#9e9e9e" d="M1437.5,-262C1437.5,-262 1915.5,-262 1915.5,-262 1921.5,-262 1927.5,-268 1927.5,-274 1927.5,-274 1927.5,-321 1927.5,-321 1927.5,-327 1921.5,-333 1915.5,-333 1915.5,-333 1437.5,-333 1437.5,-333 1431.5,-333 1425.5,-327 1425.5,-321 1425.5,-321 1425.5,-274 1425.5,-274 1425.5,-268 1431.5,-262 1437.5,-262"/>
<text text-anchor="middle" x="1676.5" y="-321" font-family="Helvetica,sans-Serif" font-size="10.00" fill="#616161">legend</text>
</g>
<!-- PersistentMemoryRegionsView -->
<g id="node1" class="node">
<title>PersistentMemoryRegionsView</title>
<path fill="#e3f2fd" stroke="#1976d2" d="M509.5,-306C509.5,-306 349.5,-306 349.5,-306 343.5,-306 337.5,-300 337.5,-294 337.5,-294 337.5,-282 337.5,-282 337.5,-276 343.5,-270 349.5,-270 349.5,-270 509.5,-270 509.5,-270 515.5,-270 521.5,-276 521.5,-282 521.5,-282 521.5,-294 521.5,-294 521.5,-300 515.5,-306 509.5,-306"/>
<text text-anchor="middle" x="429.5" y="-291.2" font-family="Helvetica,sans-Serif" font-size="11.00">PersistentMemoryRegionsView</text>
<text text-anchor="middle" x="429.5" y="-279.2" font-family="Helvetica,sans-Serif" font-size="11.00">&lt;struct&gt;</text>
</g>
<!-- PersistentMemoryRegionView -->
<g id="node5" class="node">
<title>PersistentMemoryRegionView</title>
<path fill="#e3f2fd" stroke="#1976d2" d="M657.5,-216C657.5,-216 503.5,-216 503.5,-216 497.5,-216 491.5,-210 491.5,-204 491.5,-204 491.5,-192 491.5,-192 491.5,-186 497.5,-180 503.5,-180 503.5,-180 657.5,-180 657.5,-180 663.5,-180 669.5,-186 669.5,-192 669.5,-192 669.5,-204 669.5,-204 669.5,-210 663.5,-216 657.5,-216"/>
<text text-anchor="middle" x="580.5" y="-201.2" font-family="Helvetica,sans-Serif" font-size="11.00">PersistentMemoryRegionView</text>
<text text-anchor="middle" x="580.5" y="-189.2" font-family="Helvetica,sans-Serif" font-size="11.00">&lt;struct&gt;</text>
</g>
<!-- PersistentMemoryRegionsView&#45;&gt;PersistentMemoryRegionView -->
<g id="edge12" class="edge">
<title>PersistentMemoryRegionsView&#45;&gt;PersistentMemoryRegionView</title>
<path fill="none" stroke="#90a4ae" stroke-width="0.8" d="M458.97,-269.82C483.81,-255.35 519.4,-234.61 545.65,-219.31"/>
<polygon fill="#90a4ae" stroke="#90a4ae" stroke-width="0.8" points="546.98,-220.97 551.1,-216.13 544.86,-217.34 546.98,-220.97"/>
</g>
<!-- Seq -->
<g id="node26" class="node">
<title>Seq</title>
<path fill="#e8f5e9" stroke="#388e3c" d="M623.5,-36C623.5,-36 563.5,-36 563.5,-36 557.5,-36 551.5,-30 551.5,-24 551.5,-24 551.5,-12 551.5,-12 551.5,-6 557.5,0 563.5,0 563.5,0 623.5,0 623.5,0 629.5,0 635.5,-6 635.5,-12 635.5,-12 635.5,-24 635.5,-24 635.5,-30 629.5,-36 623.5,-36"/>
<text text-anchor="middle" x="593.5" y="-21.2" font-family="Helvetica,sans-Serif" font-size="11.00">Seq</text>
<text text-anchor="middle" x="593.5" y="-9.2" font-family="Helvetica,sans-Serif" font-size="11.00">&lt;container&gt;</text>
</g>
<!-- PersistentMemoryRegionsView&#45;&gt;Seq -->
<g id="edge13" class="edge">
<title>PersistentMemoryRegionsView&#45;&gt;Seq</title>
<path fill="none" stroke="#90a4ae" stroke-width="0.8" d="M399.94,-269.81C344.05,-235.17 232.92,-154.78 284.5,-90 316.58,-49.71 466.86,-30.39 545.4,-22.9"/>
<polygon fill="#90a4ae" stroke="#90a4ae" stroke-width="0.8" points="545.61,-24.99 551.39,-22.34 545.22,-20.81 545.61,-24.99"/>
</g>
<!-- WritablePersistentMemorySubregion -->
<g id="node2" class="node">
<title>WritablePersistentMemorySubregion</title>
<path fill="#e3f2fd" stroke="#1976d2" d="M1121,-306C1121,-306 930,-306 930,-306 924,-306 918,-300 918,-294 918,-294 918,-282 918,-282 918,-276 924,-270 930,-270 930,-270 1121,-270 1121,-270 1127,-270 1133,-276 1133,-282 1133,-282 1133,-294 1133,-294 1133,-300 1127,-306 1121,-306"/>
<text text-anchor="middle" x="1025.5" y="-291.2" font-family="Helvetica,sans-Serif" font-size="11.00">WritablePersistentMemorySubregion</text>
<text text-anchor="middle" x="1025.5" y="-279.2" font-family="Helvetica,sans-Serif" font-size="11.00">&lt;struct&gt;</text>
</g>
<!-- WritablePersistentMemorySubregion&#45;&gt;PersistentMemoryRegionView -->
<g id="edge21" class="edge">
<title>WritablePersistentMemorySubregion&#45;&gt;PersistentMemoryRegionView</title>
<path fill="none" stroke="#90a4ae" stroke-width="0.8" d="M939.44,-269.98C862.85,-254.84 751.15,-232.75 672.75,-217.24"/>
<polygon fill="#90a4ae" stroke="#90a4ae" stroke-width="0.8" points="672.98,-215.15 666.69,-216.04 672.17,-219.27 672.98,-215.15"/>
</g>
<!-- Ghost -->
<g id="node17" class="node">
<title>Ghost</title>
<path fill="#e8f5e9" stroke="#388e3c" d="M1072.5,-36C1072.5,-36 1012.5,-36 1012.5,-36 1006.5,-36 1000.5,-30 1000.5,-24 1000.5,-24 1000.5,-12 1000.5,-12 1000.5,-6 1006.5,0 1012.5,0 1012.5,0 1072.5,0 1072.5,0 1078.5,0 1084.5,-6 1084.5,-12 1084.5,-12 1084.5,-24 1084.5,-24 1084.5,-30 1078.5,-36 1072.5,-36"/>
<text text-anchor="middle" x="1042.5" y="-21.2" font-family="Helvetica,sans-Serif" font-size="11.00">Ghost</text>
<text text-anchor="middle" x="1042.5" y="-9.2" font-family="Helvetica,sans-Serif" font-size="11.00">&lt;container&gt;</text>
</g>
<!-- WritablePersistentMemorySubregion&#45;&gt;Ghost -->
<g id="edge19" class="edge">
<title>WritablePersistentMemorySubregion&#45;&gt;Ghost</title>
<path fill="none" stroke="#90a4ae" stroke-width="0.8" d="M1026.59,-269.83C1029.54,-223.31 1037.69,-94.84 1041.04,-42.08"/>
<polygon fill="#90a4ae" stroke="#90a4ae" stroke-width="0.8" points="1043.14,-42.15 1041.42,-36.03 1038.94,-41.88 1043.14,-42.15"/>
</g>
<!-- PersistentMemoryConstants -->
<g id="node23" class="node">
<title>PersistentMemoryConstants</title>
<path fill="#e3f2fd" stroke="#1976d2" d="M1360.5,-36C1360.5,-36 1214.5,-36 1214.5,-36 1208.5,-36 1202.5,-30 1202.5,-24 1202.5,-24 1202.5,-12 1202.5,-12 1202.5,-6 1208.5,0 1214.5,0 1214.5,0 1360.5,0 1360.5,0 1366.5,0 1372.5,-6 1372.5,-12 1372.5,-12 1372.5,-24 1372.5,-24 1372.5,-30 1366.5,-36 1360.5,-36"/>
<text text-anchor="middle" x="1287.5" y="-21.2" font-family="Helvetica,sans-Serif" font-size="11.00">PersistentMemoryConstants</text>
<text text-anchor="middle" x="1287.5" y="-9.2" font-family="Helvetica,sans-Serif" font-size="11.00">&lt;struct&gt;</text>
</g>
<!-- WritablePersistentMemorySubregion&#45;&gt;PersistentMemoryConstants -->
<g id="edge20" class="edge">
<title>WritablePersistentMemorySubregion&#45;&gt;PersistentMemoryConstants</title>
<path fill="none" stroke="#90a4ae" stroke-width="0.8" d="M1054.43,-269.81C1097.2,-243.28 1177.9,-188.79 1230.5,-126 1252.09,-100.23 1268.93,-64.96 1278.54,-42.08"/>
<polygon fill="#90a4ae" stroke="#90a4ae" stroke-width="0.8" points="1280.59,-42.61 1280.94,-36.26 1276.71,-41.01 1280.59,-42.61"/>
</g>
<!-- WriteRestrictedPersistentMemorySubregion -->
<g id="node3" class="node">
<title>WriteRestrictedPersistentMemorySubregion</title>
<path fill="#e3f2fd" stroke="#1976d2" d="M1403,-306C1403,-306 1172,-306 1172,-306 1166,-306 1160,-300 1160,-294 1160,-294 1160,-282 1160,-282 1160,-276 1166,-270 1172,-270 1172,-270 1403,-270 1403,-270 1409,-270 1415,-276 1415,-282 1415,-282 1415,-294 1415,-294 1415,-300 1409,-306 1403,-306"/>
<text text-anchor="middle" x="1287.5" y="-291.2" font-family="Helvetica,sans-Serif" font-size="11.00">WriteRestrictedPersistentMemorySubregion</text>
<text text-anchor="middle" x="1287.5" y="-279.2" font-family="Helvetica,sans-Serif" font-size="11.00">&lt;struct&gt;</text>
</g>
<!-- WriteRestrictedPersistentMemorySubregion&#45;&gt;PersistentMemoryRegionView -->
<g id="edge25" class="edge">
<title>WriteRestrictedPersistentMemorySubregion&#45;&gt;PersistentMemoryRegionView</title>
<path fill="none" stroke="#90a4ae" stroke-width="0.8" d="M1193.8,-269.95C1176.44,-267.08 1158.45,-264.29 1141.5,-262 936.57,-234.31 883.4,-243.91 678.5,-216 677.59,-215.88 676.68,-215.75 675.76,-215.62"/>
<polygon fill="#90a4ae" stroke="#90a4ae" stroke-width="0.8" points="675.89,-213.52 669.66,-214.75 675.3,-217.68 675.89,-213.52"/>
</g>
<!-- WriteRestrictedPersistentMemorySubregion&#45;&gt;Ghost -->
<g id="edge23" class="edge">
<title>WriteRestrictedPersistentMemorySubregion&#45;&gt;Ghost</title>
<path fill="none" stroke="#90a4ae" stroke-width="0.8" d="M1287.43,-269.79C1286.35,-232.22 1278.57,-142.05 1230.5,-90 1194.06,-50.55 1133.47,-32.87 1090.95,-25.04"/>
<polygon fill="#90a4ae" stroke="#90a4ae" stroke-width="0.8" points="1091.09,-22.94 1084.81,-23.96 1090.36,-27.07 1091.09,-22.94"/>
</g>
<!-- WriteRestrictedPersistentMemorySubregion&#45;&gt;PersistentMemoryConstants -->
<g id="edge24" class="edge">
<title>WriteRestrictedPersistentMemorySubregion&#45;&gt;PersistentMemoryConstants</title>
<path fill="none" stroke="#90a4ae" stroke-width="0.8" d="M1291.84,-269.92C1295.24,-255.63 1299.68,-234.63 1301.5,-216 1306.94,-160.27 1306.94,-145.73 1301.5,-90 1299.92,-73.84 1296.37,-55.91 1293.24,-42.11"/>
<polygon fill="#90a4ae" stroke="#90a4ae" stroke-width="0.8" points="1295.24,-41.45 1291.84,-36.08 1291.15,-42.4 1295.24,-41.45"/>
</g>
<!-- CrcDigest -->
<g id="node4" class="node">
<title>CrcDigest</title>
<path fill="#e3f2fd" stroke="#1976d2" d="M743.5,-216C743.5,-216 699.5,-216 699.5,-216 693.5,-216 687.5,-210 687.5,-204 687.5,-204 687.5,-192 687.5,-192 687.5,-186 693.5,-180 699.5,-180 699.5,-180 743.5,-180 743.5,-180 749.5,-180 755.5,-186 755.5,-192 755.5,-192 755.5,-204 755.5,-204 755.5,-210 749.5,-216 743.5,-216"/>
<text text-anchor="middle" x="721.5" y="-201.2" font-family="Helvetica,sans-Serif" font-size="11.00">CrcDigest</text>
<text text-anchor="middle" x="721.5" y="-189.2" font-family="Helvetica,sans-Serif" font-size="11.00">&lt;struct&gt;</text>
</g>
<!-- ExternalDigest -->
<g id="node8" class="node">
<title>ExternalDigest</title>
<path fill="#e3f2fd" stroke="#1976d2" d="M743.5,-126C743.5,-126 671.5,-126 671.5,-126 665.5,-126 659.5,-120 659.5,-114 659.5,-114 659.5,-102 659.5,-102 659.5,-96 665.5,-90 671.5,-90 671.5,-90 743.5,-90 743.5,-90 749.5,-90 755.5,-96 755.5,-102 755.5,-102 755.5,-114 755.5,-114 755.5,-120 749.5,-126 743.5,-126"/>
<text text-anchor="middle" x="707.5" y="-111.2" font-family="Helvetica,sans-Serif" font-size="11.00">ExternalDigest</text>
<text text-anchor="middle" x="707.5" y="-99.2" font-family="Helvetica,sans-Serif" font-size="11.00">&lt;struct&gt;</text>
</g>
<!-- CrcDigest&#45;&gt;ExternalDigest -->
<g id="edge2" class="edge">
<title>CrcDigest&#45;&gt;ExternalDigest</title>
<path fill="none" stroke="#90a4ae" stroke-width="0.8" d="M718.73,-179.61C716.57,-166.03 713.55,-147.02 711.18,-132.14"/>
<polygon fill="#90a4ae" stroke="#90a4ae" stroke-width="0.8" points="713.23,-131.65 710.21,-126.05 709.08,-132.31 713.23,-131.65"/>
</g>
<!-- CrcDigest&#45;&gt;Ghost -->
<g id="edge3" class="edge">
<title>CrcDigest&#45;&gt;Ghost</title>
<path fill="none" stroke="#90a4ae" stroke-width="0.8" d="M755.64,-185.42C790.93,-172.85 847.11,-151.19 892.5,-126 938.77,-100.32 987.88,-63.15 1016.83,-40.06"/>
<polygon fill="#90a4ae" stroke="#90a4ae" stroke-width="0.8" points="1018.28,-41.59 1021.65,-36.2 1015.66,-38.31 1018.28,-41.59"/>
</g>
<!-- CrcDigest&#45;&gt;Seq -->
<g id="edge4" class="edge">
<title>CrcDigest&#45;&gt;Seq</title>
<path fill="none" stroke="#90a4ae" stroke-width="0.8" d="M701.52,-179.99C686.32,-166.39 665.54,-146.31 650.5,-126 630.61,-99.14 613.46,-64.43 603.31,-41.94"/>
<polygon fill="#90a4ae" stroke="#90a4ae" stroke-width="0.8" points="605.12,-40.85 600.76,-36.22 601.28,-42.56 605.12,-40.85"/>
</g>
<!-- PersistentMemoryByte -->
<g id="node11" class="node">
<title>PersistentMemoryByte</title>
<path fill="#e3f2fd" stroke="#1976d2" d="M421.5,-126C421.5,-126 305.5,-126 305.5,-126 299.5,-126 293.5,-120 293.5,-114 293.5,-114 293.5,-102 293.5,-102 293.5,-96 299.5,-90 305.5,-90 305.5,-90 421.5,-90 421.5,-90 427.5,-90 433.5,-96 433.5,-102 433.5,-102 433.5,-114 433.5,-114 433.5,-120 427.5,-126 421.5,-126"/>
<text text-anchor="middle" x="363.5" y="-111.2" font-family="Helvetica,sans-Serif" font-size="11.00">PersistentMemoryByte</text>
<text text-anchor="middle" x="363.5" y="-99.2" font-family="Helvetica,sans-Serif" font-size="11.00">&lt;struct&gt;</text>
</g>
<!-- PersistentMemoryRegionView&#45;&gt;PersistentMemoryByte -->
<g id="edge10" class="edge">
<title>PersistentMemoryRegionView&#45;&gt;PersistentMemoryByte</title>
<path fill="none" stroke="#90a4ae" stroke-width="0.8" d="M538.4,-179.93C502.02,-165.17 449.45,-143.85 411.45,-128.44"/>
<polygon fill="#90a4ae" stroke="#90a4ae" stroke-width="0.8" points="411.83,-126.33 405.48,-126.02 410.25,-130.23 411.83,-126.33"/>
</g>
<!-- PersistentMemoryRegionView&#45;&gt;Seq -->
<g id="edge11" class="edge">
<title>PersistentMemoryRegionView&#45;&gt;Seq</title>
<path fill="none" stroke="#90a4ae" stroke-width="0.8" d="M581.75,-179.93C584.09,-147.9 589.14,-78.75 591.79,-42.4"/>
<polygon fill="#90a4ae" stroke="#90a4ae" stroke-width="0.8" points="593.91,-42.15 592.26,-36.02 589.73,-41.85 593.91,-42.15"/>
</g>
<!-- UntrustedLogImpl -->
<g id="node6" class="node">
<title>UntrustedLogImpl</title>
<path fill="#e3f2fd" stroke="#1976d2" d="M985.5,-216C985.5,-216 897.5,-216 897.5,-216 891.5,-216 885.5,-210 885.5,-204 885.5,-204 885.5,-192 885.5,-192 885.5,-186 891.5,-180 897.5,-180 897.5,-180 985.5,-180 985.5,-180 991.5,-180 997.5,-186 997.5,-192 997.5,-192 997.5,-204 997.5,-204 997.5,-210 991.5,-216 985.5,-216"/>
<text text-anchor="middle" x="941.5" y="-201.2" font-family="Helvetica,sans-Serif" font-size="11.00">UntrustedLogImpl</text>
<text text-anchor="middle" x="941.5" y="-189.2" font-family="Helvetica,sans-Serif" font-size="11.00">&lt;struct&gt;</text>
</g>
<!-- AbstractLogState -->
<g id="node7" class="node">
<title>AbstractLogState</title>
<path fill="#e3f2fd" stroke="#1976d2" d="M871.5,-126C871.5,-126 785.5,-126 785.5,-126 779.5,-126 773.5,-120 773.5,-114 773.5,-114 773.5,-102 773.5,-102 773.5,-96 779.5,-90 785.5,-90 785.5,-90 871.5,-90 871.5,-90 877.5,-90 883.5,-96 883.5,-102 883.5,-102 883.5,-114 883.5,-114 883.5,-120 877.5,-126 871.5,-126"/>
<text text-anchor="middle" x="828.5" y="-111.2" font-family="Helvetica,sans-Serif" font-size="11.00">AbstractLogState</text>
<text text-anchor="middle" x="828.5" y="-99.2" font-family="Helvetica,sans-Serif" font-size="11.00">&lt;struct&gt;</text>
</g>
<!-- UntrustedLogImpl&#45;&gt;AbstractLogState -->
<g id="edge16" class="edge">
<title>UntrustedLogImpl&#45;&gt;AbstractLogState</title>
<path fill="none" stroke="#90a4ae" stroke-width="0.8" d="M919.44,-179.82C901.09,-165.53 874.89,-145.13 855.32,-129.89"/>
<polygon fill="#90a4ae" stroke="#90a4ae" stroke-width="0.8" points="856.52,-128.16 850.5,-126.13 853.94,-131.48 856.52,-128.16"/>
</g>
<!-- UntrustedLogImpl&#45;&gt;Ghost -->
<g id="edge17" class="edge">
<title>UntrustedLogImpl&#45;&gt;Ghost</title>
<path fill="none" stroke="#90a4ae" stroke-width="0.8" d="M951.18,-179.93C969.51,-147.64 1009.25,-77.6 1029.73,-41.51"/>
<polygon fill="#90a4ae" stroke="#90a4ae" stroke-width="0.8" points="1031.71,-42.27 1032.85,-36.02 1028.06,-40.2 1031.71,-42.27"/>
</g>
<!-- LogInfo -->
<g id="node19" class="node">
<title>LogInfo</title>
<path fill="#e3f2fd" stroke="#1976d2" d="M970,-36C970,-36 929,-36 929,-36 923,-36 917,-30 917,-24 917,-24 917,-12 917,-12 917,-6 923,0 929,0 929,0 970,0 970,0 976,0 982,-6 982,-12 982,-12 982,-24 982,-24 982,-30 976,-36 970,-36"/>
<text text-anchor="middle" x="949.5" y="-21.2" font-family="Helvetica,sans-Serif" font-size="11.00">LogInfo</text>
<text text-anchor="middle" x="949.5" y="-9.2" font-family="Helvetica,sans-Serif" font-size="11.00">&lt;struct&gt;</text>
</g>
<!-- UntrustedLogImpl&#45;&gt;LogInfo -->
<g id="edge18" class="edge">
<title>UntrustedLogImpl&#45;&gt;LogInfo</title>
<path fill="none" stroke="#90a4ae" stroke-width="0.8" d="M942.27,-179.93C943.71,-147.9 946.81,-78.75 948.45,-42.4"/>
<polygon fill="#90a4ae" stroke="#90a4ae" stroke-width="0.8" points="950.56,-42.1 948.74,-36.02 946.37,-41.92 950.56,-42.1"/>
</g>
<!-- AbstractLogState&#45;&gt;Seq -->
<g id="edge1" class="edge">
<title>AbstractLogState&#45;&gt;Seq</title>
<path fill="none" stroke="#90a4ae" stroke-width="0.8" d="M782.91,-89.93C742.25,-74.7 682.91,-52.48 641.52,-36.98"/>
<polygon fill="#90a4ae" stroke="#90a4ae" stroke-width="0.8" points="642.16,-34.98 635.8,-34.84 640.68,-38.91 642.16,-34.98"/>
</g>
<!-- Digest -->
<g id="node16" class="node">
<title>Digest</title>
<path fill="#ffebee" stroke="#c62828" d="M734.5,-36C734.5,-36 680.5,-36 680.5,-36 674.5,-36 668.5,-30 668.5,-24 668.5,-24 668.5,-12 668.5,-12 668.5,-6 674.5,0 680.5,0 680.5,0 734.5,0 734.5,0 740.5,0 746.5,-6 746.5,-12 746.5,-12 746.5,-24 746.5,-24 746.5,-30 740.5,-36 734.5,-36"/>
<text text-anchor="middle" x="707.5" y="-21.2" font-family="Helvetica,sans-Serif" font-size="11.00">Digest</text>
<text text-anchor="middle" x="707.5" y="-9.2" font-family="Helvetica,sans-Serif" font-size="11.00">&lt;external&gt;</text>
</g>
<!-- ExternalDigest&#45;&gt;Digest -->
<g id="edge5" class="edge">
<title>ExternalDigest&#45;&gt;Digest</title>
<path fill="none" stroke="#90a4ae" stroke-width="0.8" d="M707.5,-89.61C707.5,-76.03 707.5,-57.02 707.5,-42.14"/>
<polygon fill="#90a4ae" stroke="#90a4ae" stroke-width="0.8" points="709.6,-42.05 707.5,-36.05 705.4,-42.05 709.6,-42.05"/>
</g>
<!-- LogErr -->
<g id="node9" class="node">
<title>LogErr</title>
<path fill="#fff3e0" stroke="#f57c00" d="M1448,-126C1448,-126 1409,-126 1409,-126 1403,-126 1397,-120 1397,-114 1397,-114 1397,-102 1397,-102 1397,-96 1403,-90 1409,-90 1409,-90 1448,-90 1448,-90 1454,-90 1460,-96 1460,-102 1460,-102 1460,-114 1460,-114 1460,-120 1454,-126 1448,-126"/>
<text text-anchor="middle" x="1428.5" y="-111.2" font-family="Helvetica,sans-Serif" font-size="11.00">LogErr</text>
<text text-anchor="middle" x="1428.5" y="-99.2" font-family="Helvetica,sans-Serif" font-size="11.00">&lt;enum&gt;</text>
</g>
<!-- PmemError -->
<g id="node24" class="node">
<title>PmemError</title>
<path fill="#fff3e0" stroke="#f57c00" d="M1454.5,-36C1454.5,-36 1402.5,-36 1402.5,-36 1396.5,-36 1390.5,-30 1390.5,-24 1390.5,-24 1390.5,-12 1390.5,-12 1390.5,-6 1396.5,0 1402.5,0 1402.5,0 1454.5,0 1454.5,0 1460.5,0 1466.5,-6 1466.5,-12 1466.5,-12 1466.5,-24 1466.5,-24 1466.5,-30 1460.5,-36 1454.5,-36"/>
<text text-anchor="middle" x="1428.5" y="-21.2" font-family="Helvetica,sans-Serif" font-size="11.00">PmemError</text>
<text text-anchor="middle" x="1428.5" y="-9.2" font-family="Helvetica,sans-Serif" font-size="11.00">&lt;enum&gt;</text>
</g>
<!-- LogErr&#45;&gt;PmemError -->
<g id="edge6" class="edge">
<title>LogErr&#45;&gt;PmemError</title>
<path fill="none" stroke="#90a4ae" stroke-width="0.8" d="M1428.5,-89.61C1428.5,-76.03 1428.5,-57.02 1428.5,-42.14"/>
<polygon fill="#90a4ae" stroke="#90a4ae" stroke-width="0.8" points="1430.6,-42.05 1428.5,-36.05 1426.4,-42.05 1430.6,-42.05"/>
</g>
<!-- MaybeCorruptedBytes -->
<g id="node10" class="node">
<title>MaybeCorruptedBytes</title>
<path fill="#e3f2fd" stroke="#1976d2" d="M1645.5,-126C1645.5,-126 1531.5,-126 1531.5,-126 1525.5,-126 1519.5,-120 1519.5,-114 1519.5,-114 1519.5,-102 1519.5,-102 1519.5,-96 1525.5,-90 1531.5,-90 1531.5,-90 1645.5,-90 1645.5,-90 1651.5,-90 1657.5,-96 1657.5,-102 1657.5,-102 1657.5,-114 1657.5,-114 1657.5,-120 1651.5,-126 1645.5,-126"/>
<text text-anchor="middle" x="1588.5" y="-111.2" font-family="Helvetica,sans-Serif" font-size="11.00">MaybeCorruptedBytes</text>
<text text-anchor="middle" x="1588.5" y="-99.2" font-family="Helvetica,sans-Serif" font-size="11.00">&lt;struct&gt;</text>
</g>
<!-- Box -->
<g id="node15" class="node">
<title>Box</title>
<path fill="#e8f5e9" stroke="#388e3c" d="M1556.5,-36C1556.5,-36 1496.5,-36 1496.5,-36 1490.5,-36 1484.5,-30 1484.5,-24 1484.5,-24 1484.5,-12 1484.5,-12 1484.5,-6 1490.5,0 1496.5,0 1496.5,0 1556.5,0 1556.5,0 1562.5,0 1568.5,-6 1568.5,-12 1568.5,-12 1568.5,-24 1568.5,-24 1568.5,-30 1562.5,-36 1556.5,-36"/>
<text text-anchor="middle" x="1526.5" y="-21.2" font-family="Helvetica,sans-Serif" font-size="11.00">Box</text>
<text text-anchor="middle" x="1526.5" y="-9.2" font-family="Helvetica,sans-Serif" font-size="11.00">&lt;container&gt;</text>
</g>
<!-- MaybeCorruptedBytes&#45;&gt;Box -->
<g id="edge7" class="edge">
<title>MaybeCorruptedBytes&#45;&gt;Box</title>
<path fill="none" stroke="#90a4ae" stroke-width="0.8" d="M1576.25,-89.61C1566.42,-75.66 1552.56,-55.99 1541.97,-40.96"/>
<polygon fill="#90a4ae" stroke="#90a4ae" stroke-width="0.8" points="1543.69,-39.75 1538.51,-36.05 1540.25,-42.16 1543.69,-39.75"/>
</g>
<!-- MaybeUninit -->
<g id="node21" class="node">
<title>MaybeUninit</title>
<path fill="#ffebee" stroke="#c62828" d="M1658.5,-36C1658.5,-36 1598.5,-36 1598.5,-36 1592.5,-36 1586.5,-30 1586.5,-24 1586.5,-24 1586.5,-12 1586.5,-12 1586.5,-6 1592.5,0 1598.5,0 1598.5,0 1658.5,0 1658.5,0 1664.5,0 1670.5,-6 1670.5,-12 1670.5,-12 1670.5,-24 1670.5,-24 1670.5,-30 1664.5,-36 1658.5,-36"/>
<text text-anchor="middle" x="1628.5" y="-21.2" font-family="Helvetica,sans-Serif" font-size="11.00">MaybeUninit</text>
<text text-anchor="middle" x="1628.5" y="-9.2" font-family="Helvetica,sans-Serif" font-size="11.00">&lt;external&gt;</text>
</g>
<!-- MaybeCorruptedBytes&#45;&gt;MaybeUninit -->
<g id="edge8" class="edge">
<title>MaybeCorruptedBytes&#45;&gt;MaybeUninit</title>
<path fill="none" stroke="#90a4ae" stroke-width="0.8" d="M1596.4,-89.61C1602.63,-75.91 1611.37,-56.68 1618.16,-41.75"/>
<polygon fill="#90a4ae" stroke="#90a4ae" stroke-width="0.8" points="1620.18,-42.38 1620.75,-36.05 1616.36,-40.64 1620.18,-42.38"/>
</g>
<!-- Option -->
<g id="node22" class="node">
<title>Option</title>
<path fill="#e8f5e9" stroke="#388e3c" d="M271.5,-36C271.5,-36 211.5,-36 211.5,-36 205.5,-36 199.5,-30 199.5,-24 199.5,-24 199.5,-12 199.5,-12 199.5,-6 205.5,0 211.5,0 211.5,0 271.5,0 271.5,0 277.5,0 283.5,-6 283.5,-12 283.5,-12 283.5,-24 283.5,-24 283.5,-30 277.5,-36 271.5,-36"/>
<text text-anchor="middle" x="241.5" y="-21.2" font-family="Helvetica,sans-Serif" font-size="11.00">Option</text>
<text text-anchor="middle" x="241.5" y="-9.2" font-family="Helvetica,sans-Serif" font-size="11.00">&lt;container&gt;</text>
</g>
<!-- PersistentMemoryByte&#45;&gt;Option -->
<g id="edge9" class="edge">
<title>PersistentMemoryByte&#45;&gt;Option</title>
<path fill="none" stroke="#90a4ae" stroke-width="0.8" d="M339.69,-89.82C319.79,-75.47 291.35,-54.95 270.19,-39.7"/>
<polygon fill="#90a4ae" stroke="#90a4ae" stroke-width="0.8" points="271.35,-37.94 265.25,-36.13 268.89,-41.35 271.35,-37.94"/>
</g>
<!-- PersistentMemorySubregion -->
<g id="node12" class="node">
<title>PersistentMemorySubregion</title>
<path fill="#e3f2fd" stroke="#1976d2" d="M1210,-126C1210,-126 1065,-126 1065,-126 1059,-126 1053,-120 1053,-114 1053,-114 1053,-102 1053,-102 1053,-96 1059,-90 1065,-90 1065,-90 1210,-90 1210,-90 1216,-90 1222,-96 1222,-102 1222,-102 1222,-114 1222,-114 1222,-120 1216,-126 1210,-126"/>
<text text-anchor="middle" x="1137.5" y="-111.2" font-family="Helvetica,sans-Serif" font-size="11.00">PersistentMemorySubregion</text>
<text text-anchor="middle" x="1137.5" y="-99.2" font-family="Helvetica,sans-Serif" font-size="11.00">&lt;struct&gt;</text>
</g>
<!-- PersistentMemorySubregion&#45;&gt;Ghost -->
<g id="edge14" class="edge">
<title>PersistentMemorySubregion&#45;&gt;Ghost</title>
<path fill="none" stroke="#90a4ae" stroke-width="0.8" d="M1118.73,-89.61C1103.41,-75.42 1081.7,-55.31 1065.36,-40.18"/>
<polygon fill="#90a4ae" stroke="#90a4ae" stroke-width="0.8" points="1066.74,-38.59 1060.91,-36.05 1063.88,-41.67 1066.74,-38.59"/>
</g>
<!-- TrustedPermission -->
<g id="node13" class="node">
<title>TrustedPermission</title>
<path fill="#e3f2fd" stroke="#1976d2" d="M553.5,-126C553.5,-126 463.5,-126 463.5,-126 457.5,-126 451.5,-120 451.5,-114 451.5,-114 451.5,-102 451.5,-102 451.5,-96 457.5,-90 463.5,-90 463.5,-90 553.5,-90 553.5,-90 559.5,-90 565.5,-96 565.5,-102 565.5,-102 565.5,-114 565.5,-114 565.5,-120 559.5,-126 553.5,-126"/>
<text text-anchor="middle" x="508.5" y="-111.2" font-family="Helvetica,sans-Serif" font-size="11.00">TrustedPermission</text>
<text text-anchor="middle" x="508.5" y="-99.2" font-family="Helvetica,sans-Serif" font-size="11.00">&lt;struct&gt;</text>
</g>
<!-- TrustedPermission&#45;&gt;Seq -->
<g id="edge15" class="edge">
<title>TrustedPermission&#45;&gt;Seq</title>
<path fill="none" stroke="#90a4ae" stroke-width="0.8" d="M525.29,-89.61C538.89,-75.54 558.1,-55.65 572.67,-40.57"/>
<polygon fill="#90a4ae" stroke="#90a4ae" stroke-width="0.8" points="574.37,-41.82 577.03,-36.05 571.35,-38.91 574.37,-41.82"/>
</g>
<!-- WriteRestrictedPersistentMemoryRegion -->
<g id="node14" class="node">
<title>WriteRestrictedPersistentMemoryRegion</title>
<path fill="#e3f2fd" stroke="#1976d2" d="M225,-126C225,-126 12,-126 12,-126 6,-126 0,-120 0,-114 0,-114 0,-102 0,-102 0,-96 6,-90 12,-90 12,-90 225,-90 225,-90 231,-90 237,-96 237,-102 237,-102 237,-114 237,-114 237,-120 231,-126 225,-126"/>
<text text-anchor="middle" x="118.5" y="-111.2" font-family="Helvetica,sans-Serif" font-size="11.00">WriteRestrictedPersistentMemoryRegion</text>
<text text-anchor="middle" x="118.5" y="-99.2" font-family="Helvetica,sans-Serif" font-size="11.00">&lt;struct&gt;</text>
</g>
<!-- WriteRestrictedPersistentMemoryRegion&#45;&gt;Option -->
<g id="edge22" class="edge">
<title>WriteRestrictedPersistentMemoryRegion&#45;&gt;Option</title>
<path fill="none" stroke="#90a4ae" stroke-width="0.8" d="M142.51,-89.82C162.57,-75.47 191.25,-54.95 212.57,-39.7"/>
<polygon fill="#90a4ae" stroke="#90a4ae" stroke-width="0.8" points="213.9,-41.33 217.55,-36.13 211.45,-37.92 213.9,-41.33"/>
</g>
<!-- GlobalMetadata -->
<g id="node18" class="node">
<title>GlobalMetadata</title>
<path fill="#e3f2fd" stroke="#1976d2" d="M1778.5,-36C1778.5,-36 1700.5,-36 1700.5,-36 1694.5,-36 1688.5,-30 1688.5,-24 1688.5,-24 1688.5,-12 1688.5,-12 1688.5,-6 1694.5,0 1700.5,0 1700.5,0 1778.5,0 1778.5,0 1784.5,0 1790.5,-6 1790.5,-12 1790.5,-12 1790.5,-24 1790.5,-24 1790.5,-30 1784.5,-36 1778.5,-36"/>
<text text-anchor="middle" x="1739.5" y="-21.2" font-family="Helvetica,sans-Serif" font-size="11.00">GlobalMetadata</text>
<text text-anchor="middle" x="1739.5" y="-9.2" font-family="Helvetica,sans-Serif" font-size="11.00">&lt;struct&gt;</text>
</g>
<!-- LogMetadata -->
<g id="node20" class="node">
<title>LogMetadata</title>
<path fill="#e3f2fd" stroke="#1976d2" d="M1884,-36C1884,-36 1821,-36 1821,-36 1815,-36 1809,-30 1809,-24 1809,-24 1809,-12 1809,-12 1809,-6 1815,0 1821,0 1821,0 1884,0 1884,0 1890,0 1896,-6 1896,-12 1896,-12 1896,-24 1896,-24 1896,-30 1890,-36 1884,-36"/>
<text text-anchor="middle" x="1852.5" y="-21.2" font-family="Helvetica,sans-Serif" font-size="11.00">LogMetadata</text>
<text text-anchor="middle" x="1852.5" y="-9.2" font-family="Helvetica,sans-Serif" font-size="11.00">&lt;struct&gt;</text>
</g>
<!-- RegionMetadata -->
<g id="node25" class="node">
<title>RegionMetadata</title>
<path fill="#e3f2fd" stroke="#1976d2" d="M2007,-36C2007,-36 1926,-36 1926,-36 1920,-36 1914,-30 1914,-24 1914,-24 1914,-12 1914,-12 1914,-6 1920,0 1926,0 1926,0 2007,0 2007,0 2013,0 2019,-6 2019,-12 2019,-12 2019,-24 2019,-24 2019,-30 2013,-36 2007,-36"/>
<text text-anchor="middle" x="1966.5" y="-21.2" font-family="Helvetica,sans-Serif" font-size="11.00">RegionMetadata</text>
<text text-anchor="middle" x="1966.5" y="-9.2" font-family="Helvetica,sans-Serif" font-size="11.00">&lt;struct&gt;</text>
</g>
<!-- leg_struct -->
<g id="node27" class="node">
<title>leg_struct</title>
<path fill="#e3f2fd" stroke="#1976d2" d="M1907.5,-306C1907.5,-306 1877.5,-306 1877.5,-306 1871.5,-306 1865.5,-300 1865.5,-294 1865.5,-294 1865.5,-282 1865.5,-282 1865.5,-276 1871.5,-270 1877.5,-270 1877.5,-270 1907.5,-270 1907.5,-270 1913.5,-270 1919.5,-276 1919.5,-282 1919.5,-282 1919.5,-294 1919.5,-294 1919.5,-300 1913.5,-306 1907.5,-306"/>
<text text-anchor="middle" x="1892.5" y="-285.8" font-family="Helvetica,sans-Serif" font-size="9.00">struct</text>
</g>
<!-- leg_enum -->
<g id="node28" class="node">
<title>leg_enum</title>
<path fill="#fff3e0" stroke="#f57c00" d="M1835.5,-306C1835.5,-306 1805.5,-306 1805.5,-306 1799.5,-306 1793.5,-300 1793.5,-294 1793.5,-294 1793.5,-282 1793.5,-282 1793.5,-276 1799.5,-270 1805.5,-270 1805.5,-270 1835.5,-270 1835.5,-270 1841.5,-270 1847.5,-276 1847.5,-282 1847.5,-282 1847.5,-294 1847.5,-294 1847.5,-300 1841.5,-306 1835.5,-306"/>
<text text-anchor="middle" x="1820.5" y="-285.8" font-family="Helvetica,sans-Serif" font-size="9.00">enum</text>
</g>
<!-- leg_alias -->
<g id="node29" class="node">
<title>leg_alias</title>
<path fill="#f3e5f5" stroke="#7b1fa2" d="M1763.5,-306C1763.5,-306 1733.5,-306 1733.5,-306 1727.5,-306 1721.5,-300 1721.5,-294 1721.5,-294 1721.5,-282 1721.5,-282 1721.5,-276 1727.5,-270 1733.5,-270 1733.5,-270 1763.5,-270 1763.5,-270 1769.5,-270 1775.5,-276 1775.5,-282 1775.5,-282 1775.5,-294 1775.5,-294 1775.5,-300 1769.5,-306 1763.5,-306"/>
<text text-anchor="middle" x="1748.5" y="-285.8" font-family="Helvetica,sans-Serif" font-size="9.00">alias</text>
</g>
<!-- leg_union -->
<g id="node30" class="node">
<title>leg_union</title>
<path fill="#e0f7fa" stroke="#0097a7" d="M1691.5,-306C1691.5,-306 1661.5,-306 1661.5,-306 1655.5,-306 1649.5,-300 1649.5,-294 1649.5,-294 1649.5,-282 1649.5,-282 1649.5,-276 1655.5,-270 1661.5,-270 1661.5,-270 1691.5,-270 1691.5,-270 1697.5,-270 1703.5,-276 1703.5,-282 1703.5,-282 1703.5,-294 1703.5,-294 1703.5,-300 1697.5,-306 1691.5,-306"/>
<text text-anchor="middle" x="1676.5" y="-285.8" font-family="Helvetica,sans-Serif" font-size="9.00">union</text>
</g>
<!-- leg_container -->
<g id="node31" class="node">
<title>leg_container</title>
<path fill="#e8f5e9" stroke="#388e3c" d="M1619.5,-306C1619.5,-306 1589.5,-306 1589.5,-306 1583.5,-306 1577.5,-300 1577.5,-294 1577.5,-294 1577.5,-282 1577.5,-282 1577.5,-276 1583.5,-270 1589.5,-270 1589.5,-270 1619.5,-270 1619.5,-270 1625.5,-270 1631.5,-276 1631.5,-282 1631.5,-282 1631.5,-294 1631.5,-294 1631.5,-300 1625.5,-306 1619.5,-306"/>
<text text-anchor="middle" x="1604.5" y="-285.8" font-family="Helvetica,sans-Serif" font-size="9.00">container</text>
</g>
<!-- leg_primitive -->
<g id="node32" class="node">
<title>leg_primitive</title>
<path fill="#fafafa" stroke="#616161" d="M1547.5,-306C1547.5,-306 1517.5,-306 1517.5,-306 1511.5,-306 1505.5,-300 1505.5,-294 1505.5,-294 1505.5,-282 1505.5,-282 1505.5,-276 1511.5,-270 1517.5,-270 1517.5,-270 1547.5,-270 1547.5,-270 1553.5,-270 1559.5,-276 1559.5,-282 1559.5,-282 1559.5,-294 1559.5,-294 1559.5,-300 1553.5,-306 1547.5,-306"/>
<text text-anchor="middle" x="1532.5" y="-285.8" font-family="Helvetica,sans-Serif" font-size="9.00">primitive</text>
</g>
<!-- leg_external -->
<g id="node33" class="node">
<title>leg_external</title>
<path fill="#ffebee" stroke="#c62828" d="M1475.5,-306C1475.5,-306 1445.5,-306 1445.5,-306 1439.5,-306 1433.5,-300 1433.5,-294 1433.5,-294 1433.5,-282 1433.5,-282 1433.5,-276 1439.5,-270 1445.5,-270 1445.5,-270 1475.5,-270 1475.5,-270 1481.5,-270 1487.5,-276 1487.5,-282 1487.5,-282 1487.5,-294 1487.5,-294 1487.5,-300 1481.5,-306 1475.5,-306"/>
<text text-anchor="middle" x="1460.5" y="-285.8" font-family="Helvetica,sans-Serif" font-size="9.00">external</text>
</g>
</g>
</svg>
