<?xml version="1.0" encoding="UTF-8" standalone="no"?>
<!DOCTYPE svg PUBLIC "-//W3C//DTD SVG 1.1//EN"
 "http://www.w3.org/Graphics/SVG/1.1/DTD/svg11.dtd">
<!-- Generated by graphviz version 2.43.0 (0)
 -->
<!-- Title: vest_deps Pages: 1 -->
<svg width="877pt" height="95pt"
 viewBox="0.00 0.00 876.50 95.00" xmlns="http://www.w3.org/2000/svg" xmlns:xlink="http://www.w3.org/1999/xlink">
<g id="graph0" class="graph" transform="scale(1 1) rotate(0) translate(4 91)">
<title>vest_deps</title>
<polygon fill="white" stroke="transparent" points="-4,4 -4,-91 872.5,-91 872.5,4 -4,4"/>
<g id="clust2" class="cluster">
<title>cluster_legend</title>
<path fill="white" stroke="#9e9e9e" d="M370.5,-8C370.5,-8 848.5,-8 848.5,-8 854.5,-8 860.5,-14 860.5,-20 860.5,-20 860.5,-67 860.5,-67 860.5,-73 854.5,-79 848.5,-79 848.5,-79 370.5,-79 370.5,-79 364.5,-79 358.5,-73 358.5,-67 358.5,-67 358.5,-20 358.5,-20 358.5,-14 364.5,-8 370.5,-8"/>
<text text-anchor="middle" x="609.5" y="-67" font-family="Helvetica,sans-Serif" font-size="10.00" fill="#616161">legend</text>
</g>
<!-- Repeat -->
<g id="node1" class="node">
<title>Repeat</title>
<path fill="#e3f2fd" stroke="#1976d2" d="M53,-52C53,-52 12,-52 12,-52 6,-52 0,-46 0,-40 0,-40 0,-28 0,-28 0,-22 6,-16 12,-16 12,-16 53,-16 53,-16 59,-16 65,-22 65,-28 65,-28 65,-40 65,-40 65,-46 59,-52 53,-52"/>
<text text-anchor="middle" x="32.5" y="-37.2" font-family="Helvetica,sans-Serif" font-size="11.00">Repeat</text>
<text text-anchor="middle" x="32.5" y="-25.2" font-family="Helvetica,sans-Serif" font-size="11.00">&lt;struct&gt;</text>
</g>
<!-- RepeatN -->
<g id="node2" class="node">
<title>RepeatN</title>
<path fill="#e3f2fd" stroke="#1976d2" d="M136,-52C136,-52 95,-52 95,-52 89,-52 83,-46 83,-40 83,-40 83,-28 83,-28 83,-22 89,-16 95,-16 95,-16 136,-16 136,-16 142,-16 148,-22 148,-28 148,-28 148,-40 148,-40 148,-46 142,-52 136,-52"/>
<text text-anchor="middle" x="115.5" y="-37.2" font-family="Helvetica,sans-Serif" font-size="11.00">RepeatN</text>
<text text-anchor="middle" x="115.5" y="-25.2" font-family="Helvetica,sans-Serif" font-size="11.00">&lt;struct&gt;</text>
</g>
<!-- UInt -->
<g id="node3" class="node">
<title>UInt</title>
<path fill="#f3e5f5" stroke="#7b1fa2" d="M212.5,-52C212.5,-52 178.5,-52 178.5,-52 172.5,-52 166.5,-46 166.5,-40 166.5,-40 166.5,-28 166.5,-28 166.5,-22 172.5,-16 178.5,-16 178.5,-16 212.5,-16 212.5,-16 218.5,-16 224.5,-22 224.5,-28 224.5,-28 224.5,-40 224.5,-40 224.5,-46 218.5,-52 212.5,-52"/>
<text text-anchor="middle" x="195.5" y="-37.2" font-family="Helvetica,sans-Serif" font-size="11.00">UInt</text>
<text text-anchor="middle" x="195.5" y="-25.2" font-family="Helvetica,sans-Serif" font-size="11.00">&lt;alias&gt;</text>
</g>
<!-- UnsignedLEB128 -->
<g id="node4" class="node">
<title>UnsignedLEB128</title>
<path fill="#e3f2fd" stroke="#1976d2" d="M336.5,-52C336.5,-52 254.5,-52 254.5,-52 248.5,-52 242.5,-46 242.5,-40 242.5,-40 242.5,-28 242.5,-28 242.5,-22 248.5,-16 254.5,-16 254.5,-16 336.5,-16 336.5,-16 342.5,-16 348.5,-22 348.5,-28 348.5,-28 348.5,-40 348.5,-40 348.5,-46 342.5,-52 336.5,-52"/>
<text text-anchor="middle" x="295.5" y="-37.2" font-family="Helvetica,sans-Serif" font-size="11.00">UnsignedLEB128</text>
<text text-anchor="middle" x="295.5" y="-25.2" font-family="Helvetica,sans-Serif" font-size="11.00">&lt;struct&gt;</text>
</g>
<!-- leg_struct -->
<g id="node5" class="node">
<title>leg_struct</title>
<path fill="#e3f2fd" stroke="#1976d2" d="M840.5,-52C840.5,-52 810.5,-52 810.5,-52 804.5,-52 798.5,-46 798.5,-40 798.5,-40 798.5,-28 798.5,-28 798.5,-22 804.5,-16 810.5,-16 810.5,-16 840.5,-16 840.5,-16 846.5,-16 852.5,-22 852.5,-28 852.5,-28 852.5,-40 852.5,-40 852.5,-46 846.5,-52 840.5,-52"/>
<text text-anchor="middle" x="825.5" y="-31.8" font-family="Helvetica,sans-Serif" font-size="9.00">struct</text>
</g>
<!-- leg_enum -->
<g id="node6" class="node">
<title>leg_enum</title>
<path fill="#fff3e0" stroke="#f57c00" d="M768.5,-52C768.5,-52 738.5,-52 738.5,-52 732.5,-52 726.5,-46 726.5,-40 726.5,-40 726.5,-28 726.5,-28 726.5,-22 732.5,-16 738.5,-16 738.5,-16 768.5,-16 768.5,-16 774.5,-16 780.5,-22 780.5,-28 780.5,-28 780.5,-40 780.5,-40 780.5,-46 774.5,-52 768.5,-52"/>
<text text-anchor="middle" x="753.5" y="-31.8" font-family="Helvetica,sans-Serif" font-size="9.00">enum</text>
</g>
<!-- leg_alias -->
<g id="node7" class="node">
<title>leg_alias</title>
<path fill="#f3e5f5" stroke="#7b1fa2" d="M696.5,-52C696.5,-52 666.5,-52 666.5,-52 660.5,-52 654.5,-46 654.5,-40 654.5,-40 654.5,-28 654.5,-28 654.5,-22 660.5,-16 666.5,-16 666.5,-16 696.5,-16 696.5,-16 702.5,-16 708.5,-22 708.5,-28 708.5,-28 708.5,-40 708.5,-40 708.5,-46 702.5,-52 696.5,-52"/>
<text text-anchor="middle" x="681.5" y="-31.8" font-family="Helvetica,sans-Serif" font-size="9.00">alias</text>
</g>
<!-- leg_union -->
<g id="node8" class="node">
<title>leg_union</title>
<path fill="#e0f7fa" stroke="#0097a7" d="M624.5,-52C624.5,-52 594.5,-52 594.5,-52 588.5,-52 582.5,-46 582.5,-40 582.5,-40 582.5,-28 582.5,-28 582.5,-22 588.5,-16 594.5,-16 594.5,-16 624.5,-16 624.5,-16 630.5,-16 636.5,-22 636.5,-28 636.5,-28 636.5,-40 636.5,-40 636.5,-46 630.5,-52 624.5,-52"/>
<text text-anchor="middle" x="609.5" y="-31.8" font-family="Helvetica,sans-Serif" font-size="9.00">union</text>
</g>
<!-- leg_container -->
<g id="node9" class="node">
<title>leg_container</title>
<path fill="#e8f5e9" stroke="#388e3c" d="M552.5,-52C552.5,-52 522.5,-52 522.5,-52 516.5,-52 510.5,-46 510.5,-40 510.5,-40 510.5,-28 510.5,-28 510.5,-22 516.5,-16 522.5,-16 522.5,-16 552.5,-16 552.5,-16 558.5,-16 564.5,-22 564.5,-28 564.5,-28 564.5,-40 564.5,-40 564.5,-46 558.5,-52 552.5,-52"/>
<text text-anchor="middle" x="537.5" y="-31.8" font-family="Helvetica,sans-Serif" font-size="9.00">container</text>
</g>
<!-- leg_primitive -->
<g id="node10" class="node">
<title>leg_primitive</title>
<path fill="#fafafa" stroke="#616161" d="M480.5,-52C480.5,-52 450.5,-52 450.5,-52 444.5,-52 438.5,-46 438.5,-40 438.5,-40 438.5,-28 438.5,-28 438.5,-22 444.5,-16 450.5,-16 450.5,-16 480.5,-16 480.5,-16 486.5,-16 492.5,-22 492.5,-28 492.5,-28 492.5,-40 492.5,-40 492.5,-46 486.5,-52 480.5,-52"/>
<text text-anchor="middle" x="465.5" y="-31.8" font-family="Helvetica,sans-Serif" font-size="9.00">primitive</text>
</g>
<!-- leg_external -->
<g id="node11" class="node">
<title>leg_external</title>
<path fill="#ffebee" stroke="#c62828" d="M408.5,-52C408.5,-52 378.5,-52 378.5,-52 372.5,-52 366.5,-46 366.5,-40 366.5,-40 366.5,-28 366.5,-28 366.5,-22 372.5,-16 378.5,-16 378.5,-16 408.5,-16 408.5,-16 414.5,-16 420.5,-22 420.5,-28 420.5,-28 420.5,-40 420.5,-40 420.5,-46 414.5,-52 408.5,-52"/>
<text text-anchor="middle" x="393.5" y="-31.8" font-family="Helvetica,sans-Serif" font-size="9.00">external</text>
</g>
</g>
</svg>
